/* XPM */
static char *_1c06785753742a5a8cbee0928944879BzCNk2iMINMC3epE[] = {
/* columns rows colors chars-per-pixel */
"64 64 8 1 ",
"  c #63C446",
". c #B39265",
"X c #D8B174",
"o c #9CDB43",
"O c #C0F675",
"+ c #FF00DE",
"@ c #E1C190",
"# c #E4D2AA",
/* pixels */
"+++oooooooooooooooooooooooooooooooooooooooooooooooooooooooooo+++",
"+++ooooooooooooooooo ooooooooooo  ooooooooooooooooooooooooooo+++",
"+++ooooo.. o..o ..o  .oo.. o..o .. o..o ..o ..  ..o ....o ooo+++",
"oooooo  ..o ..oo..oo..oo..o ..oo..oo.. o..oo..  ..oo.... ooooooo",
"oooooo..@....@...#..X@..@@..##..#@..@@..@@..@#..#@..@#....oooooo",
"oooooo...........#..@@..@@..##..#@..@#..@#..##..@@..@#....oooooo",
"oooooo o...@@#####@@@@@@@@@@#####@@@@##@@@@###@@@@@@@@@@..oooooo",
"ooooooo ..@######@@@@@@@@@@@####@@@@@@@@@@###@@@@@@@@@@@..oooooo",
"oooooo..@#######@@@@@@@@@@@#####@@@@@@@@@@###@@@@@@@@@.. ooooooo",
"oooooo..#######@@@@@@@@@@@@####@@@@@@@@@@###@@@@@@@@@@..o oooooo",
"oooooo o..###@@@@@@@@@@@@@#####@@@@@@@@@@###@@@@@@@@@@@@..oooooo",
"oooooo  ..##@@@@@@@@X@@@@######@@@@@@@@@@###@@@@#@@@@@@@..oooooo",
"oooooo..###@@@@@@@@@X@@@######@@@@@@@@@@###@@@@@@@@@@@.. ooooooo",
"oooooo..#@@@@@@@@@@@@@@######@@@@@@@@@@@###@@@@@@@@@@@..o oooooo",
"oooooo o..@@@@@@@@@@@#######@@@@@@@@@@@####@@@@@@@@@@###..oooooo",
"oooooo  ..@@@@@@@@X########@@@@@@@@@@#####@@@@@@@@@#####..oooooo",
"oooooo..@@@@@@@@@#########@@@@@@@@#######@@##@@@@#####..  oooooo",
"oooooo..@@@@@@@##########@@@@@@@########@@@##@@#######..o oooooo",
"oooooo o..@@@@########@@@@@@@@@########@@@@@@@########@@..oooooo",
"ooooooo ..@@@########@@@@@@@@@#######@@@#@@@@########@@@..oooooo",
"oooooo..@@@########X@@@@@@@@@######@@@@@@@@@#######@@@..o oooooo",
"oooooo..@@########X@@@@@@@@@@####@@@@@@@@@@######@@@@@..o  ooooo",
"oooooo o..#######@@@@@#@@@@@####@@@@@@@@@@######@@@##@#@.. ooooo",
"ooooooo ..######@@@@@@@@@@@@###@@@@@@@@@@######@@@@##@@@..oooooo",
"oooooo..#######@@@@@@@@@@@@###@@@@@@@@@@@#####@@@@@@@@.. ooooooo",
"oooooo..######@@@@@@@@@@@@###@@@@@@@@@@@#####@@@@@@@@@..o oooooo",
"oooooo o..###@@@@@@@@@@@####@@@@@@@@@@@#####@@@@@@@@@@@o..oooooo",
"oooooo o..#@@@@@@@@@@@#####@@#@@@@@@@@#####@@@@@@@@@@@#o..oooooo",
"oooooo..#@@@@@@@@@@@######@@@@@@@@@@######@@@@@#@@@@@#..  oooooo",
"oooooo..@@@@@@@@@@@X####@@@@#@@@@@#######@@@@#@@@@@@##..o oooooo",
"oooooo o..@@@@@@@@####@@@@@@@@@@@#######@@@@@@@@@@@###@o..oooooo",
"ooooooo ..@@@@@@@#####@@@@@@@@@@#######@@@@@@@@@@@###@@o..oooooo",
"oooooo..@@@@@@@@#####@@@@@@@@@@#######@@@@@@@@@@@@###@..oooooooo",
"oooooo..@@@@@@@#####@@@@@@@@@@######@@@@@@@@@@@@@###@@.. ooooooo",
"oooooo  ..@@@@####@@@@@@@@@@@######@@@@@@@@@@@@@###@@@@@..oooooo",
"ooooooo ..@@@####@@@@@@@@@@#######@@@@@#@@@@@@####@@@@@@..oooooo",
"oooooo..@@@######@@@@@@@@@@######@@@@@@@@@@@@####@@@@#..oooooooo",
"oooooo..@@@#####@@@@@@@@@@#######@@@@##@@#@@####@@@@@#..o oooooo",
"oooooo o..######@@@@@@@@@@#######@@@@##@@@@###@@@@@@@@@@.. ooooo",
"ooooooo ..####@@@@@@@@@@@@######@@@@@@@@@@###@@@@@@@@@@@..oooooo",
"oooooo..#####@@@@@@@@@@@@#######@@@@@@@@@@###@@@@@@@@@.. ooooooo",
"oooooo..####@@@@@@@@@@@########@@@@@@@@@@###@@@@@@@@@@..o oooooo",
"oooooooo..#@@@@@@@@@@@#########@@@@@@@@@@###@@@@@@@@@@@@..oooooo",
"oooooo o..@@@@@@@@@@@##########@@@@@@@@@@###@@@@#@@@@@@@..oooooo",
"oooooo..##@@@@@@@@@###########@@@@@@@@@@###@@@@@@@@@@@..o oooooo",
"ooooo  .#@@@@@@@@############@@@@@@@@@@@###@@@@@@@@@@@..o oooooo",
"ooooo oo..@@@@@@@###########@@@@@@@@@@@####@@@@@@@@@@###..oooooo",
"ooooo oo..@@@@@@###########@@@@@@@@@@#####@@@@@@@@@#####..oooooo",
"oooooo..@@@@@@@@##########@@@@@@@@#######@@##@@@@#####.. ooooooo",
"oooooo..@@@@@@@##########@@@@@@@########@@@##@@#######..  oooooo",
"oooooo  ..@@@#########@@@@@@@@@########@@@@@@@########@o..oooooo",
"oooooooo..@@#########@@@@@@@@@#######@@@#@@@@########@@...oooooo",
"oooooo..@@##########@@@@@@@@@######@@@@@@@@@#######@@@.. ooooooo",
"oooooo..@@########@@@@@@@@@@@####@@@@@@@@@@######@@@@@..o oooooo",
"oooooooo..#######@@@#@#@@@@@####@@@@@@@@@@######@@@##@#@..oooooo",
"oooooo o..######@@@@@@@@@@@####@@@@@@@@@@######@@@@##@@...oooooo",
"oooooo..##..##..@@..@@..@@..##..@@..@@..##..##..@@..@@...ooooooo",
"oooooo..##..##..@@..@@..##..#@..@@..@X..##..X@..X@..X@..  oooooo",
"oooooo.... #......@ ..@#..##..X@.......o...X..X...XX......oooooo",
"oooooo.o..o ..o... @..  ...X...X..  ..oo..o...O ... ......oooooo",
"ooooooo   oooooo ooo oooo. .. o.  Ooooooo oO oO  ooooo  oooooooo",
"+++oooooooooooooooooooooooo  OoooooooooooooOooooooooooooooooo+++",
"+++oooooooooooooooooooooooooooooooooooooooooooooooooooooooooo+++",
"+++oooooooooooooooooooooooooooooooooooooooooooooooooooooooooo+++"
};
