/* XPM */
static char *a28992885dd1423fc0b0adf13d622272deyPpxEdRKsV0Y7I[] = {
/* columns rows colors chars-per-pixel */
"64 64 205 2 ",
"   c #010101",
".  c #0A0601",
"X  c #050804",
"o  c #0D0B03",
"O  c #02010A",
"+  c #0C0C0C",
"@  c #110E02",
"#  c #110F08",
"$  c #0E1206",
"%  c #0F1108",
"&  c #151305",
"*  c #191607",
"=  c #1C1B03",
"-  c #14130A",
";  c #1B1C0A",
":  c #020312",
">  c #0E0E11",
",  c #131313",
"<  c #1C1A11",
"1  c #18161A",
"2  c #19191A",
"3  c #221E08",
"4  c #1D2107",
"5  c #222107",
"6  c #20210A",
"7  c #2D2C0A",
"8  c #2C300D",
"9  c #333206",
"0  c #32320A",
"q  c #373808",
"w  c #3C3A0E",
"e  c #252611",
"r  c #2D2B11",
"t  c #3A3B14",
"y  c #403D13",
"u  c #484909",
"i  c #4D500D",
"p  c #545606",
"a  c #484817",
"s  c #44431C",
"d  c #545719",
"f  c #5B5C1A",
"g  c #5E600F",
"h  c #5E611A",
"j  c #61621A",
"k  c #64661A",
"l  c #7A7E1C",
"z  c #434721",
"x  c #4B4C23",
"c  c #575826",
"v  c #666626",
"b  c #66642B",
"n  c #727625",
"m  c #737927",
"M  c #656532",
"N  c #777A38",
"B  c #2F557D",
"V  c #34557E",
"C  c #505154",
"Z  c #727540",
"A  c #7E8326",
"S  c #7E8236",
"D  c #848724",
"F  c #86872F",
"G  c #8D9127",
"H  c #94982B",
"J  c #999D2B",
"K  c #858737",
"L  c #868A34",
"P  c #8A8C34",
"I  c #989D32",
"U  c #99A02C",
"Y  c #9FA533",
"T  c #9FA538",
"R  c #A1A634",
"E  c #A6AE32",
"W  c #A1A43A",
"Q  c #AAB135",
"!  c #AAB239",
"~  c #B2B937",
"^  c #B4BA3B",
"/  c #BEC836",
"(  c #BEC63C",
")  c #D4DC15",
"_  c #D7DE1E",
"`  c #DADF1E",
"'  c #D7E11D",
"]  c #D9E11D",
"[  c #D6DE24",
"{  c #DADF23",
"}  c #D6DE2D",
"|  c #DADE2A",
" . c #C3CC38",
".. c #CCD53C",
"X. c #CFDC3E",
"o. c #D4DC34",
"O. c #D9DE31",
"+. c #D4DA3D",
"@. c #D4DD3C",
"#. c #D7E123",
"$. c #D8E022",
"%. c #D7E129",
"&. c #DAE12C",
"*. c #D6E332",
"=. c #DCE333",
"-. c #DBE23B",
";. c #D9E43C",
":. c #949744",
">. c #A7AA4A",
",. c #AAB145",
"<. c #B2B749",
"1. c #B4BA49",
"2. c #B4B653",
"3. c #ADB462",
"4. c #BCC245",
"5. c #BCC358",
"6. c #C5CB43",
"7. c #C5CB4B",
"8. c #C5C94C",
"9. c #CCD644",
"0. c #CFD64E",
"q. c #D2D743",
"w. c #D4DB42",
"e. c #D8DE45",
"r. c #D4DD4B",
"t. c #DBE343",
"y. c #DBE449",
"u. c #D9E155",
"i. c #2E5585",
"p. c #27578B",
"a. c #2E5489",
"s. c #2A5889",
"d. c #325585",
"f. c #385282",
"g. c #32558A",
"h. c #33598D",
"j. c #2B5693",
"k. c #2C5C92",
"l. c #335593",
"z. c #345A96",
"x. c #385F96",
"c. c #3A5F9A",
"v. c #2C6299",
"b. c #3B6397",
"n. c #3D619C",
"m. c #2F69A2",
"M. c #3D64A2",
"N. c #3F6BA7",
"B. c #3B6AAB",
"V. c #3D6BAB",
"C. c #3E67B2",
"Z. c #3C6AB2",
"A. c #3471B4",
"S. c #3E73B5",
"D. c #41679E",
"F. c #42689F",
"G. c #4366A6",
"H. c #4269A5",
"J. c #4467AB",
"K. c #4964AC",
"L. c #4269AC",
"P. c #4968A9",
"I. c #4B7CAC",
"U. c #4C66B0",
"Y. c #426AB1",
"T. c #4176B6",
"R. c #4D88CB",
"E. c #528ED2",
"W. c #4A93D3",
"Q. c #5896D7",
"!. c #6EA2CC",
"~. c #5EBDFC",
"^. c #66A3E3",
"/. c #66A8EE",
"(. c #6AB4EE",
"). c #6DB8EE",
"_. c #72B1EA",
"`. c #78BFEC",
"'. c #64AFF2",
"]. c #6CACF3",
"[. c #6BB4F5",
"{. c #65B9F2",
"}. c #6BBAF5",
"|. c #64B7FA",
" X c #69B6FA",
".X c #62BBFD",
"XX c #65BAFD",
"oX c #63BCFC",
"OX c #6AB9FD",
"+X c #69B8FE",
"@X c #73B5F4",
"#X c #71BDF7",
"$X c #71B4FB",
"%X c #6DC1ED",
"&X c #74C0EF",
"*X c #75C2F2",
"=X c #8EC5F3",
"-X c #9ACEFE",
";X c #87D2FC",
":X c #96D6FC",
">X c #9FD4FC",
",X c #9DD9FF",
"<X c #9FD9FF",
"1X c #A3D5FC",
"2X c white",
/* pixels */
":Xg.G.H.H.d.d.L.L.L.Q.l.g.g.d.n.OXi.d.a.(.:Xp.d.n.OXi.d.a.(.:Xp.i.K.L.d.i.K.L.d.a.j.L.L.C L.x.K.Y.~.L.C L.x.K.1XB.B.L.J.}.d.d..X",
"oX.XV.L.L.G.a.L.K.Y.~.<X<X<XXXS.OXa..X.Xj.~.oXXXS.OXa..X.Xj.~.oX[.K.L.K.[.K.L.K.$Xv.L.L.C L.L.L. XL.L.C L.L.L.B.$XB.}. XV d.G.d.",
"d.d.OXOX1XB.B.L.J.}.d.d.L.L.L./.Z.~.L.F.d.d.d.L./.Z.~.L.F.d.d.d.p.OX<XG.p.OX<XG.L.=Xh.K.G.V.R.%XJ.L.K.J.V.R.%XL.Z.&Xg.i.n.M.L.d.",
"d.d.d.i.B.$XB.}. XV d.G.L.G.G.G.{.P.L.L.a.d.d.G.G.{.P.L.L.a.d.d.d.d.G. Xd.d.G. XL.1X}.~.~.1Xd.d.oXL.~.~.1Xd.d.Z.d.d.V.T..X_.L.h.",
"n.h.b.L.L.Z.&Xa.i.n.M.L.J.n.d.d.<Xg.z.L.L.n.n.d.d.<Xg.z.L.L.n.n.d.M.L.J.d.M.L.J.Z.].L.J.J.1Xc.d.d.>XJ.J.1Xc.d.k.d.d.k.-Xs.d.G.D.",
"G.D.V.E.Z.d.d.V.T..X_.L.b.d.d.M.L.L.OXJ.G.g.F.d.M.L.L.OXJ.G.g.F.G.[.    X     f.~.L.J.P.Z.$XY.g.d.2XP.Z.$XY.g.a.(.:Xp._.oXXXJ.d.",
"g.d.s.Q.k.d.d.k.-Xs.d.G.L.h.d.d.L.B.XXJ.g.d.d.d.d.L.B.XXJ.g.d.d.d.J.  [ %.[ [ [ [ ` r.    d.L.L.L.Q.l.g.g.d.n..Xj.1XB.B.L.J.}.d.",
"n.OXi.d.a.(.:Xp._.oXXXJ.C G.G.g.C B. XOX<X1X#XG.g.C B. XOX<X<X#X~.J.  _           s =.{ &.    K.Y.~.<X<X<XXXS.F.d.B.$XB.}. XV d.",
"S.OXa..X.Xj.~.oXG.L.L.V.R. XL.H.d.d.d.g.XX*XB.V.L.J.^.s.d.g.L.L.G.oXC.[   o.$.] L +   . ' { %.  }.d.d.L.L.L./.L.a.L.Z.&Xa.i.n.M.",
"/.Z.~.L.F.d.d.d.L.G.G.H.Q.H.L.L.H.g.d.d.d.z.$XZ.M.}.T.a.d.L.L.G.G.K.).[   O     m ] r.O     ] $.    G.L.G.G.G.L.L.Z.d.d.V.T..X_.",
"G.{.P.L.L.a.d.d.L.c.d.d.!.i.x.L.L.n.c.d.{ $.=.{ { { $.{ { $.| $.{ $.{ $.{ { { 0 O   * $.*.O O $.[     J.n.d.d.J.G.k.d.d.k.-Xs.d.",
"d.<Xg.z.L.L.n.n.C N.G.a.W.OXB g.L.L.{ #.] ,                 X       { $.$.$.$.[ { P   O . #.X O ' [     B.H.g.oXoXa.(.:Xp._.oXXX",
"M.L.L.OXJ.G.g.F.C L.L.A.+   oXd.%.$.'   o   %.%.%.%.%.%.%.%.%.%.%.      -.{ $.$.$.| } w.  & %.O   ` #.    L.'.a.J..Xj.~.oXG.L.L.",
"d.a.(.:Xp.g.d.d.C K.Z.+     &.=.'   O O %.*.                      &.*.O +   8.$.$.$.$.O.u.  O %.O O { &.    b.d.L.F.d.d.d.L.G.G.",
".X.Xj.~.oX<X<X#XL.B.+     o.$.. .   o.[ o o   o.o.o.+.o.o.o.o.+.O o o + @.# . . k $.$.$.] q.O o o.  X {       J.L.L.1XB.B.L.J.}.",
"L.F.d.d.d.L.g.h.B.    . u.} . O t.t.. . O w.@.$.$.%.$.$.$.$.$.%.w.w.e.O . y.t.z O s $.$.$.| r.O o y.+ { t.    h.L.L.B.$XB.}. XV ",
"L.L.a.d.d.J.g.d.      ^ o.7 O ^ x a   J I $.$.$.{ | $.{ 7 7 7 7 7 { { J   x s >.N $ q $.$.$.' I   {   7 { ^   i.d.J.L.Z.&Xa.i.n.",
"z.L.L.n.n.d.g.;X  o W | s O W c O K K $.$.$.$.s s s s s O T T W   s s [ K K - x K Z . a $.$.$.$.+ c W   s {     i.oXZ.d.d.V.T..X",
"OXJ.G.g.F. X@X  ; k =.A O v ,.  y $.$.' l l l   b b v     E E ! b b O l &.$.i ; c :.M . l $.$.*.w   E v   ] v   }.V.k.d.d.k.-Xs.",
"XXJ.g.d.d.d.  & g } 3.O 9 ( O 6 $.$.` !   9 9 9 ( ( /       + O  .( 9   -./ +.a - d 8.0   Q ! $.| 3   { O Q { 2   E.a.(.:Xp._.oX",
"d.a.(.:Xp.L.  i } 5.: = ..O & $.$.]  .  5 ......          +         ..  ;.o 5.} m . * 6.4 4   $.$.] O ..3   =.    g..Xj.~.oXG.L.",
".X.Xj.~.oXL.. p ! O @ r.O   ] w.+.+.  & w.                              =.o   1.o.P O * | O.  $.$.]     { 2 { .   d.F.d.d.d.L.G.",
"L.F.d.d.d.L.Y | >.- -.    $.{     . X o.              O . . .     O.O.&.$.o     n P & { ` *.  $.$.$.]   {   o.`   g.1XB.B.L.J.}.",
"L.L.a.d.d.L.Y H O < o.  { $.{   $.$.$.                  [ [ [ %.O O + [ [ % O   n P 3 } t.    $.$.$.] O {     `   C B.$XB.}. XV ",
"z.L.L.n.n.L.[ H x w.O   { { '   ] $.{             $.` { O O     ` %.O   -.%.6 O n P O   O O.    $.$.$.    {   `   C L.Z.&Xa.i.n.",
"OXJ.G.g.F..Xu O t r.  $.{ %.  O { ` $.        O =.      O $.]   O   {     ..] s n { $.q.O   {   $.=.$.]   {   `   h.Z.d.d.V.T..X",
"XXJ.g.d.d.G.u i ^     { &.  O $.  O O O   O $.&.O O #.{ { { { ' ` O   [     6.a O   & ] *.  |   &.$.$.]   {   `   d.k.d.d.k.-Xs.",
" XOX<X<X#XG.u i ^ . { { %.X $.  O $.| '   #.O     { {     O   O $.{ O   | o 8.{ F     o *.  | , $.$.$.]   {   `   d.a.(.:Xp._.oX",
"d.a.(.:Xp.J.O i ^ . { %.X X ] O ] { { O   | O ' #.{       &.{ { { { ` O | $ O W F     o *.  {   $.$.$.]   {   `   m..Xj.~.oXG.J.",
".X.Xj.~.oX~.Y !   + | '   { O   ] `   O {     [       O &.]         {   X o.5 W F     o *.  {   $.$.$.]   =.  `   L.F.d.d.d.L.G.",
"L.F.d.d.d.i.Y ! e $.y.  O {   $.$.`   &.  O ' | O O #.&.{                 o.5 W F     o *.  {   $.$.$.] 2 {   `   L.L.a.d.d.L.c.",
"L.L.a.d.d.g.Y ! 7 ] y.O |     $.$.` 1 {   ] {     | ]                     o.5 W F   O e *.  {   $.$.$.&.  {   `   L.L.L.n.n.C N.",
"z.L.L.n.n.C     e O.t.  |   $.$.{ + O {   #.  O O #.              +       } 5 W F   7 { =.  {   $.$.$.]   {   `   g.J.G.g.F.C L.",
"OXJ.G.g.F.J.{ | %.0.O O |   $.$.{   { O   #.  O #.'             +             R L + & +.    |   $.$.#.]   {   {   ,     1XB.B.L.",
"XXJ.g.d.d.C     w 0.  $.O   $.$.{   {   $.]   1 $.                          6.#.L O & w.  &.  O $.$.]     {   { =.{ { ] B.$XB.}.",
"a.(.:Xp.#XC     w 0.  $.  $.$.$.{   {   {   2 O `   ] O                   ..| s   f #.q.  &.  =.$.$.]   {     &.      ] L.Z.&Xa.",
".Xj.~.oXG.L.    w 0.  $.  &.$.$.{   {   $.+   O `   $.  {             _ { { 5     f 0.  O &.1 $.$.] $.  {   $.{   {   ] Z.d.d.V.",
"F.d.d.d.h.J.d.  w 0.  %.- $.$.$.{   {   {     O `   $.  ] {         { {   1     n { 0.o &.+   $.{ $.    `   $.{   {   ] k.d.d.k.",
"L.a.d.d.g.g.d.  w 0.  *.  ] $.$.{   {   {     O {   $.+ O { %.{ { { $.O ,     ^ { P   o &.O ' $.$.    $.    {     {   ] a.(.:Xp.",
"L.L.n.n.oXoX|.  w 0.  $.  ] $.$.{   {   {     O [   + #.  $.{         ,     6.) n O ; o.O   $.$.$.  ` -   { {   {     $..Xj.~.oX",
"a.(.:Xp.d.d.g.  t 0.  $.  $.$.$.{ 1 {   { {   O ] $.  ` O O ` { { O     | { $.7 O f r.    $.$.%.    &.  { $.{   {   { $.F.d.d.d.",
".Xj.~.oXa.g.a.  w 0.  $.O   $.$.=.  { O   #.    O #.  O |   O O ] $.{ { [ o O O n >.O . $.$.{   O | O   $.{ O   {   |   1XB.B.L.",
"F.d.d.d.L.L.L., w 0.    $.  $.&.{     $.  { { |   ' | O   { `             O 7.{ :.O # $.$.-.  O $.  O { $.] O {     #.  B.$XB.}.",
"L.a.d.d.L.L.L.d.w { ;.O |   $.$.| `   { O O   [     ' |   O O =.{ { { { { { 4 > O s ] $.*.O O [   O | $.' O   ] X { #.  L.Z.&Xa.",
"L.L.n.n.d.C L.n.  # t.  |   $.$.$.` O O { &.O [     $.] $.| , O O O O O O O O W $.$.$.X.O . ] O   ' $.$.    { X   ] O   Z.d.d.V.",
"J.G.g.F.s.L.L.L.  # y.  |     { $.`   %.&.%.O ' $.  `     1 | { | | { { { | | %.#.P     O o.  O &.$.{ O   $.1 O | { C L.k.d.d.k.",
"J.g.d.d.[.A.J.C   # y.,   &.  $.$.`   { #.      | %.#.O $.      $.$.$.] $.$.$.7     * $.;.. O $.$.$.] O &..   %.{   L.B.a.(.:Xp.",
"i.d.a.(.:Xp.@XL.l.- $.@.  {   O ] `     O &.&.  O $.#.    &.$.O       -         m &.u.- . . &.$.$.{ O   {   *.{     z.B.1XB.B.L.",
"a..X.Xj.~.oXoXV.g.> . $.O . t.O   { o.o.O . . -.    $.@.  . . -.-.;.,   t.-.-.-.L . . . @.w.$.$.    O ;..   ` .     l.L.B.$XB.}.",
"~.L.F.d.d.d.oXn.d.    ] <.  r  .  $.$.| ^ ~   8  ., = [ ^ ~   r 7 s     r r r r < t ^ ^ $.$.$.=    .7.r   ^ {     d.d.}.L.Z.&Xa.",
"P.L.L.a.d.d.{.`.1X1XO 7 ] 2.O $.  ; $.$.$.{ 2.  q 8.  * $.$.<.<.<.<.<.<.<.<.<.<.<.4.$.[ -.; ; O 7.w 7   <.[ 7   p. X Xg.Z.d.d.V.",
"g.z.L.L.n.n.d.h.G.L.  O G | > G K O j $.$.$._ b   G S   j j j $.$.$.$.$.$.$.$.| $.$.+.j v O S N I   f d { G   E.W.L.H.d.k.d.d.k.",
"L.OXJ.G.g.F.d.B.J.g.d.    { a   J j   A $.$.$.' a   J h j h   A D D $.$.$.$.&.G A A N X h j J U   a { J J   d.<Xf.L.L.J.a.(.:Xp.",
"i.d.a.(.:Xp.L.G.L.L.d.d.  7.%.= O  .9   ^ $.$.$.' =   6.6.9.0 0 0   ^ ^ ^ 4.^ e ; 0 0 q 6.8.  = = {  .      d.1Xd.h.G.L..Xj.~.oX",
"a..X.Xj.~.oXH.l.C L.J.h.    r.{     e.@   q.$.$.$.{     $ O e.e.e.@ o o o @ o o N e.e.u.O   . | e.r.    B.H.h.}.|.g.j.L.F.d.d.d.",
"~.L.F.d.d.d.a.l.C J.V.B.I.  O } ] .   @.. O } } $.$.$.-.{ . . . O } } } } } } } K   . . < ' } *.      C L.V.^.i.G.$Xv.L.L.a.d.d.",
"n.OXi.d.a.(.:Xp.C U.@Xs.b.G.  O %.{ o O {     O | | o.$.$.#.} ' O O O O O O O O O s ` =.%.o.      L.L.C J.@Xg.D.L.L.=Xh.L.L.n.n.",
"S.OXa..X.Xj.~.oXN.XXV h.L.V.Y.  O =.] O   $.$.        [ ` { O #.$.%.#.#.#.$.$.#.#.[ u.        G.L.L.G.g.L.L.K.J.d.h.G.L.J.G.g.F.",
"/.Z.~.L.F.d.d.d.L.L.G.g.L.L.K.J.d.  } $.      $.$.$.      {     +                         |.g.j.L.L.C L.x.K.Y.~.|.g.C J.@Xg.D.L.",
"G.{.P.L.L.a.d.d.L.L.C L.x.K.Y.~.h.}.  $.{ {   1     $.{   {   1   L.^.i.G.$Xv.L.L.C L.^.i.G.$Xv.L.L.C L.L.L. XL.G.$Xg.L.L.K.J.d.",
"d.<Xg.z.L.L.n.n.L.L.C L.L.L. XL.^.i.G.    { &.| $.      O {   L.C L.g.D.L.L.=Xh.K.J.V.g.D.L.L.=Xh.K.J.V.R.%XJ.L.L.L.L.x.K.Y.~.|.",
"M.L.L.OXJ.G.g.F.h.K.J.V.R.%XJ.L.g.D.L.L.  2     $.$.$.$.$.|   K.G.V.H.L.L.L.1X}.~.~.1XH.L.L.L.1X}.~.~.1Xd.d.oXL.L.L.L.L.L. XL.G.",
"d.L.B.XXJ.g.d.d.}.~.~.1Xd.d.oXL.H.L.L.L.>X                    ~.~.1XL.d.G.Z.].L.J.J.1XL.d.G.Z.].L.J.J.1Xc.d.d.>XG.Z.V.R.%XJ.L.L.",
"g.C B. XOX<X<X#XL.J.J.1Xc.d.d.>XL.d.G.Z.].L.J.J.1Xc.d.d.>X].L.J.J.1XG.d.f.~.L.J.P.Z.$XG.d.f.~.L.J.P.Z.$XY.g.d.2Xf.~.1Xd.d.oXL.L."
};
