/* XPM */
static char *c09db2ed447340f2ffe5514fe3f39d65TkU6ysnQ9XSd4c4Q[] = {
/* columns rows colors chars-per-pixel */
"64 64 204 2 ",
"   c #010101",
".  c #0A0601",
"X  c #050804",
"o  c #0D0B03",
"O  c #02010A",
"+  c #0C0C0C",
"@  c #110E02",
"#  c #110F08",
"$  c #0E1206",
"%  c #0F1108",
"&  c #151305",
"*  c #191607",
"=  c #1C1B03",
"-  c #14130A",
";  c #1B1C0A",
":  c #020312",
">  c #0E0E11",
",  c #131313",
"<  c #1C1A11",
"1  c #18161A",
"2  c #19191A",
"3  c #221E08",
"4  c #1D2107",
"5  c #222107",
"6  c #20210A",
"7  c #2D2C0A",
"8  c #2C300D",
"9  c #333206",
"0  c #32320A",
"q  c #373808",
"w  c #3C3A0E",
"e  c #252611",
"r  c #2D2B11",
"t  c #3A3B14",
"y  c #403D13",
"u  c #484909",
"i  c #4D500D",
"p  c #545606",
"a  c #474716",
"s  c #44431C",
"d  c #494A19",
"f  c #545719",
"g  c #5B5C1A",
"h  c #5E600F",
"j  c #5E611A",
"k  c #61621A",
"l  c #64661A",
"z  c #7A7E1C",
"x  c #434721",
"c  c #4B4C23",
"v  c #575826",
"b  c #666626",
"n  c #66642B",
"m  c #727625",
"M  c #737927",
"N  c #656532",
"B  c #777A38",
"V  c #2F557D",
"C  c #34557E",
"Z  c #505154",
"A  c #727540",
"S  c #7E8326",
"D  c #7E8236",
"F  c #848724",
"G  c #86872F",
"H  c #8D9127",
"J  c #94982B",
"K  c #999D2B",
"L  c #858737",
"P  c #868A34",
"I  c #8A8C34",
"U  c #989D32",
"Y  c #99A02C",
"T  c #9FA533",
"R  c #9FA538",
"E  c #A1A634",
"W  c #A6AE32",
"Q  c #A1A43A",
"!  c #AAB135",
"~  c #AAB239",
"^  c #B2B937",
"/  c #B4BA3B",
"(  c #BEC836",
")  c #BEC63C",
"_  c #D4DC15",
"`  c #D7DE1E",
"'  c #DADF1E",
"]  c #D7E11D",
"[  c #D9E11D",
"{  c #D6DE24",
"}  c #DADF23",
"|  c #D6DE2D",
" . c #DADE2A",
".. c #C3CC34",
"X. c #C3CC3B",
"o. c #CCD53C",
"O. c #CFDC3E",
"+. c #D4DC34",
"@. c #D9DE31",
"#. c #D4DA3D",
"$. c #D4DD3C",
"%. c #D7E123",
"&. c #D8E022",
"*. c #D7E129",
"=. c #DAE12C",
"-. c #D6E332",
";. c #DCE333",
":. c #DBE23B",
">. c #D9E43C",
",. c #949744",
"<. c #A7AA4A",
"1. c #AAB145",
"2. c #B2B749",
"3. c #B4BA49",
"4. c #B4B653",
"5. c #ADB462",
"6. c #BCC245",
"7. c #BCC358",
"8. c #C5CB43",
"9. c #C5CB4B",
"0. c #C5C94C",
"q. c #CCD644",
"w. c #CFD64E",
"e. c #D2D743",
"r. c #D4DB42",
"t. c #D8DE45",
"y. c #D4DD4B",
"u. c #DBE343",
"i. c #DBE449",
"p. c #D9E155",
"a. c #2E5585",
"s. c #27578B",
"d. c #2E5489",
"f. c #2A5889",
"g. c #325585",
"h. c #385282",
"j. c #32558A",
"k. c #33598D",
"l. c #2B5693",
"z. c #2C5C92",
"x. c #335593",
"c. c #345A96",
"v. c #385F96",
"b. c #3A5F9A",
"n. c #2C6299",
"m. c #3C6295",
"M. c #3D619C",
"N. c #37689B",
"B. c #2F69A2",
"V. c #3D64A2",
"C. c #3F6BA7",
"Z. c #3B6AAB",
"A. c #3D6BAB",
"S. c #3E67B2",
"D. c #3C6AB2",
"F. c #3471B4",
"G. c #3E73B5",
"H. c #41679E",
"J. c #42689F",
"K. c #4366A6",
"L. c #4269A5",
"P. c #4467AB",
"I. c #4964AC",
"U. c #4269AC",
"Y. c #4968A9",
"T. c #4B7CAC",
"R. c #4C66B0",
"E. c #426AB1",
"W. c #4176B6",
"Q. c #4D88CB",
"!. c #528ED2",
"~. c #4A93D3",
"^. c #5896D7",
"/. c #6EA2CC",
"(. c #5EBDFC",
"). c #66A3E3",
"_. c #66A8EE",
"`. c #6AB4EE",
"'. c #6DB8EE",
"]. c #72B1EA",
"[. c #78BFEC",
"{. c #64AFF2",
"}. c #6CACF3",
"|. c #6BB4F5",
" X c #65B9F2",
".X c #6BBAF5",
"XX c #64B7FA",
"oX c #69B6FA",
"OX c #63BBFC",
"+X c #6AB9FD",
"@X c #73B5F4",
"#X c #71BDF7",
"$X c #71B4FB",
"%X c #6DC1ED",
"&X c #74C0EF",
"*X c #75C2F2",
"=X c #8EC5F3",
"-X c #9ACEFE",
";X c #87D2FC",
":X c #96D6FC",
">X c #9FD4FC",
",X c #9DD9FF",
"<X c #A3D5FC",
"1X c white",
/* pixels */
"U.U.OXg.g.<X(.h.1Xg.j.E.$XD.Y.P.U.(.h.g.U.$XD.Y.P.E.(.h.g.U.<XP.P.K.}.>Xg.g.b.<XP.P.K.}.D.U.g.U.>Xg.g.b.<XP.P.K.#X,X,X+X+XA.Z j.",
"U.U.P.%XQ.A.D.U.>Xg.g.b.<XP.P.K.}.D.U.j.U.<XP.P.K.}.D.U.g.U.<X(.(.                    <XK.U.U.L.U.OXg.g.<X(.(..Xg.g.j.P.OXA.K.g.",
"K.U.oXU.U.U.K.U.U.OXg.g.<X(.(..X<XK.U.U.L.<X(.(..X<XK.U.U.L.A.P.K.   .&.&.&.&.&.    2   K.U.H.j.U.P.%XQ.A.P.K.k.J.j.U.P.+XU.K.V.",
"XX(.E.K.v.U.K.U.U.P.%XQ.A.P.K.k.=XK.U.H.j.A.P.K.k.=XK.U.H.j.U.Z K.  }         &. .=.}     K.a.).U.oXU.U.U.Z K.K.M.M.U.K.c.j.,Xg.",
"g.P.I.K.K.j.$XK.U.oXU.U.U.Z K.K.n.$XK.a.).U.Z K.K.n.$XK.a.).U.  1   }   } %.    1   } } &.  .Xk.(.E.K.v.U.Z U.K.g.g.d.U.U.Y. XK.",
"U.H.j.@XP.Z j.XX(.E.K.v.U.Z K.K.l.j.XX                        +     }       &.&.&.      %.|   g.P.I.K.K.j.U.K.U.g.g.g.J.U.(.D._.",
"J.j.U.P.U.U.k.g.P.I.K.K.j.U.K.K.U.        p.{ %.%.&.&.%.%.%.*.&.%.O } ' {         &.&.  O ] ;.    E.A.U.j.C OXC.OX(.l.OXOXd.+XG.",
"M.M.U.K.k.=XK.U.H.j.@XE.Z K.K.      +.*.;.' s                   ]  .&.&.&.+.| |   .   }   o } *.    U.m.f.@XR.Z s.:X`.d.g.a.+XM.",
"g.g.d.U.K.n.$XK.a.).A.U.Z       -.| [ < . .   L | | @.| | | |   . . . } :.&.&.&.| | O . $.  . ] | O   T.Z.A.P.Z x.d.g.g.g.J.U.(.",
"g.g.g.J.K.l.j.XX.Xk.L.A.    y.t. ..     p.t.t.B o o @ @ o o @ t.r.t.  % . . } %.&.&.e.  @ t.  . } y.    j.P.K.Z x.L.OX(.l.OXOXd.",
"OX(.l.OXU.U.k.g.<Xg.      X.} = =   0.8.q 0 0 ; e / 6./ / /   0 0 0 q.8.8.  = ] &.&.&./   9 X.  = *.9.  g.g.K.U.U.K.s.:X`.d.g.a.",
"s.:X`.d.P.K.K.h.,Xg.  K K } d   Y K k j X B S S H =.&.&.&.&.F F S   j k j K   d ] &.&.&.S   k K   d }     g.j.P.A.g.J.j.U.P.+XU.",
"z.g.g.z.g.L.U.~.!.  H } f g   U B D   b k #.&.&. .&.&.&.&.&.&.&.&.k k k   D H   n ` &.&.&.k   L H >  .H     U.L.k.g.M.M.U.K.c.j.",
"A.g.g.D.j.+XoXs.  7 { 2.  7 w 9.  ; ; :.&.&.6.2.2.2.2.2.2.2.2.2.2.2.&.&.*   0.q   4.} &.&.&.;   =.  4.] 7 O <X<X[. Xg.g.d.U.U.Y.",
"d.&XD.K..Xg.g.    } /   r 9.X.  = %.&.&./ / t < r r r r     s r r   ^ / { = , ..8   ^ /  .&.&.  ..r   2.] .   g.N.OXg.g.g.J.U.(.",
".XZ.$XA.U.x.    . }   . >.  .   %.&.r.+.. . . P :.:.:.u.  , >.:.:.. .   $.&.    :.. . O +.+.}     u..   %.. > j.A.OXOX(.l.OXOXd.",
"U.A.A.<XA.c.  . } -.  }     } &.&.-.. . - p.=.M         -         %.=..   %.&.    =.=.  .   ' &.    }   r.&.- x.K.@Xs.:X`.d.g.a.",
"s.:X`.d.A.K.  } *.  . =.  ] &.&.*.O . >.%.*     7 &.&.&.] &.&.&.      =.  %.*. .      %.}   ' &.%.  =.  , i.#   Z P.F.|.g.g.j.P.",
"z.g.g.z.K.Z }  .  < %.    } &.=.O . $.      I &.*. . .} } }  . .}  .1     '   &.[   *.=.*.  ' &.}      .. i.#   U.U.U.d.J.j.U.P.",
"A.g.g.D.    ]   X }     &.&.&.  O ] .   O.&.&.&.Q O               , | %.] &.    {   =.} O   ' &.%.&.   .. u.@   M.U.Z g.V.M.U.K.",
"d.&XD.K.  %.} X ]   O [ &. .    {   O -.&.[ s O > 4 } } } } } } ;.       .[     {       }   '  .&.&.   .  >.} w g.K.K.K.g.g.d.U.",
".XZ.$XA.  %.    }   ] &.} O   &.O   :.&.&.@   ,.} 9.              ' }      .]    .} }   &.    } =.&.  &..   w.w , K.K.K.g.g.g.J.",
"U.A.A.<X   .  }     } &.     .    } &.%.o   <.m O   X { } } &.] O      .O   %.      %.    }   ;.&.&.  O *.. w.w   d.j.d.OX(.l.OX",
"g.g.g.J.&.}   }   } &.}   =.    *.&.=.    y.g   7 =.}  .      } } '     }   %.]     } }   } 1 } &.&.&.  *.. w.w   j.g.g.s.:X`.d.",
"OX(.l.OX&.    }   } }   - '   %.&.}   O +.;   m _ q.    ,         } &.  %.+   {       }   }   } &.&.]   %.. w.w   XXOXOXM.M.U.K.",
"s.:X`.d.]   }     }     &.    &.&.[   =.o   I } /     ,   &.} } } *.}   + &.  }       }   }   } &.&.]   ;.. w.w   g.j.j.g.g.d.U.",
"z.g.g.z.]   }   } &.  '     &.} &.  + =.o w.} m     1   } }         } ]   &.  }       }   }   } &.&.&.- *.. w.w   g.P.k.g.g.g.J.",
"A.g.g.D.]   }   } &.  }   &.] &.&.1 =.    w.g     5 } } `             }   &.  }     > &.  }   } &.&.=.  %.. w.w     K.U.OX(.l.OX",
"d.&XD.K.]       =.    }   ] &.{ ;.  =.. r.] g   s } o.                    ]   }   2   }   }   } &.&.&.  %.. w.w     Z #Xs.:X`.d.",
".XZ.$XA.] } } ;.}   }     ] &.%.O   =.. r.&   P %.8.                          &.1   ] &.  }   } &.&.    %.. w.w     Z g.g.j.P.OX",
"U.A.A.<X    ,   }   }   ] %.&.&.   .    r.& + P E             +             ] %.    %.  O }   } &.&.  |   O w.*. .} P.J.j.U.P.+X",
"U.Z J.j.U.P.j.  '   }   ] &.&.&.  } . ;.} 7   G Q 5 |       +               %.  O   %.  }   + } &.&.   .  u.@.e     Z M.M.U.K.c.",
"C.Z M.M.U.K.K.  '   }   =.&.&.&.   .. -.e     G Q 5 +.                    ]  .    } ]   } 2 } &.&.     .  i.&.e ! T j.g.g.d.U.U.",
"b.U.g.g.d.U.U.  '   } 2 ] &.&.&.   .. -.o     G Q 5 +.                } =.%.O   | ]     =.  ' &.&.  }     i.&.e ! T a.g.g.g.J.U.",
"L.U.g.g.g.J.U.  '   ;.  ] &.&.&.   .. -.o     G Q 5 +.X   }         ] ;.        {     }     ' ]   O }   ]  .+   ! T (.OX(.l.OXOX",
"U.L.OX(.l.OXB.  '   }   ] &.&.&.   .. -.o     G Q   $ |   } } } } } =.      } %.[    .  O } } &.  ] X X *.} o / i   P.s.:X`.d.g.",
"OX].s.:X`.d.g.  '   }   ] &.&.&., } . -.o     G } 0.o |     } &.          } }     O %.  [  .&.    =.X *.} } o / i u U.#X,X,X+X+X",
"f.-Xz.g.g.z.g.  '   }   ] &.&.;.  } . -.] &     a 8.    {     ' ] } } } } %.O   =.&.            &.O   =.}     / i u U.g.j.j.P.OX",
"OXW.A.g.g.D.j.  '   }   [ &.;.&.  } .   r.*.} m s ] o.  O }   O   ] &.        ;.          &.} }     *.} &.  y.t   u OXJ.j.U.P.+X",
"M.a.d.&XD.K.Z   '   }     &.&.&.    @.  .   I m   6 *.:.    *.'         } ' =.            } &.&.  ] } } .   r.c J { U.M.M.U.K.c.",
"C oX.XZ.$XA.Z   '     }   ] &.&.%.  . u. .3 I m     % { { +     *.{ { {                   %.&.&.  } &.}   +.< O J T K.g.g.d.U.U.",
".XP.U.A.A.<Xj.  ' +.  }   ] &.&.&.. -.' } & I m     o &.=.@.@.  . . . .                 +.X .     } &.    :.- <. .T K.g.g.g.J.U.",
"L.U.g.g.g.J.g.  o } 2 }   . ] &.&.. @. .&   I @.3.  o :.. . .                         r.&   #.#.r.[ .   y.@   ~ p . K.OX(.l.OXOX",
"U.L.OX(.l.OXj.    ;.  3 o.  ] &.&.. 4 4 8.- o M | 7.o :.  o.        +           o.o.o.5   ..] &.&.& O o.= : 7.| i   K.s.:X`.d.j.",
"OX].s.:X`.d.!.  2 } !   }   3  .&.~ !   0 0.f - a #.( :.  q ) X.  +       ( ) ) 9 9 9   ~ ' &.&.6   ) 9 O 5.| h &   g.g.g.j.P.OX",
"f.-Xz.g.g.z.A..X  b ]   n W   w ;.&.&.z . N ,.v ; i &.=.z   n n ! W W     n n n   z z z ] &.%.y   1.b   S ;.l ;   @XoXJ.j.U.P.+X",
"OXW.A.g.g.D.OXa.    } s   Q v + %.&.&.&.d . A I c - L L { s s   Q R R   s s s s s &.&.&.&.L L   v Q   s | Q o   ;Xj.g.M.M.U.K.c.",
"M.a.d.&XD.K.P.g.a.  / } 7   }   U [ &.&.&.q % B <.d c   K } } 7 7 7 7 7 } &. .} &.&.&.U K   d c / O 7 $./ .     g.j.P.g.g.d.U.U.",
"C oX.XZ.$XA.K.K.j.    u.} + i.o O y.| &.&.&.a O x u.i.o   r.r.r.*.&.&.&.&.%.*.&.&.+.r.O o . u.u.  .  .p..     A.k.j.K.g.g.g.J.U.",
".XP.U.A.A.<XU.U.P.      } X   +.o O r.] &.&.&.l . . # $.+ o o   #.+.+.+.+.#.+.+.+.  o o { @.  . . &.+.    + Z.K.#X,X,XOX(.l.OXOX",
"L.L.U.g.g.g.J.U.g.N.    =.}   O *.    p.@.&.&.&.&.0.  +   ;.=.                      ;.*.  O   ] ;.=.    + D.I.Z g.g.j.s.:X`.d.g.",
"U.U.L.OX(.l.OXP.d.{.K.    %.' . O *.&   r. .| &.&.&.} :.      *.*.*.*.*.*.*.*.*.*.*.  X   ] &.*.g.OX  + F.U.U.Z J.j.U.P.+XU.K.V.",
"OXOX].s.:X`.d.OXOXj.L.A.    { [   X %..     I } { &.&.&.&.}       X                 , ] %.} K.K.j.V +X~.d.U.C.Z M.M.U.K.c.j.,Xg.",
"g.f.-Xz.g.g.z.U.P.g.g.M.P.    { &.O   -.&.*   O 0 } } } &.} &.} %. .&.} } &.} } } ;.&.} g.b.M.U.U.v.a./.g.g.b.U.g.g.d.U.U.Y. XK.",
"].OXW.A.g.g.D.U.K.K.L.L.U.K.    &.' .     y.&.M         { '.I.K.L.K.U.g.d.W..XV.D.$Xc.g.g.g.j.L.U.U.U.^.L.L.L.U.g.g.g.J.U.(.D._.",
"V.M.a.d.&XD.K.d.U._.U.U.K.g.g..X  *.} [ .   + P &.&.+.  { S.OXU.U.U.j.g.d.).P.K.A.Z.*XOXj.g.j.g.L.K.oXQ.A.U.U.L.OX(.l.OXOXd.+XG.",
"g.C oX.XZ.$XA.g.J.G.OX,X,X,X(.E.K.    =.} ;.s           `   P.(.#X,X,X+X+XA.Z j.U.#X,X,X+X+XA.Z j.U.U.Z P.OXOX].s.:X`.d.g.a.+XM.",
"g..XP.U.A.A.<Xl.OXM.g.j.j.x.^.U.K.K.g.    y.' { { { { *.{   P.g.g.g.j.P.OXA.K.g.g.g.g.j.P.OXA.K.g.g.j.K.U.g.f.-Xz.g.g.z.^.d.g.j.",
"g.P.OXOX].s.:X`.d.j.E.$XD.Y.1Xg.j.E.$XD.Y.P.E.(.h.    X     |.U.J.j.U.P.+XU.K.V.g.J.j.U.P.+XU.K.V.g.g.m.K.].OXW.A.g.g.D.!.A.H.L.",
"H.U.g.f.-Xz.g.g.z.g.b.<XP.P.>Xg.g.b.<XP.P.K.}.D.P.K.V.g.P.K.V.g.M.M.E.K.c.j.,Xg.g.M.M.U.K.c.j.,Xg.g.M.P.U.V.M.a.d.&XD.K.K.m.j.M.",
"j.K.].OXW.A.g.g.D.g.g.<X(.(.U.OXg.g.<X(.(..X<XK.+XU.g.g.+XU.g.g.g.g.d.U.U.Y. XK.L.g.g.d.U.U.Y. XK.L.L.U.K.g.C oX.XZ.$XA.a.g.g.g.",
"g.U.V.M.a.d.&XD.K.%XQ.A.P.K.U.P.%XQ.A.P.K.k.=XK.U.,X+Xs.U.,X+Xs.g.g.g.J.U.(.D._.U.g.g.g.J.U.(.D._.U.U.K.g.g..XP.U.A.A.<X+X+Xg.g.",
"g.K.g.C oX.XZ.$XA.U.U.U.Z K.U.oXU.U.U.Z K.K.n.$XK.K.I.|.K.K.I.|.OX(.l.OXOXd.+XG.OXOX(.l.OXOXd.+XG.OX,X,X,X(.E.K.K.d.U.K.U.A.OXOX",
"OXg.g..XP.U.A.A.<XK.v.U.Z K.(.E.K.v.U.Z K.K.l.j.g.K.K.a.g.K.K.a.s.:X`.d.g.a.+XM.g.s.:X`.d.g.a.+XM.g.j.j.x.^.U.K.K.g.g.L.L.U.j.:X"
};
