/* XPM */
static char * c_xpm[] = {
"64 64 61 1",
" 	c None",
".	c #675353",
"+	c #000000",
"@	c #211D1D",
"#	c #6F5756",
"$	c #FCA89D",
"%	c #D41900",
"&	c #FE8270",
"*	c #A15C52",
"=	c #812611",
"-	c #FB9B72",
";	c #E17B50",
">	c #FF4D00",
",	c #A84111",
"'	c #8C6A56",
")	c #453625",
"!	c #874A00",
"~	c #BAA368",
"{	c #FAE898",
"]	c #FAFA82",
"^	c #D3D9B2",
"/	c #999F8E",
"(	c #82A368",
"_	c #00FF8C",
":	c #07BB79",
"<	c #323C39",
"[	c #14605D",
"}	c #696A6A",
"|	c #00EDFF",
"1	c #DEF9FC",
"2	c #748F93",
"3	c #17394A",
"4	c #3494CB",
"5	c #3B6983",
"6	c #0C1317",
"7	c #12274D",
"8	c #A5B5D4",
"9	c #0F1833",
"0	c #4C63E0",
"a	c #CDD1EC",
"b	c #42428F",
"c	c #31314B",
"d	c #1E1B80",
"e	c #2F1D5A",
"f	c #5A5875",
"g	c #222034",
"h	c #76428A",
"i	c #B598B2",
"j	c #8D768A",
"k	c #D77BBA",
"l	c #8F4975",
"m	c #472138",
"n	c #EF3E6D",
"o	c #70162B",
"p	c #5C855B",
"q	c #244B3A",
"r	c #111F12",
"s	c #1B0B0B",
"t	c #10162E",
"u	c #1A130F",
"v	c #1C1429",
")....)))))))))))))))))))))))))t@))#########.))))######........) ",
"#####.)))....................)g))###########...##############.) ",
"######..#####################.))#############################.) ",
"##############################.)#############################.) ",
"##############################.)#############################.) ",
"#############################.)###############################. ",
"#############################.)################################ ",
"#############################.)################################ ",
"#############################.)################################ ",
"#############################.)################################ ",
"#############################.)################################ ",
"############################################################### ",
"############################################################### ",
"############################################################### ",
")############################################################.) ",
")#############################.)#############################.) ",
")#############################.)#############################.) ",
")#############################.)#############################.) ",
"##############################.)#########.)))####.))))#######.) ",
"#############################.)g))))####.))))))))))))))#####.)) ",
"############################.))g))))))))))))))))))))))))))))))) ",
"############################.))9g)))))))))))))))))))))))))))))) ",
"###################}}#######..}fc))))))).#.)))))))))))))))))))) ",
"###################}jj*******jjj}*******jj#)))))))))))))))))))g ",
"###################jj~;;;;;;;;jj~;;;;;;;;j#)))))))))))))))))))9 ",
"###################jj~;;;;;;;;jj~;;;;;;;;j#)))))))))))))))))))9 ",
"###################jj~;;;;;;;;jj~;;;;;;;;j#)))))))))))))))))))) ",
"###################jj~;***;;;;jj~;;;;;;;;j#)))))))))))))))))))) ",
"###################jj~;;;;;;;;jj~;;;;;;;;j#)))))))))))))))))))) ",
"###################jj~;;;;;;;;jj~;;;;;;;;j.)))))))))))))))))))g ",
")##.)))############jj~;;;;;;;;jj~;;;;;;;;jfg)))))))gggg))))))g9 ",
"@@@@g33cccccc@@@gcfjjj~~~~~~~jjjj~~~~~~~jjf3cff3@@@666t33333@66 ",
"t33cfffffff33333cff}}}}}}}}}}jjjj}}}}}}}}}fcffffcffffff333cffff ",
"33cfffffffff333cffffccccccc<<}jj}<ccccccccffcffcffffffffff3ccff ",
"3cfffffffffff3cfffffco=====omc}..o=====omcfffccffffffffffff9cfc ",
"9cfffffffffffffcffffc#,,,,,,=@gg@=,,,,,,ocffffcffffffffffffcff3 ",
"tcfffffffffffffcffff.#,,,,,,,====,,,,,,,=cffffcfffffffffffcffff ",
"3cffffffffffffffffffco==,,,,,,=,,,,,,,==ocffffcffffffffffgcffff ",
"3cffffffffffffffffffco=,,,,,,,,,,,,,,,==ocffff3cffffffffg3cffff ",
"3cfffffffffffffccfffc#,,,,,,,,,,,,,,,,,,=cffff33cffffffcfffcfff ",
"33cfffffffffff333cffc.oooooooooooooooooomcffff333cffffcfffffgcc ",
"33gcfffffffffcffffcccc.......cgcccmc...fffffffcffffcccfffffff93 ",
"cf3gcfffffffcfffffffcffffffffftcff3gcffffffffcffffffcffffffffft ",
"fff3tgggccccffffffffcfffffffffcffff3gccccccccffffffffffffffffff ",
"ffff33333cffffffffffcfffffffffffffff33cffff3cffffffffffffffffff ",
"fffff333cfffffffffff3cffffffffffffff3cfffff3cffffffffffffffffff ",
"fffffcf3cfffffffffff3gcfffffffffffff3cffffffcffffffffffffffffff ",
"cfffcffffcfffffffcccff3cccffffccffff3cfffffffcfffffffcfffffffff ",
"3cccffffffcfffffcffffff333cff3tgcff33cfffffff3cfffff3gcffffffff ",
"33cffffffffcfffcffffffffff3c336t3c333cfffffff93cfff33t3cfffffff ",
"3cffffffffffcccffffffffffff93666ttt933cfffff3t33cc333t33cfffffc ",
"cfffffffffffffcfffffffffffft3666t333933cccc3369333336t333cccc33 ",
"ffffffffffffffcfffffffffff33336t3333693333336t333tt66t33333333t ",
"ffffffffffffffcffffffffffg333333333333933333333366t333t93333366 ",
"cfffffffffffff3cffffffffg33333333333333ttt9333333t333336t933666 ",
"cfffffffffffff33cffffffcfff93333333333333333333333333333t333336 ",
"3ccfffffffffff333cffffcfffff93t9333333333333333333333333t333333 ",
"33gcffffffffffcffffcccfffffff3669333333933333333333333333333333 ",
"933gcffffffffcffffffcfffffffff6669333t6t33333339333333333333333 ",
"t333gccffffccfffffffffffffffff3t333333333333333t333333333333ttt ",
"33333cffffffcfffffffffffffffff3t3333333333333366933333333333336 ",
"33333cfffffffcfffffffcffffffff333333933333t93333333333933333333 ",
"933333cfffff33cfffff3gcffffff33t9336693336669333333336693333333 ",
"222222222222222f222222222222222f222222222222222f222222222222222f"};
