/* XPM */
static char * e_xpm[] = {
"45 64 10 1",
" 	c None",
".	c #3D253B",
"+	c #362030",
"@	c #25131A",
"#	c #BF704D",
"$	c #895A45",
"%	c #90919E",
"&	c #ADC1CF",
"*	c #523B40",
"=	c #724736",
"............+................+...............",
"............+................+...............",
"............+................+...............",
"............+................+++.++.+........",
"............+................................",
"............+................................",
"............+................................",
".............................................",
"............+++++++++++++.+..................",
"............................+................",
"............................+................",
"....+.......................+................",
"....+.......................+................",
"....+.......................+................",
"++++++++.+.............++++++.........+.+++++",
".............................................",
".............................................",
".............................................",
"....+........................................",
"....+........................................",
"....+........................................",
"....+++++++++................................",
"....+.......+................................",
"....+.......+................................",
"....+........................................",
".............................................",
".............................................",
".............................................",
".............................+...............",
".............................+...............",
".............................+++++++++.......",
".......+++++++++++++++++.+...................",
"............+.......+........................",
"............+.......+........................",
"............+.......+........................",
"............+................................",
"............+................................",
"+++++++++.+.................+................",
".............................................",
"............................+................",
"............................+................",
"............................+................",
".............+..............+++++..+.+.......",
".............+..............+........+.......",
".............+..............+........+.......",
".............+..............+........+.......",
".............+..............+........+.......",
"@@@@@@@@@@@@  @@@@@@@@@@@@@@    ##      ##   ",
"$##$##$##$##@@@%%%%%%%%%%%%@@   $$      $$   ",
"$##$##$##$##@@%&@%&@@@@&%@&%@   $$      $$   ",
"@@@@@@@@@@@@@@%@@%&*$$*&%@@%@@@#%&######&%#@@",
"*$$*$$*$$*$$@@&@*%&&&&&&%*@&@@@$$$$$$$$$$$$@@",
"*$$*$$*$$*$$@@&@$&&@@@@&&$@&@@@@**@@@@@@**@@@",
"*$$*$$*$$*$$@@&@$@@*$$*@@$@&@@@@$$@@@@@@$$@@@",
"@@@@$$*$@%&&@@&@$*$*$$*$*$@&@@@@$$@@@@@@$$@@@",
"%&&&@$*@%&&%@@&@$*$*$$*$*$@&@@@@$$@@@@@@$$@@@",
"@@@&@$*$@@@@@@&@$*$*$$*$*$@&@@@@$$@@@@@@$$@@@",
"*@%&&@*$$*$$@@%@$*$*$$*$*$@%@@@@$$@@@@@@$$@@@",
"*%$*@&@$@%&&@@&@$*$*$$*$*$@&@@@#%&######&%#@@",
"*%$*@%@@%&&%@@%@**********@%@@@$$$$$$$$$$$$@@",
"*$%%%@*=@@@@@@%&@@@@@@@@@@&%@@@@**@@@@@@**@@@",
"@==*==*==*==@@@%%%%%%%%%%%%@@@@@$$@@@@@@$$@@@",
"@@@@@@@@@@@@@ @@@@@@@@@@@@@@ @@@$$@@@@@@$$@@@",
"@@                      @@@@                 "};
