/* XPM */
static char * g_xpm[] = {
"64 64 60 1",
" 	c #675353",
".	c #000000",
"+	c #211D1D",
"@	c #6F5756",
"#	c #FCA89D",
"$	c #D41900",
"%	c #FE8270",
"&	c #A15C52",
"*	c #812611",
"=	c #FB9B72",
"-	c #E17B50",
";	c #FF4D00",
">	c #A84111",
",	c #8C6A56",
"'	c #453625",
")	c #874A00",
"!	c #BAA368",
"~	c #FAE898",
"{	c #FAFA82",
"]	c #D3D9B2",
"^	c #999F8E",
"/	c #82A368",
"(	c #00FF8C",
"_	c #07BB79",
":	c #323C39",
"<	c #14605D",
"[	c #696A6A",
"}	c #00EDFF",
"|	c #DEF9FC",
"1	c #748F93",
"2	c #17394A",
"3	c #3494CB",
"4	c #3B6983",
"5	c #0C1317",
"6	c #12274D",
"7	c #A5B5D4",
"8	c #0F1833",
"9	c #4C63E0",
"0	c #CDD1EC",
"a	c #42428F",
"b	c #31314B",
"c	c #1E1B80",
"d	c #2F1D5A",
"e	c #5A5875",
"f	c #222034",
"g	c #76428A",
"h	c #B598B2",
"i	c #8D768A",
"j	c #D77BBA",
"k	c #8F4975",
"l	c #472138",
"m	c #EF3E6D",
"n	c #70162B",
"o	c #5C855B",
"p	c #244B3A",
"q	c #111F12",
"r	c #1B0B0B",
"s	c #10162E",
"t	c #1A130F",
"u	c #1C1429",
"8'@@@@'''''''''''''''''''''''''8+''@@@@@@@@@@''''@@@@@@@@@@@@@@'",
"'@@@@@@'''@@@@@@@@@@@@@@@@@@@@'8''@@@@@@@@@@@@@@@@@@@@@@@@@@@@@'",
"'@@@@@@@@@@@@@@@@@@@@@@@@@@@@@@''@@@@@@@@@@@@@@@@@@@@@@@@@@@@@@'",
"'@@@@@@@@@@@@@@@@@@@@@@@@@@@@@@@'@@@@@@@@@@@@@@@@@@@@@@@@@@@@@@'",
"'@@@@@@@@@@@@@@@@@@@@@@@@@@@@@@@'@@@@@@@@@@@@@@@@@@@@@@@@@@@@@@'",
"'@@@@@@@@@@@@@@@@@@@@@@@@@@@@@@'@@@@@@@@@@@@@@@@@@@@@@@@@@@@@@@@",
"'@@@@@@@@@@@@@@@@@@@@@@@@@@@@@@'@@@@@@@@@@@@@@@@@@@@@@@@@@@@@@@@",
"'@@@@@@@@@@@@@@@@@@@@@@@@@@@@@@'@@@@@@@@@@@@@@@@@@@@@@@@@@@@@@@@",
"@@@@@@@@@@@@@@@@@@@@@@@@@@@@@@@'@@@@@@@@@@@@@@@@@@@@@@@@@@@@@@@@",
"@@@@@@@@@@@@@@@@@@@@@@@@@@@@@@@'@@@@@@@@@@@@@@@@@@@@@@@@@@@@@@@@",
"@@@@@@@@@@@@@@@@@@@@@@@@@@@@@@@'@@@@@@@@@@@@@@@@@@@@@@@@@@@@@@@@",
"@@@@@@@@@@@@@@@@@@@@@@@@@@@@@@@@@@@@@@@@@@@@@@@@@@@@@@@@@@@@@@@@",
"@@@@@@@@@@@@@@@@@@@@@@@@@@@@@@@@@@@@@@@@@@@@@@@@@@@@@@@@@@@@@@@@",
"'@@@@@@@@@@@@@@@@@@@@@@@@@@@@@@@@@@@@@@@@@@@@@@@@@@@@@@@@@@@@@@@",
"''@@@@@@@@@@@@@@@@@@@@@@@@@@@@@@@@@@@@@@@@@@@@@@@@@@@@@@@@@@@@@'",
"''@@@@@@@@@@@@@@@@@@@@@@@@@@@@@@'@@@@@@@@@@@@@@@@@@@@@@@@@@@@@@'",
"''@@@@@@@@@@@@@@@@@@@@@@@@@@@@@@'@@@@@@@@@@@@@@@@@@@@@@@@@@@@@@'",
"''@@@@@@@@@@@@@@@@@@@@@@@@@@@@@@'@@@@@@@@@@@@@@@@@@@@@@@@@@@@@@'",
"'@@@@@@@@@@@@@@@@@@@@@@@@@@@@@@@'@@@@@@@@@@'''@@@@@''''@@@@@@@@'",
"@@@@@@@@@@@@@@@@@@@@@@@@@@@@@@@'8''''@@@@@''''''''''''''@@@@@@''",
"@@@@@@@@@@@@@@@@@@@@@@@@@@@@@@''8'''''''''''''''''''''''''''''''",
"@@@@@@@@@@@@@@@@@@@@@@@@@@@@@@''88''''''''''''''''''''''''''''''",
"@@@@@@@@@@@@@@@@@@@@@@@@@@@@@@''88''''''''''''''''''''''''''''''",
"@@@@@@@@@@@@@@@@@@@@@@@@@@@@@@''88'''''''''''''''''''''''''''''8",
"@@@@@@@@@@@@@@@@@@@@@@@@@@@@@@''88'''''''''''''''''''''''''''''8",
"@@@@@@@@@@@@@@@@@@@@@@@@@@@@@@@'8''''''''''''''''''''''''''''''8",
"@@@@@@@@@@@@@@@@@@@@@@@@@@@@@@@@8'''''''''''''''''''''''''''''''",
"@@@@@@@@@@@@@@@@@@@@@@@@@@@@@@@@88''''''''''''''''''''''''''''''",
"'@@@@@@@@@@@@@@@@@@@@@@@@@@@@@@@8'''''''''''''''''''''''''''''''",
"'@@@@@@@@@@@@@@@@@@@@@@@@@@@@@@@8''''''''888'''''''''''''''''''8",
"8'@@@'''@@@@@@@@@@@@@@'''@@@@@@'88''''''88888'''''''8888''''''88",
"5555552222222255552eeeeeee22225555522222222222ee2555555522222555",
"55222eeeeeee222222eeeeeeeeee22255222eeeeeeee2eeee2eeeeee2222eeee",
"5222eeeeeeeee2222eeeeeeeeeee2225522eeeeeeeeee2ee2eeeeeeeeee222ee",
"522eeeeeeeeeee22eeeeeeeeeeee5225522eeeeeeeeeee25eeeeeeeeeeee52e2",
"552eeeeeeeeeeeee2eeeeeeeeeee525522eeeeeeeeeeeee5eeeeeeeeeeee5ee2",
"552eeeeeeeeeeeee2eeeeeeeeee222252eeeeeeeeeeeeee2eeeeeeeeeee2eeee",
"522eeeeeeeeeeeeeeeeeeeeeee2222222eeeeeeeeeeeeee2eeeeeeeeee52eeee",
"222eeeeeeeeeeeeeeeeeeeeee22222222eeeeeeeeeeeeee22eeeeeeee522eeee",
"222eeeeeeeeeeeee22eeeeee2eee522222eeeeeeeeeeeee222eeeeee5eee5eee",
"2222eeeeeeeeeee2222eeee5eeeee5222222eeeeeeeeeee2222eeee5eeeee522",
"22252eeeeeeeee2eeee2222eeeeeee2522252eeeeeeeeee5eeee222eeeeeee52",
"52e252eeeeeee2eeeeeee2eeeeeeeee52ee252eeeeeeee5eeeeee2eeeeeeeee5",
"5eee255552222eeeeeeee2eeeeeeeee5eeee2522222225eeeeeeeeeeeeeeeeee",
"5eeee222222eeeeeeeeee2eeeeeeeeeeeeeee222eeee22eeeeeeeeeeeeeeeeee",
"5eeeee2222eeeeeeeeeee22eeeeeeeeeeeeee22eeeee22eeeeeeeeeeeeeeeeee",
"5eeeee2e22eeeeeeeeeee252eeeeeeeeeeeee22eeeeee2eeeeeeeeeeeeeeeeee",
"52eee2eeee2eeeeeee222ee2222eeee22eeee22eeeeeee2eeeeeee2eeeeeeeee",
"52222eeeeee2eeeee2eeeeee2222ee2552ee222eeeeeee22eeeee252eeeeeeee",
"5222eeeeeeee2eee2eeeeeeeeee222255222222eeeeeee522eee22522eeeeeee",
"522eeeeeeeeee225eeeeeeeeeeee525555555222eeeee2522222225222eeeee2",
"22eeeeeeeeeeeee5eeeeeeeeeeee525555222522222222552222255222222222",
"2eeeeeeeeeeeeee5eeeeeeeeeee2222552222552222225522255555222222225",
"2eeeeeeeeeeeeee2eeeeeeeeee52222222222225222222222555222552222255",
"22eeeeeeeeeeeee22eeeeeeee522222222222222555522222252222255522555",
"52eeeeeeeeeeeee222eeeeee5eee522222222222222222222222222225222225",
"5222eeeeeeeeeee2222eeee5eeeee52552222222222222222222222225222222",
"52252eeeeeeeeee5eeee222eeeeeee2555222222522222222222222222222222",
"552252eeeeeeee5eeeeee2eeeeeeeee555522255522222225222222222222222",
"55222522eeee25eeeeeeeeeeeeeeeee252222222222222225222222222222555",
"5222222eeeeee2eeeeeeeeeeeeeeeee252222222222222255522222222222225",
"5222222eeeeeee2eeeeeee2eeeeeeee222222522222552222222222522222222",
"55222222eeeee222eeeee252eeeeee2255225552225555222222225552222222",
"a111111111111111a111111111111111a111111111111111a111111111111111"};
