/* XPM */
static char * beach_xpm[] = {
"32 32 5 1",
" 	c #B39265",
".	c #D8B174",
"+	c #605247",
"@	c #E1C190",
"#	c #E4D2AA",
" ... ++  ....  +   ..... ++ . + ",
" .@..+ ..@##@.. ...@@@@@@ + @@ .",
" .@@@.@@@@##@@@.@@@@@@@@@@@@@@@@",
" .@##@@@@@@@@@@@@@@@@@@@@@@@@@##",
"+ @#@@@#@@@@#####@@@@@@@@@@@@###",
"++@@@@@@@@@######@@@@@@@@@@@####",
"+.@@@@@@@@######@@@@@@@@@@@@####",
".@@@@@@@@######@@@##@#@@@@@####@",
".@@@@@@@######@@@@##@@@@@@@###@@",
" @@@@@@@#####@@@@@@@@@@@@@###@@@",
" @@@@@@#####@@@@@@@@@@@@@###@@@@",
" .@@@@#####@@@@@@@@@@@@####@@@@@",
" .@@@#####@@@@@@@@@@@#####@@#@@@",
"+ @@@####@@@@@#@@@@@#####@@@@@@@",
"++@@####@@@@#@@@@@@####@@@@#@@@@",
"++@@###@@@@@@@@@@@###@@@@@@@@@@@",
" @@###@@@@@@@@@@@###@@@@@@@@@@@#",
" @@##@@@@@@@@@@@@###@@@@@@@@@@##",
" .@@@@@@@@@@@@@@###@@@@@@@@@@###",
"+ @@@@@@@@@@@@@###@@@@@@@@@@####",
"++@@@@#@@@@@@####@@@@@@@@@@#####",
"++@@@@@@@@@@####@@@@##@@@@@#####",
"+.@@##@@#@@####@@@@@##@@@@@#####",
"..@@##@@@@###@@@@@@@@@@@@@@#####",
" .@@@@@@@###@@@@@@@@@@@@@@@####@",
".@@@@@@@@###@@@@@@@@@@@@@@#####@",
" @@@@@@@###@@@@@@@@@@@@@@@####@@",
" .@@@@@@###@@@@@@@@@@@@@@#####@@",
" .@@@@@@###@@@@#@@@@@@@@######@@",
"+ @@@@@###@@@@@@@@@@@@@######@@@",
"++@@@@@###@@@@@@@@@@@@######@@@@",
"+@@@@@####@@@@@@@@@@#######@@@@@"};
