/* XPM */
static char *_c4bc7d54687472ffcbc5647fb923fe26PnDMprUdMu5Zo4Q[] = {
/* columns rows colors chars-per-pixel */
"64 64 198 2 ",
"   c black",
".  c #051823",
"X  c #323336",
"o  c #2F557D",
"O  c #32557E",
"+  c #505154",
"@  c #655D5D",
"#  c #C32500",
"$  c #CEE24A",
"%  c #CEE04C",
"&  c #3B4F84",
"*  c #364F89",
"=  c #265785",
"-  c #2E5585",
";  c #265884",
":  c #2C5983",
">  c #25568B",
",  c #2D558B",
"<  c #26588C",
"1  c #2C5B8B",
"2  c #335485",
"3  c #395383",
"4  c #325986",
"5  c #32558A",
"6  c #395389",
"7  c #32588E",
"8  c #255693",
"9  c #2C5691",
"0  c #235A93",
"q  c #2B5B93",
"w  c #295D9B",
"e  c #335592",
"r  c #385590",
"t  c #345A94",
"y  c #395D95",
"u  c #355D9B",
"i  c #3A5E9B",
"p  c #2C6299",
"a  c #3C6196",
"s  c #386A96",
"d  c #32619A",
"f  c #3D629C",
"g  c #37689B",
"h  c #386F9D",
"j  c #2E69A2",
"k  c #3D64A3",
"l  c #346AA5",
"z  c #3D6AA5",
"x  c #3566A8",
"c  c #3F67AB",
"v  c #356DAD",
"b  c #3D6AAC",
"n  c #2A72A5",
"m  c #3975AB",
"M  c #3D7AAD",
"N  c #3D66B1",
"B  c #356EB2",
"V  c #3B6BB2",
"C  c #3C6DBC",
"Z  c #3471B4",
"A  c #3C72B5",
"S  c #3574B8",
"D  c #3B76B9",
"F  c #3E7CBD",
"G  c #426A92",
"H  c #41669D",
"J  c #41689F",
"K  c #4266A5",
"L  c #4269A5",
"P  c #4367AB",
"I  c #4964AC",
"U  c #4269AB",
"Y  c #4A68AA",
"T  c #4578AD",
"R  c #4B7CAC",
"E  c #527CA5",
"W  c #4467B0",
"Q  c #4C66B0",
"!  c #4269B1",
"~  c #4175B6",
"^  c #487FB0",
"/  c #4479BC",
"(  c #1B66E4",
")  c #4481BF",
"_  c #4B82BE",
"`  c #4E89BC",
"'  c #5A8FBC",
"]  c #78A2BC",
"[  c #1AACE7",
"{  c #1DAAEB",
"}  c #1FA9EC",
"|  c #23A8EA",
" . c #4781C1",
".. c #4883C4",
"X. c #4C8CC4",
"o. c #4C86C9",
"O. c #4D8ACC",
"+. c #518AC3",
"@. c #5187CA",
"#. c #5882CC",
"$. c #548CCC",
"%. c #4C90C8",
"&. c #5190CC",
"*. c #4D81D2",
"=. c #4E8CD1",
"-. c #548DD4",
";. c #538ED8",
":. c #4A93D3",
">. c #4B9CDA",
",. c #5494D5",
"<. c #5A94D4",
"1. c #5299D6",
"2. c #5493D9",
"3. c #5A96DA",
"4. c #549ADB",
"5. c #5A9ADB",
"6. c #6B9FC9",
"7. c #609FD6",
"8. c #6697DC",
"9. c #619EDC",
"0. c #59A1DA",
"q. c #6BA0C1",
"w. c #6EA2CC",
"e. c #75A4D3",
"r. c #77AAD6",
"t. c #5FACEC",
"y. c #5EBCFD",
"u. c #65A4E4",
"i. c #6CA9E3",
"p. c #67A6EE",
"a. c #6BA7EE",
"s. c #65A9EE",
"d. c #6BADEA",
"f. c #74A9E7",
"g. c #70AFED",
"h. c #6CB4EE",
"j. c #6CB8EE",
"k. c #73B0E7",
"l. c #73B2EC",
"z. c #77BEEF",
"x. c #78BFEC",
"c. c #64AFF2",
"v. c #6BACF3",
"b. c #73AFF1",
"n. c #66B5F6",
"m. c #6BB5F5",
"M. c #65BAF4",
"N. c #6EBAF3",
"B. c #6BBAF4",
"V. c #6EBEF5",
"C. c #66B6FB",
"Z. c #69B5FA",
"A. c #63BAF8",
"S. c #62BDFA",
"D. c #61BBFF",
"F. c #64BBFC",
"G. c #66BDFF",
"H. c #6AB9FB",
"J. c #72B5F3",
"K. c #71B6F5",
"L. c #7DB1F5",
"P. c #72BBF4",
"I. c #71B4FB",
"U. c #71B6FD",
"Y. c #72BAFC",
"T. c #5CC1FD",
"R. c #6DC1ED",
"E. c #74C0EF",
"W. c #65C0F4",
"Q. c #6FC1F5",
"!. c #74C2F4",
"~. c #79C2F7",
"^. c #91C2EB",
"/. c #81C5F2",
"(. c #8EC5F3",
"). c #8CCDF0",
"_. c #8EC7F8",
"`. c #8FCEFC",
"'. c #97C8F1",
"]. c #95CDFE",
"[. c #9BCFFF",
"{. c #87D2FC",
"}. c #8DD6FE",
"|. c #9DD9F4",
" X c #95D6FD",
".X c #9FD4FC",
"XX c #94D9FE",
"oX c #9CD9FE",
"OX c #A1CFFA",
"+X c #A4D3FA",
"@X c #A0D7FB",
"#X c #A0D6FE",
"$X c #A4D4FD",
"%X c #A9D4FE",
"&X c #A1D9FE",
"*X c #FFDFC4",
"=X c #D0E2EC",
"-X c white",
/* pixels */
"-X2 5 ! I.V Y P U y.3 -X2 5 ! I.V Y P U y.3 2 U I.V Y P U y.3 2 U #XP P U v..X3 2 i #XP P U v.V K 2 U .X3 2 i #XP P U v.V K 2 U ",
".X3 2 i #XP P U v.V K .X3 2 i #XP P U v.V K 2 U #XP P U v.V K 2 U $Xy.y.V.@XU G.2 3 $Xy.y.V.@XU U U K U G.2 3 $Xy.y.V.@XU U U K ",
"U G.2 3 $Xy.y.V.@XU U U G.2 3 $Xy.y.V.@XU U U K $Xy.y.V.@XU U U K b P K 7 (.U P R.O.b P P 7 (.U U H 5 U P R.O.b P P 7 (.U U H 5 ",
"U P R.O.b P P 7 (.U U U P R.O.b P P 7 (.U U H 5 b P P 7 (.U U H 5 U + U U p U Z.U U U + U U p U.K - u.U Z.U U U + U U p U.K - u.",
"U Z.U U U + U U p U.K U Z.U U U + U U p U.K - u.U + U U p U.K - u.U + U U 9 y.! P y U + U U 9 5 A.N.7 y.! P y U + U U 9 5 A.N.7 ",
"y.! P y U + U U 9 5 A.y.! P y U + U U 9 5 A.N.7 U + U U 9 5 A.N.7 5 U U U K P I U U 5 U U U K 7 2 @X2 P I U U 5 U U U K 7 2 @X2 ",
"P I U U 5 U U U K 7 2 P I U U 5 U U U K 7 2 @X2 5 U U U K 7 2 @X2 U 3 9 V 6 5 U c U U c B.: 2 #Xy.D.}.&X! c U 7 O F.z 2 K U P U ",
"U P R.O.b P P 7 (.U U H 5 J.P + U U + + H , K P.w Y.P P 5 2 ].U K 2 w v.+ + U U + K - P N n K.P P H 2  XU K a , K.Q + U U + U f ",
"U Z.U U U + U U p U.K - u.b U + z 5 K U U b b.z V U + + U U 8  .2 Z.v + + + 2 , U U U U l.z U U + U U = n.z R v b P + e , U U L ",
"y.! P y U + U U 9 5 A.N.7 L c + P a K U U 8 V P 2 U + + U U 2 0.S.- 3 U + + 2 L U c - S.z t L U + U U 4 5 Z.&.7 P U + e L P L K ",
"P I U U 5 U U U K 7 2 @X2 5 L U U U U 2 , K.P U U K e U U U K 2 +X2 2 5 U P U L f 2 W.P U K U - P U U U 5 2 6.- 2 U U K U U 2 p ",
"D.P U i 2 2 O P U U 2 oX2 2 2 K c y 2 2 , [.C U U 2 2 2 U L P t +X2 2 2 L U U 2 5 5 oXy.U U 5 2 3 , U U U O w.2 2 5 P c 2 2 2 s ",
"c -.e.+.< 2 2 2 L U :.;.-.U U + y 2 ` ;.-.U @.e.X.X.2 ( ( ( ( ( ( ( ( ( ( f 2 2 o.$.c b -.+.X.- 2 5 y K U 2.2.b U U K 7 2 X.;.@.",
"b P z b N.Z.N.5 H.Z.< Z.F H.&X#X#XM.V K U , + ( ( ( ( X X X X X X X X X X ( ( ( ( + - U c z b H.Z.h.N.C.H.0 2.H.F.$X#Xx.A.b U K ",
"7 2 P c 7 3 oXB.2 2 O F.f - 2 2 5 5.V P U ( X X X X X X X X X X X X X X X X X X X ( ( 5 e U U 5 2 oX, 2 2 = 4.5 2 2 2 g S.P b K ",
"6 2 - y , y.C.U e 2 U H.b 7 2 2 P 4.P ( ( X X X X X X X X X X X X X X X X X X X X X , ( ( - K , F.g.c 2 2 V 1.c - 5 5 z S.U z K ",
"5 2 5 V J.J.v c t 5 U U s.U U 7 P <.( X X X X X X X X X X X X X X X X X X X X X X X X X , ( B h.J.A U 7 3 W =.b U U e U K.Z b U ",
"$X%XP.V z 2 F.c U K U U t.+ + U U X X X X X X X X X X X X X X X X X X X X X X X X X X X X ) ( L 6 N.U U L P O.U + + U + P Z N.U.",
"U H.b b , 3 oXU + + + U b + U U X X X X X X X X X X X X X X X X X X X X X X X X X X X X X X X ( 2 .XU + + + b b + U b U U U , z ",
"y.W 5 U K , oXU + + + b v.U 2 X X X X X X X X X X X X X X X X X X X X X X X X X X X X X X X X X ( #XU + + + =.V + O 2 f U + 2 c ",
"b I 3 2 L U K n.U 5 L b a.b X X X X X X X X X X X X X X X X X X X X X X X X X X X X X X X X X X X ( b L 2 U O.V P P K 2 U U U D ",
"8.*.E v - f V y.i 6 2 V M X X X X X X X X X X X X X X X               X X X X X X X X X X X X X X X ( t 3 - b /.' ! t t U U U U ",
"G.V U <.U c G.A w - 2 , d.X X X X X X X X X X X X X     @ @ @ @ @ @ @     X X X X X X X X X X X X X X , 5 2 _ b b Z.U U , 5 , ~ ",
"l L U P H.U &XP m.F.|.Z.X X X X X X X X X X X X X   @ @ @ @ @ @ @ @ @ @ @   X X X X X X X X X X X X X ( F.oXO.z + b #X+ 5 2 2 N.",
"z U O y U y.U b U U y.( X X X X X X X X X X X X   @ @ @               @ @ @   X X X X X X X X X X X X X ( M.5 5 U L Y.U C.F.F.2 ",
", K L u V Z.U + c y.2 ( X X X X X X X X X X X X   @     *X*X*X*X*X*X*X    @   X X X X X X X X X X X X X ( - 5 U K 0 m.`.3 2 5 s.",
"(.& 2 a ].P P U u.A z ( X X X X X X X X X X X   @   *X*X*X*X*X*X*X*X*X*X*X  @   X X X X X X X X X X X X ( f y U 2 F.z 7 2 P 5 t ",
"b U.2 5 $XA.G.N.oXL ( X X X X X X X X X X X X   @   *X*X*X*X  *X  *X*X*X*X  @   X X X X X X X X X X X X X ( U , 2 F.c 2 L U K K ",
"U c j.X.v P P 2 '.z ( X X X X X X X X X X X X     *X*X      *X*X*X      *X*X    X X X X X X X X X X X X X ( f 2 M.b U K U + U H ",
"b b .X,.z U U K d.! ( X X X X X X X X X X X X     *X  =X=X#   *X  # =X=X  *X    X X X X X X X X X X X X X ( 5 m.P c + U U + U 2 ",
"F p.K k U + U U 7 i.( X X X X X X X X X X X X     *X  # . #   *X  # . #   *X    X X X X X X X X X X X X X ( _ z U U + 7 7 P U U ",
"c W K U , U + U U 5 ( X X X X X X X X X X X X   *X*X  # =X=XU *XU =X=X#   *X*X  X X X X X X X X X X X X X ( w.2 2 c U U U + 5 d ",
"F.U U i 3 5 2 P U U ( X X X X X X X X X X X X   *X*X*X      U   U       *X*X*X  X X X X X X X X X X X X X ( w.2 2 5 P b 5 5 2 f ",
"W F.L 2 2 2 2 5 U U ( X X X X X X X X X X X X X     *X*X*X*XU *XU *X*X*X*X    X X X X X X X X X X X X X X ( 3.c K K U e 2 - y.v.",
"U U XXG.= 2 2 2 J U ( X X X X X X X X X X X X X X   *X*X*X          *X*X*X  X X X X X X X X X X X X X X X ( &.b U U K 2 2 y.V W ",
"u e P U x l }.9.j j ( X X X X X X X X X X X X X X X   *X*X*X*X*X*X*X*X*X  X X X X X X X X X X X X X X X X ( >.x j G G M T.P U K ",
"6 2 5 i , F.m.U e 2 ( X X X X X X X X X X X X X X X X                   X X X X X X X X X X X X X X X X X ( 1.z 5 2 5 c S.U z K ",
"6 2 5 c Z.F.b U , 2 U X X X X X X X X X X X X X X X   $   $ $ $ $ $   $   X X X X X X X X X X X X X X X X U O.b U U 2 c S.U c U ",
", 2 0 A.8 2 H.c K 7 U ( X X X X X X X X X X X X X X       $ $ $ % $       X X X X X X X X X X X X X X X ( U O.U + + U + U F.U z ",
"OX XL.b K - z.U + + + ( 9.X X X X X X X X X X X X X   *X  $ $ $ $ $   *X  X X X X X X X X X X X X X X X ( + O.b + ! U U U U k.m.",
"F.C 7 U L 2 oXU + + + U ( X X X X X X X X X X X X X X     | |   { |     X X X X X X X X X X X X X X X X + + $.b + 5 , k U U 2 c ",
"W I 3 5 L L K m.U 5 U b a.( X X X X X X X X X X X X X X   { [   { }   X X X X X X X X X X X X X X X X U 2 U O.P P K K 2 U U K D ",
"D.P 2 2 2 U L F.e 2 - ! S ( X X X X X X X X X X X X X X X           X X X X X X X X X X X X X X X X ( 7 5 5 b H.b P 2 2 U U U U ",
"B F..X_ , 2 v I.b 5 2 L ^ .X( X X X X X X X X X X X X X X X X X X X X X X X X X X X X X X X X X X ( B U 5 2 U #X#Xb U + K U U b ",
"X.c U / 5.P ).! +.$.] -.T U $.( X X X X X X X X X X X X X X X X X X X X X X X X X X X X X X X X ( _.#.%.&.q...z U $.r.U 5 2 2 ,.",
"z U 2 p b H.L + K b N.8 5 L U M.( X X X X X X X X X X X X X X X X X X X X X X X X X X X X X X ( H.L + c b J., , P L K.+ J.Z.Z.8 ",
"7 P K u U D.U + c G.- - e K 5 F.M.( 2 X X X X X X X X X X X X X X X X X X X X X X X X X X X ( U F.+ + c C.; 2 L K 5 F.{.5 2 - d.",
", * 2 P Z.P U + c S.2 : U 5 F.2 2 , ( X X X X X X X X X X X X X X X X X X X X X X X X X X ( U D.I + + c F.- y U 2 y., 2 5 P U d ",
"#Xq 2 y #XB v v i.b U 7 U - y.U H 5 L ( ( X X X X X X X X X X X X X X X X X X X X X X X ( 2 L oXZ v z Q.P K i K O F.c 7 5 U 7 5 ",
"b b l._ z v v = ^.b U P 2 k.b U U U + + U ( ( X X X X X X X X X X X X X X X X X X ( ( b z h J.L v v 1 %X! U k 2 N.b U U U + + K ",
"U U XX<.c c c L i.U U 2 g v K + U U + + 5 , U ( ( ( ( X X X X X X X X X X ( ( ( ( , 5 P P ~.b P c z , M.U K 5 l.V I + U U + U 2 ",
"U D.K c U + U U r n.P , c.U U + z 5 K U P I n.U b U + ( ( ( ( ( ( ( ( ( ( + 2 5 U K K b J.c U U + U K 2 S.U _ Z U U + e 5 P U K ",
"y.U K y b + U U e 2 S.G.5 L c + W f K U + 9 V I O U + + U U 2 7.y.3 O U + + 2 U U c - F.U 7 L c + U U 5 o Z.:., U z + e U P L K ",
"o.P U k 2 f f U U t 5 oX2 2 f P U k f - , E.V U U a 7 f K U U 7 #X2 2 5 U U + f y 2 /.o.U U f 2 i f U U y - w.2 2 i U U f f 2 d ",
"b H.K 2 2 2 2 , U U Y M.K K K U K 2 O Z.B.b I.c - 2 2 2 - c U U j.I K K U U 2 , ~ B.z V I.t 3 2 2 5 L U U U ,.L K K U e 2 O H.d.",
"b K oXH.> 2 2 2 J U y.V s.U U U 2 2 B.P U c c $XF.F.2 2 2 5 U u.N G.U U U 5 2 , u.P U b z !.F.5 2 2 2 L U Z.O.b U U K 2 2 F.! P ",
"U P U I m.G.y.9 D.D., G.A F.oXoXoXy.! P U , U U U b D.S., S.D.m Z.P y.P.oXoXH.H.c + 5 U K + P F.F.l.m.D.D., 3.H.F.&XoX!.T.P U K ",
"5 3 U P - =  Xh., 2 - H.f 2 5 5 e 5.U U U 2 2 L L U 5  XI.5 2 3 H.P 2 2 2 5 W F.b U 2 3 7 U K 2 , [.q 2 2 q 3., 2 5 5 z G.U c K ",
"6 2 4 z f.F.F U , 2 -X2 5 ! I.V Y -X2 5 ! I.V Y P U y.3 2 U 3 H D m.U J 5 K P H.U U k 3 3 a U l.D.~ b 2 2 V ,.b H K 2 c S.U z U ",
"2 5 ! U.V Y P U y.3 .X3 2 i #XP P .X3 2 i #XP P U v.V P U k 2 P U k 2 f f U U t 5 oX2 2 f P U k f - , E.V U U a 7 f K U U 7 #X2 ",
"3 2 i #XP P U v.V K U G.2 3 $Xy.y.U G.2 3 $Xy.y.V.@XU H.K 2 2 H.K 2 2 2 2 , U U Y M.K K K U K 2 O Z.B.b I.c - 2 2 2 2 c U U j.I ",
"G.2 3 $Xy.y.V.@XU U U P R.O.b P P U P R.O.b P P 7 (.U K oXH.> K oXH.> 2 2 2 J U y.V s.U U U 2 2 B.P U c c $XF.F.2 2 2 5 U u.N G.",
"P R.O.b P P 7 (.U U U Z.U U U + U U Z.U U U + U U p U.P U I m.P U I m.G.y.9 D.D., G.A F.oXoXoXy.! P U , U U U b D.S., S.D.m Z.P ",
"Z.U U U + U U p U.K y.! P y U + U y.! P y U + U U 9 5 3 U P - 3 U P - =  Xh., 2 - H.f 2 5 5 e 5.U U U 2 2 L L U 5  XI.5 2 3 H.P "
};
