/* XPM */
static char * perso_xpm[] = {
"16 16 8 1",
" 	c None",
".	c #20170C",
"+	c #FFEBAF",
"@	c #FFE38F",
"#	c #795224",
"$	c #F2CF65",
"%	c #F3AD5C",
"&	c #BB7D37",
"      ....      ",
"    ..+@++..    ",
"   .+@#@@#++.   ",
"  .+$#$++$#@@.  ",
" .$$%#$++$#+@+. ",
".%$#%#$$+$#+#+%.",
".%$#%&#$@#&$#+%.",
".&%#%&#@$#&%#%&.",
".&%$#%#@$#%#%%&.",
" .&%#%#$@#%#%&. ",
" .&%#%%@@%%#%&. ",
"  .&&#$$@$#&&.  ",
"   .&&#@$#&&.   ",
"    ..$@$$..    ",
"    .%$$$$%.    ",
"     ......     "};
