/* XPM */
static char *_98f911ac8c74c07e356ee8ed2279762xBrYO9T9g3PhQHS9[] = {
/* columns rows colors chars-per-pixel */
"64 64 224 2 ",
"   c None",
".  c #1E3613",
"X  c #2C3031",
"o  c #373E39",
"O  c #335D0D",
"+  c #335911",
"@  c #30610A",
"#  c #36621D",
"$  c #3E7610",
"%  c #344C25",
"&  c #395E20",
"*  c #334534",
"=  c #3B6329",
"-  c #426F0F",
";  c #42750C",
":  c #436E16",
">  c #487617",
",  c #446D24",
"<  c #466A2A",
"1  c #4B6B2A",
"2  c #457626",
"3  c #4E7D24",
"4  c #467328",
"5  c #4D7328",
"6  c #517B24",
"7  c #597E26",
"8  c #4D7235",
"9  c #547D36",
"0  c #414C41",
"q  c #525F4D",
"w  c #4D4C53",
"e  c #52634D",
"r  c #4D8E05",
"t  c #4B890C",
"y  c #4E8E0C",
"u  c #528D05",
"i  c #55860A",
"p  c #518D0B",
"a  c #479200",
"s  c #4E9105",
"d  c #4D900A",
"f  c #519004",
"g  c #52910A",
"h  c #4D8E12",
"j  c #4B8816",
"k  c #4C8B1B",
"l  c #538413",
"z  c #528B12",
"x  c #53861B",
"c  c #5E8618",
"v  c #538A19",
"b  c #598B1A",
"n  c #4C9114",
"m  c #509114",
"M  c #6FAA1C",
"N  c #6FB11B",
"B  c #4E8522",
"V  c #528323",
"C  c #588323",
"Z  c #538927",
"A  c #588822",
"S  c #55842C",
"D  c #598436",
"F  c #598B36",
"G  c #679B39",
"H  c #709F3F",
"J  c #66AC24",
"K  c #6BAB25",
"L  c #6DA62D",
"P  c #67A92A",
"I  c #69A92B",
"U  c #71AE25",
"Y  c #73AD2B",
"T  c #77A92F",
"R  c #6DB020",
"E  c #70B12E",
"W  c #6BA632",
"Q  c #6CA934",
"!  c #6BA33B",
"~  c #6EA839",
"^  c #72A33B",
"/  c #79A539",
"(  c #73AD3D",
")  c #78B63D",
"_  c #7CB93F",
"`  c #7FD40D",
"'  c #79CC1A",
"]  c #7CCB1D",
"[  c #7DD415",
"{  c #77D619",
"}  c #7DD31D",
"|  c #7CC326",
" . c #7ECD25",
".. c #7EC72E",
"X. c #7DCC2B",
"o. c #75D522",
"O. c #7DD222",
"+. c #79D527",
"@. c #7CD229",
"#. c #7DC532",
"$. c #7DCB33",
"%. c #7FD030",
"&. c #5C8345",
"*. c #6A9744",
"=. c #739B4C",
"-. c #688953",
";. c #759E59",
":. c #67A440",
">. c #6DA242",
",. c #6EAC44",
"<. c #72AC42",
"1. c #70A24C",
"2. c #77AB4A",
"3. c #7BB644",
"4. c #7CB942",
"5. c #79B448",
"6. c #6EA155",
"7. c #77A458",
"8. c #7EC348",
"9. c #88BE3D",
"0. c #83CE1E",
"q. c #81D215",
"w. c #81D11D",
"e. c #8AD31C",
"r. c #82CE24",
"t. c #8ACD24",
"y. c #83C62D",
"u. c #8BC62E",
"i. c #83CD2C",
"p. c #89CC2C",
"a. c #81D122",
"s. c #88D325",
"d. c #81D12A",
"f. c #83C434",
"g. c #8FC732",
"h. c #84CB33",
"j. c #8ACA33",
"k. c #85C53C",
"l. c #8CC53C",
"z. c #83CA3B",
"x. c #8ACA3B",
"c. c #92C73A",
"v. c #83D332",
"b. c #8CD135",
"n. c #A7F63F",
"m. c #8EB650",
"M. c #86BE59",
"N. c #90BF57",
"B. c #8FBD6E",
"V. c #86A971",
"C. c #89A878",
"Z. c #8FB674",
"A. c #85C545",
"S. c #8AC646",
"D. c #85C844",
"F. c #88C845",
"G. c #86C64C",
"H. c #89C54B",
"J. c #84C949",
"K. c #8FCB4C",
"L. c #90CB4C",
"P. c #8AC354",
"I. c #93C45A",
"U. c #8FD452",
"Y. c #9FEF47",
"T. c #9FF749",
"R. c #9EF755",
"E. c #A3ED49",
"W. c #A5F546",
"Q. c #A4F54C",
"!. c #A5F54D",
"~. c #AAF24D",
"^. c #A1F849",
"/. c #ACFB49",
"(. c #A4EA56",
"). c #ACEE54",
"_. c #A8E758",
"`. c #A6EA5A",
"'. c #ABED5C",
"]. c #A6F252",
"[. c #A2F651",
"{. c #A4F453",
"}. c #A9F250",
"|. c #A9F252",
" X c #A4F658",
".X c #AAF15B",
"XX c #B8F05A",
"oX c #8EC865",
"OX c #96C565",
"+X c #92CA65",
"@X c #9EDD61",
"#X c #9ED76B",
"$X c #9FD869",
"%X c #9CCB73",
"&X c #A2D566",
"*X c #A4C97C",
"=X c #A2D773",
"-X c #B9DB7E",
";X c #AEEC64",
":X c #ADE66C",
">X c #ADF161",
",X c #B3F365",
"<X c #ADEA74",
"1X c #B1E774",
"2X c #A0C68A",
"3X c #BEE79A",
"4X c #C8F88C",
"5X c #CBFA8E",
"6X c #C2ED90",
"7X c #C6FC94",
"8X c #CAF994",
"9X c #C7F698",
"0X c #CBF79B",
"qX c #CAF99A",
"wX c #D0F892",
"eX c #CFECAB",
"rX c #C8F7A2",
"tX c #D0F2AA",
"yX c #CEF2B3",
"uX c #D2D8CC",
"iX c #F6FCED",
"pX c #FBFCF4",
"aX c #FFFDFE",
"sX c #FEFEFE",
/* pixels */
"                                                  } } O.O.G.O.! } } O.} O.O.h.} O.} r.} @.                                      ",
"                                                  w.w.a.O.J.a.! w.w.@.} } } h.w.O.w.r.} @.                                      ",
"                                      } O.O.$.[ } [ [ [ } D.} W Q.Q.[.W.Q.Q..XW.O.Q.Q.Q.^.[ { } }  .[ P [ } } @X                ",
"                                    @.O.O.} j.} } O.O.} O.J.} ! Q.Q.Q.^.{.Q..XW.O.Q.Q.Q.~.} O.[ [  .} P } 0.@.3X                ",
"                  c.0.T     [ q.X.[ } r.O.0.g.q.w.r.r.q.0.> i 5 p p p u p p i u O.p t p u Q.].~.~.| 0.K } w.                    ",
"                  k.} ^     } { q.[ 0.} O.O.j.@.O.O.O.} } Z d , p p d s d d h s O.p z y p Q.{.Q.Q...O.P O.r.                    ",
"                  L.w.M @.m.i.r.t.w.t.r.O.r.c.~.).z z u p I.i.G i.i.i.i.i.i.j.t.O.i.u.p i s v p p f.r.L r.r.@.3X                ",
"                  k.O.U } 0.} O.r.[ 0.O.O.O.i.^.~.p p s d S.@.! } } O.} O.O.i.} O.} O.O.O.O.h p p y.} P O.a.} }                 ",
"                e O.O.O.O.O.O.O.O.O.O.O.O.O.O.O.O.O.O.O.O.O.O.O.O.O.O.O.O.O.O.O.O.O.O.O.O.O.O.O.O.O.O.O.O.O.O.O.q e             ",
"              q.w.i.O.Y O.0.} } q.} y d O.d v p y O.O.} } Z d , d d d y {.{..XQ.O.Q.`.[.~.Q.Q.} O.k u ; O.r.O.O.} %.            ",
"              r.p.l.p.Y r.y.i.i.p.i.i z O.z C v l i.i.p.i.D p 1 z z v p '.'.:X).O.'.,X'.'..X>Xr.r.b z - i.y.i.i.p.i.            ",
"              a.} p.w.U d u } [ y d p d O.@.h.O.} @.@.} O.S.O.! O.O.@.a.@.@.'.Q.O.Q.).{.}.[. XQ.Q.#.a.I d s @.@.O.{ [ }         ",
"               .} y.O.K g p [ [ t p i p O.[ j.} } } } [ } D.} ~ } } +.} } } .XQ.O.Q.}.Q.Q.[.[.Q.Q.| } L p g } } } O.O.q.        ",
"          } } r.O.p.O.U p u sXsXW.Q.~.Q.O.@.p.d p p p s d S p , p p O.} } O.h.} O.} r.Q.].Q. X} } ..O.I Q.}.p p O.{ w.a.0       ",
"          } } r.O.p.O.U p u sXsXW.Q.~.Q.O.@.i.d y p p s d S p , p p O.} } O.h.} O.} r.Q.].Q. X} } ..O.I Q.}.p p O.} w.a.0       ",
"          O.@.iXsXc p - ~./.^.~.E.Q.f s O.z t y r ~.~.Y.}.J.i.G f f h s Q.^.i.[ O.@. .} } a p Q.Q.i.} P w.e.f f } ' a.q.0       ",
"          } } sXsXC u > Q.~.W.Q.Q.Q.z d O.y v y y Q.Q.W.{.D.} >.y y h d [.{.h.} O.} @.} O.y g Q.Q...@.I @.a.y y @.@.X.w.0       ",
"      2./ <.<.1 : : 2 = +XOX<.( : 2 5 4 O.+X%X( ( <.<.( ,.7.( &.( ( ,.<.,.<.1.( O.+X%XoX+X2.5.2 2 B.+X7.( L 4 4 +XoX( ( o       ",
"      a.w.O.O.p p z u > Q.).O.} i u u p O.}.;XX.} } } { O.J.0.! O.O.@.} O.O.h.w.O.].).Q.}.O.} p p _.Q.S.O.i.y y W.Q.r.O.0       ",
"      4.A.4.4.> 3 9 3 < #X&X3.3.3 6 6 3 O.#X=X5.4.3.3.) 3.7.5.-.4.4.3.4.4.4.2._ O.#X&X$X&X3.4.6 6 OX$XM.4.( 3 3 =X=X_ _ *       ",
"  O.0.O.O.} } }.Q.'.Q.K.Q.~.p p u p ).Q.O.@.i.8X5X8X8X5XqXyX5X2X} } O.} } O.h.} O.} r.Q.].Q.Q.p p `.Q.S.O.a.} } y y @.O.O.} i.  ",
"  O.0.O.O.} } ~.Q.'.Q.K.Q.~.p p u p ).Q.O.@.i.8X5X8X8X5XqXyX5X2X} } O.} } O.h.} O.} r.Q.].Q.Q.p p `.Q.S.O.a.} } y y @.} O.} i.  ",
"      @.O.@.O.].[.h.@.E h p h h O.@.qX7XO.qXrX@.@.O.@.+.@.8.@.! @.@.@.O.@.@.$.O.O.O.d.O.@.+.@.O.@.v y $ @.X.@.O.v k @.@.O.O.h.  ",
"      } } } } W.n.h.O.L s u y u w.O.5X8XO.8X0XO.} } } ' } D.} ! } } O.{ } } X.[ O.} O.{ O.{ O.} } t s ; O.] } } z y O.[ O.} i.  ",
"  } w.O.} Q.Q.~.^.pXsXuXy p } } } a.qX7XO.} z.i.} } } } O.D.O.! } } @.} } } h.} O.} r.} @.O.@.} } z y ; Q.].} } z h @.} O.} h.  ",
"  { 0.O.} Q.Q.Q.{.iXsXuXy p O.} } } 5XqXO.O.j.} } O.O.} O.J.O.! O.O.@.[ } } h.} O.O. .} @.O.@.O.O.h y ; Q.}.O.O.z h @.} O.O.i.  ",
"  i.y.h.i.'.'.j.j.9.i.T v b h.i.5XqXg.r.O.i.S.h.h.h.h.i.h.P.h.=.h.h.$.i.h.i.A z O.h.#.h.z.$.$.h.h.A z : '.,Xh.h.A B h.h.O.h.k.  ",
"  @.0.} [ Q.Q.q.} p.} Y p O.O.[ 5X8Xr.} O.} p.} } } } [ } F.} ! } } O.[ } } v z O.} O.[ O.} O.} } z u ; Q.~.} } p h w.} O.} i.  ",
"  O.O.O.O.O.O.O.O.O.O.O.O.O.O.O.O.O.O.O.O.O.O.O.O.O.O.O.O.O.O.O.O.O.O.O.O.O.O.O.O.O.O.O.O.O.O.O.O.O.O.O.O.O.O.O.O.O.O.O.O.O.O.  ",
"  O.0.O.O.Q.Q.r.O.p.O.U p p O.[ 5X8X@.} O.O.j.O.O.} } O.O.G.O.! } } O.} O.} v u O.} i.d p y d } } ..O.I p p } } y y @.O.O.} i.  ",
"  a.r.X.r.].].r.r.f.X.Y p i X.O.wXqXp.r.O. .x.r.d.r.r.]  .G.i.>.r.r.v.a. .@.z p O.r.y.y r p g r.r.h.r.W z l r.r.b v i.O.O.r.j.  ",
"  { 0.O.} Q.Q.} } p.O.K d p O.{ 8X7Xa.} O.} j.} } } } } O.J.} ! } } @.} } } z p O.} X.} O.d d } } ..} I p z } } h h @.O.O.} X.  ",
"  @.r.O.w.].].r.@.f.X.Y p i @.w.5X5Xr.} O.@.j.@. .} } O.@.G.a.:.} } @.} @.} p u O.} i.@.@.r p } } #.@.L p u } } z z r.O.O.} i.  ",
"  o.r.sXpX[.[.O.O.h.O.P p z o.{ q.O. .} O.@.h.O.O.} } O.@.J.@.,.} } @.} h n h.[ O.} @.O.@.d d } } $.@.J ^.E.} } z k @.O.O.} h.  ",
"  o.q.sXsX[.[.p.[ b.@.L h j @.+.} @.i.a.O.@.#.+.@.O.O.+.@.G.@.,.+.O.+.@.h d $.O.O.+.d.O.@.k s O.+.$.@.I [.(.O.O.h j @.@.O.+.$.  ",
"  O.0.O.O.Q.Q.sXsXk.O.U p p O.O.r.a.8X8XO.} j.O.} p p O.} G.O.! } } O.@.h s i.} O.} i.d u } O.} } ..O.I Q.}.p p p y @.O.O.} i.  ",
"  O.0.O.O.Q.Q.sXsXk.O.U p p O.O.a.w.8X8XO.} j.O.} p p O.} G.O.! } } O.@.h s i.} O.} i.d u } O.} } ..O.I Q.}.p p p y @.O.O.} i.  ",
"  a.j.i. ..X.Xl.p.b.i.Y p z d.i.r.a.j.j.O.0XrXz.r.i.i.r h M.i.>.i.i.v y h.h.'.}.O.i.p.p i a.v.i.i.;X].P.i.] p p x.$.r.i.O.O.z.  ",
"  O.r.@.} }.}.O.@.$.w.U g p } } 0.} r.w.O.qX0X@.} } } s d G.a.! O.O.y y O.@.'.Q.O.O.r.d u } @.O.O.(.Q.S.w.q.g g a.} w.O.O.O.h.  ",
"  O.O.O.O.*.*.O.O.O.O.> O O B V x k x x O.7.;.V V V V + O D V < B B @ @ k k *.G O.O.O.O O O.O.O.O.G G 9 O.O.O O O.O.O.O.O.O.V   ",
"  O.r.O.} sXsX).^.i.a.Y i u u p q.} }.}.O.} j.qX5X8X8X5XqXC p , i i @.[ } O.).Q.O.O.i.s p [ @.O.O.(.Q.S.@.w.u u 5X7Xa.O.O.O.h.  ",
"  } r.X.s.sXsX_.Q.y.i.Y p u p u s.@.).].O.i.f.qX8XwXwX5XqX7 p 1 z p X.' a.a.;X}.O.w.h.y i  .X.i.i.`.].H.0.e.p p 5X5Xr.i.O.i.j.  ",
"  O.0.O.O.} } }.Q.i.O.U } r.y z } } ~.Q.O.Q.;XO.O.} } O.O.G.O.! } } O.[ Q.Q.h.} O.p z y u } O.} } (.Q.H.f p p p qXqXr.O.O.} i.  ",
"  O.0.O.O.} } }.Q.i.O.U } r.y z 0.} ~.Q.O.Q.;XO.O.} } O.O.G.O.! } } O.[ Q.Q.h.} O.p z y u } O.} } (.Q.H.f y p p qXqXr.} O.} i.  ",
"      @.} @.@.~.{.'.}.S.@.r. .w.} } r.} O.O.x.[.}.}.}.Q.}.1X~.oX}.}. XQ.} O.h.} O.p z @. .O.+.}.}.h.} I p u 5X5X5XqXa.O.O.@.h.  ",
"      +.O.{ } Q.[.,X[.U.{ r.O.} } } a.} O.@.$.R.Q.Q.Q.Q.[.<XQ.M.Q.Q.R.T.O.@.v.} O.y n o.O.@.@.Q.[.#.@.W d r qXqX5XrXd.[ O.{ i.  ",
"      @.O.} } 0.} ).}.L.} t.p u 0.O.r.} O.@.h.} } O.O.} O.S.w.O.O.O.@.} } r.z i O.p p @.r.].].].].t p ; a.r.8X8Xw.@.O.r.0       ",
"      } q.a.a.i.@.'.].K.O.r.p u } } r.O.O.O.j.} } O.O.} O.J.O.O.O.O.@.O.@.O.v z O.p t @.} [.[.{.{.h d ; d.a.qXqXO.@.@.w.0       ",
"              G F &.F 8 6.2.F F # # O.O.O.O.D O.O.O.O.O.O.O.O.O.O.O.O.O.# = = & O.1.=.O.O.7.6.# # 9 F 8 V.Z.C.C.O.O.O.O.X       ",
"              w.O.p.O.U Q.}.} } u u @.} O.O.j.O.O.} } O.O.G.O.O.} } O.@.z y v p O.Q.].Q.].Q.Q.p p y.} W 5XqX8X8X@.{ a.a.        ",
"              H.S.I.S.^ 1X-XJ.D.C C H.S.O.A.I.D.k.S.S.S.A.B.J.O.S.S.A.A.S S D S O.<X1X<X:X:X<XS S M.S.=.tXeXtXtXH.P.N.S.        ",
"          @.@.r.} p.[ ~ sXsX} [ u z z y O.h v y d y y O.} D.q.H y y h d p s ).W.O.Q.).h p h h p p 6XqX*XqX0Xq.q.} O.            ",
"          { { O.} @.a./ sXiX[ r.y m p u O.z x z g p p w.O.J.a.H f f h y p s ).Q.O.}.~.g p u y g g 6XqX*XqX9Xa.a.0.$.            ",
"                  A.} N } r.[ w.sXsX}.W.O.@.h.O.O.@.@.y h S p , u u @.+.@.} i.[ O.z z sXsX+.{ 8X8Xf.} I } O.O.O.O.}             ",
"                  k.O.U O.0.} q.sXsX}.Q.O.@.z.{ } O.O.r h S p , y y @.} } } h.} O.y i sXsX} } 5X5Xf.} P O.@.O.O.@.@.            ",
"                  l.} R } w.[ i.o.{ ^.Q.O.].XXsXpX} } [ { z.} Q [ [ O.[ } { i.[ O.[ a.} } v.} } } ] [ J ` e.     .r.            ",
"                  k.O.U } 0.} O.r.} ~.Q.O.Q.;XsXsX} } O.O.G.O.! } } O.} O.O.h.} O.} r.} } { O.} } ..O.P O.@.    } }             ",
"                            z.j.u.j.g.j.O.z C x l x x y.j.OXx.=.j.j.f.x.sXsXS.j.O.j.l.j.x.#.z.j.j.S.x.^ x.y.                    ",
"                            } } q.} r.a.O.p x z p p p a.} S.a.! a.a.@.@.sXsXj.} O.a.r.} @.O.@.a.a...w.I O.r.                    ",
"                          w % % O.O.O.O.O.O.O.O.O.O.O.O.O.O.O.O.O.O.O.O.O.O.O.O.O.O.O.O.O.O.O.O.O.O.O.O.O.O.                    ",
"                                } } r.@.O.O.j.} } O.O.r p D p < p p z s p z v p O.@.r.} @.@.q.                                  ",
"                                ] r.r.} O.q.g.r.s.r.r.u p S i 1 p p t u p p l i O.} r.O.0.a.[                                   ",
"                                        O.} j.O.O.O.O.O.O.J.@.! O.O.@.} O.O.h.} O.                                              ",
"                                        . q.j.} } O.O.[ } D.} ~ O.O.O.[ } } v.[ *                                               "
};
