/* XPM */
static char *_460f207f5ad4247b3e7d3dc491419bcyXMmSPPenQL7gPDm[] = {
/* columns rows colors chars-per-pixel */
"64 64 224 2 ",
"   c None",
".  c #1E3613",
"X  c #2C3031",
"o  c #373E39",
"O  c #335D0D",
"+  c #335911",
"@  c #30610A",
"#  c #36621D",
"$  c #3E7610",
"%  c #344C25",
"&  c #395E20",
"*  c #334534",
"=  c #3B6329",
"-  c #426F0F",
";  c #42750C",
":  c #436E16",
">  c #487617",
",  c #446D24",
"<  c #466A2A",
"1  c #4B6B2A",
"2  c #457626",
"3  c #4E7D24",
"4  c #467328",
"5  c #4D7328",
"6  c #517B24",
"7  c #597E26",
"8  c #4D7235",
"9  c #547D36",
"0  c #414C41",
"q  c #525F4D",
"w  c #4D4C53",
"e  c #52634D",
"r  c #4D8E05",
"t  c #4B890C",
"y  c #4E8E0C",
"u  c #528D05",
"i  c #55860A",
"p  c #518D0B",
"a  c #479200",
"s  c #4E9105",
"d  c #4D900A",
"f  c #519004",
"g  c #52910A",
"h  c #4D8E12",
"j  c #4B8816",
"k  c #4C8B1B",
"l  c #538413",
"z  c #528B12",
"x  c #53861B",
"c  c #5E8618",
"v  c #538A19",
"b  c #598B1A",
"n  c #4C9114",
"m  c #509114",
"M  c #6FAA1C",
"N  c #6FB11B",
"B  c #4E8522",
"V  c #528323",
"C  c #588323",
"Z  c #538927",
"A  c #588822",
"S  c #55842C",
"D  c #598436",
"F  c #598B36",
"G  c #679B39",
"H  c #709F3F",
"J  c #66AC24",
"K  c #6BAB25",
"L  c #6DA62D",
"P  c #67A92A",
"I  c #69A92B",
"U  c #71AE25",
"Y  c #73AD2B",
"T  c #77A92F",
"R  c #6DB020",
"E  c #70B12E",
"W  c #6BA632",
"Q  c #6CA934",
"!  c #6BA33B",
"~  c #6EA839",
"^  c #72A33B",
"/  c #79A539",
"(  c #73AD3D",
")  c #78B63D",
"_  c #7CB93F",
"`  c #7FD40D",
"'  c #79CC1A",
"]  c #7CCB1D",
"[  c #7DD415",
"{  c #77D619",
"}  c #7DD31D",
"|  c #7CC326",
" . c #7ECD25",
".. c #7EC72E",
"X. c #7DCC2B",
"o. c #75D522",
"O. c #7DD222",
"+. c #79D527",
"@. c #7CD229",
"#. c #7DC532",
"$. c #7DCB33",
"%. c #7FD030",
"&. c #5C8345",
"*. c #6A9744",
"=. c #739B4C",
"-. c #688953",
";. c #759E59",
":. c #67A440",
">. c #6DA242",
",. c #6EAC44",
"<. c #72AC42",
"1. c #70A24C",
"2. c #77AB4A",
"3. c #7BB644",
"4. c #7CB942",
"5. c #79B448",
"6. c #6EA155",
"7. c #77A458",
"8. c #7EC348",
"9. c #88BE3D",
"0. c #83CE1E",
"q. c #81D215",
"w. c #81D11D",
"e. c #8AD31C",
"r. c #82CE24",
"t. c #8ACD24",
"y. c #83C62D",
"u. c #8BC62E",
"i. c #83CD2C",
"p. c #89CC2C",
"a. c #81D122",
"s. c #88D325",
"d. c #81D12A",
"f. c #83C434",
"g. c #8FC732",
"h. c #84CB33",
"j. c #8ACA33",
"k. c #85C53C",
"l. c #8CC53C",
"z. c #83CA3B",
"x. c #8ACA3B",
"c. c #92C73A",
"v. c #83D332",
"b. c #8CD135",
"n. c #A7F63F",
"m. c #8EB650",
"M. c #86BE59",
"N. c #90BF57",
"B. c #8FBD6E",
"V. c #86A971",
"C. c #89A878",
"Z. c #8FB674",
"A. c #85C545",
"S. c #8AC646",
"D. c #85C844",
"F. c #88C845",
"G. c #86C64C",
"H. c #89C54B",
"J. c #84C949",
"K. c #8FCB4C",
"L. c #90CB4C",
"P. c #8AC354",
"I. c #93C45A",
"U. c #8FD452",
"Y. c #9FEF47",
"T. c #9FF749",
"R. c #9EF755",
"E. c #A3ED49",
"W. c #A5F546",
"Q. c #A4F54C",
"!. c #A5F54D",
"~. c #AAF24D",
"^. c #A1F849",
"/. c #ACFB49",
"(. c #A4EA56",
"). c #ACEE54",
"_. c #A8E758",
"`. c #A6EA5A",
"'. c #ABED5C",
"]. c #A6F252",
"[. c #A2F651",
"{. c #A4F453",
"}. c #A9F250",
"|. c #A9F252",
" X c #A4F658",
".X c #AAF15B",
"XX c #B8F05A",
"oX c #8EC865",
"OX c #96C565",
"+X c #92CA65",
"@X c #9EDD61",
"#X c #9ED76B",
"$X c #9FD869",
"%X c #9CCB73",
"&X c #A2D566",
"*X c #A4C97C",
"=X c #A2D773",
"-X c #B9DB7E",
";X c #AEEC64",
":X c #ADE66C",
">X c #ADF161",
",X c #B3F365",
"<X c #ADEA74",
"1X c #B1E774",
"2X c #A0C68A",
"3X c #BEE79A",
"4X c #C8F88C",
"5X c #CBFA8E",
"6X c #C2ED90",
"7X c #C6FC94",
"8X c #CAF994",
"9X c #C7F698",
"0X c #CBF79B",
"qX c #CAF99A",
"wX c #D0F892",
"eX c #CFECAB",
"rX c #C8F7A2",
"tX c #D0F2AA",
"yX c #CEF2B3",
"uX c #D2D8CC",
"iX c #F6FCED",
"pX c #FBFCF4",
"aX c #FFFDFE",
"sX c #FEFEFE",
/* pixels */
"                                              * [ v.} } [ O.O.O.~ } D.} [ O.O.} } j.q..                                         ",
"                                              O.} h.O.O.} @.O.O.! @.J.O.O.O.O.O.O.j.} O.                                        ",
"                                  [ a.0.O.r.} O.i l p p u t p p 1 i S p u r.r.s.r.g.q.O.} r.r.]                                 ",
"                                  q.@.@.} r.@.O.p v z p s z p p < p D p r O.O.} } j.O.O.@.r.} }                                 ",
"                    O.O.O.O.O.O.O.O.O.O.O.O.O.O.O.O.O.O.O.O.O.O.O.O.O.O.O.O.O.O.O.O.O.O.O.O.O.O.% % w                           ",
"                    r.O.I w...a.a.@.O.@.} r.a.O.} j.sXsX@.@.a.a.! a.S.} a.p p p z x p O.a.r.} q.} }                             ",
"                    y.x.^ x.S.j.j.z.#.x.j.l.j.O.j.S.sXsXx.f.j.j.=.x.OXj.y.x x l x C z O.j.g.j.u.j.z.                            ",
"            } }     @.O.P O...} } O.{ } } r.} O.} h.O.O.} O.} } ! O.G.O.O.} } sXsX;XQ.O.Q.~.} r.O.} 0.} U O.k.                  ",
"            r. .    e.` J [ ] } } } v.} } a.[ O.[ i.{ } [ O.[ [ Q } z.{ [ } } pXsXXX].O.Q.^.{ o.i.[ w.} R } l.                  ",
"            @.@.O.O.@.O.P } f.5X5X} } sXsXi y O.} h.} } } @.y y , p S h r O.O.} { z.@.O.Q.}.sXsXq.} 0.O.U O.k.                  ",
"            } O.O.O.O.} I } f.8X8X{ +.sXsXz z O.[ i.} @.+.@.u u , p S h y @.@.O.O.h.@.O.W.}.sXsXw.[ r.} N } A.                  ",
"            $.0.a.a.9XqX*XqX6Xg g y u p g ~.}.O.Q.).s p y h f f H a.J.O.w.p p g z x z O.u p m y r.[ iXsX/ a.@.} O.{ {           ",
"            O.} q.q.0XqX*XqX6Xp p h h p h ).Q.O.W.).s p d h y y H q.D.} O.y y d y v h O.y z z u [ } sXsX~ [ p.} r.@.@.          ",
"        S.N.P.H.tXtXeXtX=.S.M.S S <X:X:X<X1X<XO.S D S S A.A.S.S.O.J.B.A.S.S.S.k.D.I.A.O.S.H.C C D.J.-X1X^ S.I.S.H.              ",
"        a.a.{ @.8X8XqX5XW } y.p p Q.Q.].Q.].Q.O.p v y z @.O.} } O.O.G.O.O.} } O.O.j.O.O.} @.u u } } }.Q.U O.p.O.w.              ",
"      X O.O.O.O.C.C.Z.V.8 F 9 # # 6.7.O.O.=.1.O.& = = # O.O.O.O.O.O.O.O.O.O.O.O.O.D O.O.O.O.# # F F 2.6.8 F &.F G               ",
"      0 w.@.@.O.qXqXa.d.; d h {.{.[.[.} @.t p O.z v O.@.O.@.O.O.O.O.J.O.} O.O.} } j.O.O.O.r.} } u p r.O.K.].'.@.i.a.a.q.}       ",
"      0 r.O.@.w.8X8Xr.a.; p t ].].].].r.@.p p O.i z r.} } @.O.O.O.w.S.O.} O.O.} } h.@.O.} r.O.0.u p t.} L.}.).} 0.} } O.@.      ",
"  i.{ O.[ d.rX5XqXqXr d W @.#.[.Q.@.@.O.o.n y O.} v.@.O.T.R.Q.Q.M.Q.<X[.Q.Q.Q.Q.R.$.@.O.} a.} } } O.r.{ U.[.,X[.Q.} { O.+.      ",
"  h.@.O.O.a.qX5X5X5Xu p I } h.}.}.+.O. .@.z p O.} h.O.} Q. X}.}.oX~.1X}.Q.}.}.}.[.x.O.O.} r.} } w. .r.@.S.}.'.{.~.@.@.} @.      ",
"  i.} O.} r.qXqXp p y f H.Q.(.} } O.} u y z p O.} h.Q.Q.[ O.} } ! O.G.O.O.} } O.O.;XQ.O.Q.~.} 0.z y r.} U O.i.Q.}.} } O.O.0.O.  ",
"  i.} O.O.r.qXqXp p p f H.Q.(.} } O.} u y z p O.} h.Q.Q.[ O.} } ! O.G.O.O.} } O.O.;XQ.O.Q.~.} } z y r.} U O.i.Q.}.} } O.O.0.O.  ",
"  j.i.O.i.r.5X5Xp p e.0.H.].`.i.i.X. .i y h.w.O.}.;Xa.a.' X.p z 1 p 7 qX5XwXwX8XqXf.i.O.].).@.s.u p u p Y i.y.Q._.sXsXs.X.r.}   ",
"  h.O.O.O.a.7X5Xu u w.@.S.Q.(.O.O.@.[ p s i.O.O.Q.).O.} [ @.i i , p C qX5X8X8X5XqXj.} O.}.}.} q.p u u i Y a.i.^.).sXsX} O.r.O.  ",
"  V O.O.O.O.O.O.O O O.O.9 G G O.O.O.O.O O O.O.O.G *.k k @ @ B B < V D O + V V V V ;.7.O.x x k x V B O O > O.O.O.O.*.*.O.O.O.O.  ",
"  h.O.O.O.w.} a.g g q.w.S.Q.(.O.O.@.} u d r.O.O.Q.'.@.O.y y O.O.! a.G.d s } } } @.0XqXO.w.r.} 0.} } p g U w.$.@.O.}.}.} @.r.O.  ",
"  z.O.O.i.r.$.x.p p ] i.P.].;Xi.i.v.a.i p p.i.O.}.'.h.h.y v i.i.>.i.M.h r i.i.r.z.rX0XO.j.j.a.r.i.d.z p Y i.b.p.l..X.X .i.j.a.  ",
"  i.} O.O.@.y p p p }.Q.I O...} } O.} u d i.} O.} i.s h @.O.} } ! O.G.} O.p p } O.j.} O.8X8Xw.a.O.O.p p U O.k.sXsXQ.Q.O.O.0.O.  ",
"  i.} O.O.@.y p p p }.Q.I O...} } O.} u d i.} O.} i.s h @.O.} } ! O.G.} O.p p } O.j.} O.8X8Xa.r.O.O.p p U O.k.sXsXQ.Q.O.O.0.O.  ",
"  $.+.O.@.@.j h O.O.(.[.I @.$.+.O.s k @.O.d.+.O.O.$.d h @.+.O.+.,.@.G.@.+.O.O.@.+.#.@.O.a.i.@.} +.@.j h L @.b.[ p.[.[.sXsXq.o.  ",
"  h.} O.O.@.k z } } E.^.J @.$.} } d d @.O.@.} O.[ h.n h } @.} } ,.@.J.@.O.} } O.O.h.@.O.}  .O.q.{ o.z p P O.h.O.O.[.[.pXsXr.o.  ",
"  i.} O.O.r.z z } } u p L @.#.} } p r @.@.i.} O.u p } @.} @.} } :.a.G.@.O.} }  .@.j.@.O.} r.5X5Xw.@.i p Y X.f.@.r.].].w.O.r.@.  ",
"  X.} O.O.@.h h } } z p I } ..} } d d O.} X.} O.p z } } } @.} } ! } J.O.} } } } } j.} O.} a.7X8X{ O.p d K O.p.} } Q.Q.} O.0.{   ",
"  j.r.O.O.i.v b r.r.l z W r.h.r.r.g p r y y.r.O.p z @. .a.v.r.r.>.i.G. .] r.r.d.r.x. .O.r.p.qXwXO.X.i p Y X.f.r.r.].].r.X.r.a.  ",
"  i.} O.O.@.y y } } p p I O...} } d y p d i.} O.u v } O.} O.} } ! O.G.O.O.} } O.O.j.O.O.} @.8X5X[ O.p p U O.p.O.r.Q.Q.O.O.0.O.  ",
"  O.O.O.O.O.O.O.O.O.O.O.O.O.O.O.O.O.O.O.O.O.O.O.O.O.O.O.O.O.O.O.O.O.O.O.O.O.O.O.O.O.O.O.O.O.O.O.O.O.O.O.O.O.O.O.O.O.O.O.O.O.O.  ",
"  i.} O.} w.h p } } ~.Q.; u z } } O.} O.[ O.} O.z v } } [ O.} } ! } F.} [ } } } } p.} O.} r.8X5X[ O.O.p Y } p.} q.Q.Q.[ } 0.@.  ",
"  k.h.O.h.h.B A h.h.,X'.: z A h.h.$.$.z.h.#.h.O.z A i.h.i.$.h.h.=.h.P.h.i.h.h.h.h.S.i.O.r.g.qX5Xi.h.b v T i.9.j.j.'.'.i.h.y.i.  ",
"  i.O.O.} @.h z O.O.}.Q.; y h O.O.@.O.@.}  .O.O.} h.} } [ @.O.O.! O.J.O.} O.O.} } j.O.O.qX5X} } } O.p y uXsXiX{.Q.Q.Q.} O.0.{   ",
"  h.} O.} @.h z } } ].Q.; y z } } @.O.@.} r.} O.} h.} } } @.} } ! O.D.O.} } } } i.z.} O.7XqXa.} } } p y uXsXpX^.~.Q.Q.} O.w.}   ",
"  i.} O.[ O.y z } } ] O.; s t } } O.{ O.{ O.} O.[ X.} } { O.} } ! } D.} ' } } } O.0X8XO.8X5XO.w.u y u s L O.h.n.W.} } } }       ",
"  h.O.O.@.@.k v O.@.X.@.$ y v @.O.@.+.@.O.d.O.O.O.$.@.@.O.@.@.@.! @.8.@.+.@.O.@.@.rXqXO.7XqX@.O.h h p h E @.h.[.].O.@.O.@.      ",
"  i.} O.} @.y y } } a.O.S.Q.`.p p Q.Q.].Q.r.} O.} h.O.} } O.} } 2X5XyXqX5X8X8X5X8Xi.@.O.Q.).p u p p ~.Q.K.Q.'.Q.~.} } O.O.0.O.  ",
"  i.} O.O.@.y y } } a.O.S.Q.`.p p Q.Q.].Q.r.} O.} h.O.} } O.} } 2X5XyXqX5X8X8X5X8Xi.@.O.Q.).p u p p ~.Q.K.Q.'.Q.}.} } O.O.0.O.  ",
"      * _ _ =X=X3 3 ( 4.M.$XOX6 6 4.3.&X$X&X#XO._ 2.4.4.4.3.4.4.-.5.7.3.) 3.3.4.5.=X#XO.3 6 6 3 3.3.&X#X< 3 9 3 > 4.4.A.4.      ",
"      0 O.r.Q.W.y y i.O.S.Q._.p p } O.}.Q.).].O.w.h.O.O.} @.O.O.! 0.J.O.{ } } } X.;X}.O.p u u i } O.).Q.> u z p p O.O.w.a.      ",
"      o ( ( oX+X4 4 L ( 7.+XB.2 2 5.2.+XoX%X+XO.( 1.<.,.<.,.( ( &.( 7.,.( <.<.( ( %X+XO.4 5 2 : ( <.OX+X= 2 : : 1 <.<./ 2.      ",
"      0 w.X.@.@.y y a.@.I @...Q.Q.g y O.} @.} O.} h.{.[.d h y y >.} D.{.W.Q.Q.y y v y O.d z Q.Q.Q.W.~.Q.> u C sXsX} }           ",
"      0 q.a.' } f f e.w.P } i.Q.Q.p a } }  .@.O.[ i.^.Q.s h f f G i.J.}.Y.~.~.r y t z O.s f Q.E.~.^./.~.- p c sXiX@.O.          ",
"      0 a.w.} O.p p }.Q.I O...} }  XQ.].Q.r.} O.} h.O.} } O.p p , p S d s p p y d i.@.O.Q.~.Q.W.sXsXu p U O.p.O.r.} }           ",
"      0 a.w.{ O.p p }.Q.I O...} }  XQ.].Q.r.} O.} h.O.} } O.p p , p S d s p p p d p.@.O.Q.~.Q.W.sXsXu p U O.p.O.r.} }           ",
"        q.O.O.} } } g p L } | Q.Q.[.[.Q.Q.}.Q.O.Q..X} } } +.} } ~ } D.} [ } } } } j.[ O.p i p t [ [ p g K O.y.}  .              ",
"        } [ { O.@.@.s d I a.#.Q.Q. X[.}.{.).Q.O.Q.'.@.@.a.@.O.O.! O.S.O.} @.@.} O.h.@.O.d p d y [ } u d U w.p.} a.              ",
"            i.p.i.i.y.i.- z b r.r.>X.X'.'.,X'.O.).:X'.'.p v z z 1 p D i.p.i.i.l v C z O.z i i.p.i.i.y.r.Y p.l.p.r.              ",
"            %.} O.O.r.O.; u k O.} Q.Q.~.[.`.Q.O.Q..X{.{.y d d d , d Z } } O.O.y p v d O.d y } q.} } 0.O.Y O.i.w.q.              ",
"            e q O.O.O.O.O.O.O.O.O.O.O.O.O.O.O.O.O.O.O.O.O.O.O.O.O.O.O.O.O.O.O.O.O.O.O.O.O.O.O.O.O.O.O.O.O.O.O.e                 ",
"                } } a.O.P } y.p p h O.O.O.O.} O.} i.O.O.} O.} } ! @.S.d s p p ~.^.i.O.O.O.0.[ r.O.} 0.} U O.k.                  ",
"                3X@.r.r.L r.f.p p v s i p u.i.O.t.j.i.i.i.i.i.i.G i.I.p u z z ).~.c.r.O.r.t.w.t.r.i.m.@.M w.L.                  ",
"                    r.O.P O...Q.Q.{.Q.p y z p O.s h d d s d p p , d Z } } O.O.O.@.j.O.O.} 0.[ q.{ }     ^ } k.                  ",
"                    w.} K 0.| ~.~.].Q.u p t p O.u i p p u p p p 5 i > 0.q.r.r.w.q.g.0.O.r.} [ X.q.[     T 0.c.                  ",
"                3X@.0.} P }  .[ [ O.} ~.Q.Q.Q.O.W..XQ.{.^.Q.Q.Q.! } J.O.} O.O.} } j.} O.O.@.                                    ",
"                @X} } [ P [  .} } { [ ^.Q.Q.Q.O.W..XQ.Q.W.[.Q.Q.W } D.} [ [ [ } [ $.O.O.}                                       ",
"                                      @.} r.w.O.w.h.} } } @.w.w.! a.J.O.a.w.w.                                                  ",
"                                      @.} r.} O.} h.O.O.} O.} } ! O.G.O.O.} }                                                   "
};
