/* XPM */
static char *c236720617d4448bd04ce7205eb558daFwpkunI9X1zCj3OR[] = {
/* columns rows colors chars-per-pixel */
"64 64 225 2 ",
"   c None",
".  c #1E3613",
"X  c #2C3031",
"o  c #373E39",
"O  c #335D0D",
"+  c #335911",
"@  c #30610A",
"#  c #36621D",
"$  c #3C641C",
"%  c #3E7610",
"&  c #344C25",
"*  c #395E20",
"=  c #334534",
"-  c #3B6329",
";  c #426F0F",
":  c #42750C",
">  c #436E16",
",  c #487617",
"<  c #446D24",
"1  c #466A2A",
"2  c #4B6B2A",
"3  c #457626",
"4  c #4E7D24",
"5  c #467328",
"6  c #4D7328",
"7  c #517B24",
"8  c #597E26",
"9  c #547D36",
"0  c #4D7235",
"q  c #414C41",
"w  c #525F4D",
"e  c #4D4C53",
"r  c #52634D",
"t  c #4D8E05",
"y  c #4E8E0C",
"u  c #4B890C",
"i  c #528D05",
"p  c #518D0B",
"a  c #55860A",
"s  c #4E9105",
"d  c #4D900A",
"f  c #479200",
"g  c #519004",
"h  c #52910A",
"j  c #4D8E12",
"k  c #4C8B1B",
"l  c #4B8816",
"z  c #538413",
"x  c #528B12",
"c  c #53861B",
"v  c #538A19",
"b  c #598B1A",
"n  c #5E8618",
"m  c #4C9114",
"M  c #509114",
"N  c #6FB11B",
"B  c #6FAA1C",
"V  c #4E8522",
"C  c #528323",
"Z  c #588323",
"A  c #588822",
"S  c #55842C",
"D  c #538927",
"F  c #598B36",
"G  c #598436",
"H  c #679B39",
"J  c #709F3F",
"K  c #6BAB25",
"L  c #6DA62D",
"P  c #67A92A",
"I  c #69A92B",
"U  c #66AC24",
"Y  c #71AE25",
"T  c #73AD2B",
"R  c #77A92F",
"E  c #6DB020",
"W  c #70B12E",
"Q  c #6BA632",
"!  c #6BA33B",
"~  c #6EA839",
"^  c #6CA934",
"/  c #72A33B",
"(  c #73AD3D",
")  c #79A539",
"_  c #7CB93F",
"`  c #78B63D",
"'  c #7CCB1D",
"]  c #79CC1A",
"[  c #7DD415",
"{  c #7DD31D",
"}  c #77D619",
"|  c #7FD40D",
" . c #7ECD25",
".. c #7EC72E",
"X. c #7DCC2B",
"o. c #7CC326",
"O. c #75D522",
"+. c #7DD222",
"@. c #7CD229",
"#. c #79D527",
"$. c #7DC532",
"%. c #7DCB33",
"&. c #7FD030",
"*. c #5C8345",
"=. c #6A9744",
"-. c #739B4C",
";. c #759E59",
":. c #688953",
">. c #6DA242",
",. c #6EAC44",
"<. c #67A440",
"1. c #72AC42",
"2. c #70A24C",
"3. c #77AB4A",
"4. c #7BB644",
"5. c #7CB942",
"6. c #79B448",
"7. c #77A458",
"8. c #6EA155",
"9. c #7EC348",
"0. c #88BE3D",
"q. c #83CE1E",
"w. c #81D215",
"e. c #81D11D",
"r. c #8AD31C",
"t. c #82CE24",
"y. c #8ACD24",
"u. c #83C62D",
"i. c #83CD2C",
"p. c #89CC2C",
"a. c #8BC62E",
"s. c #81D122",
"d. c #81D12A",
"f. c #88D325",
"g. c #83C434",
"h. c #8FC732",
"j. c #84CB33",
"k. c #8ACA33",
"l. c #85C53C",
"z. c #8CC53C",
"x. c #83CA3B",
"c. c #8ACA3B",
"v. c #92C73A",
"b. c #83D332",
"n. c #8CD135",
"m. c #A7F63F",
"M. c #86BE59",
"N. c #90BF57",
"B. c #8EB650",
"V. c #8FBD6E",
"C. c #89A878",
"Z. c #86A971",
"A. c #8FB674",
"S. c #85C545",
"D. c #8AC646",
"F. c #85C844",
"G. c #86C64C",
"H. c #89C54B",
"J. c #84C949",
"K. c #8FCB4C",
"L. c #88C845",
"P. c #90CB4C",
"I. c #8AC354",
"U. c #93C45A",
"Y. c #8FD452",
"T. c #9FEF47",
"R. c #9EF755",
"E. c #9FF749",
"W. c #A3ED49",
"Q. c #A5F546",
"!. c #A5F54D",
"~. c #A4F54C",
"^. c #AAF24D",
"/. c #A1F849",
"(. c #ACFB49",
"). c #A4EA56",
"_. c #ACEE54",
"`. c #A6EA5A",
"'. c #ABED5C",
"]. c #A8E758",
"[. c #A6F252",
"{. c #A2F651",
"}. c #A4F453",
"|. c #A9F250",
" X c #A9F252",
".X c #AAF15B",
"XX c #A4F658",
"oX c #B8F05A",
"OX c #8EC865",
"+X c #92CA65",
"@X c #96C565",
"#X c #9ED76B",
"$X c #9FD869",
"%X c #9EDD61",
"&X c #9CCB73",
"*X c #A2D566",
"=X c #A4C97C",
"-X c #A2D773",
";X c #B9DB7E",
":X c #AEEC64",
">X c #ADE66C",
",X c #ADF161",
"<X c #B3F365",
"1X c #ADEA74",
"2X c #B1E774",
"3X c #A0C68A",
"4X c #BEE79A",
"5X c #CBFA8E",
"6X c #C8F88C",
"7X c #C2ED90",
"8X c #C6FC94",
"9X c #CAF994",
"0X c #CBF79B",
"qX c #CAF99A",
"wX c #C7F698",
"eX c #D0F892",
"rX c #C8F7A2",
"tX c #D0F2AA",
"yX c #CEF2B3",
"uX c #CFECAB",
"iX c #D2D8CC",
"pX c #F6FCED",
"aX c #FFFDFE",
"sX c #FEFEFE",
"dX c #FBFCF4",
/* pixels */
"                                                                                                                                ",
"                                        +.+.{ +.+.+.s.+.+.O.O.@.} s.+.+.@.i.} {     +.+.                                        ",
"                                        q.q.t.t.+.t.k.q.q.w.t.t.q.t.q.+.q.u.q.e.    q.q.                                        ",
"                                { @.#.@.+.+.X.+.+.@.i.+.+.aXsX+.+.X.+.+.{ j.+.+.{ @.+.+.5.s.3.                                  ",
"                                w.+.+.{ +.+.f.{ +.{  .+.+.aXdXe.{ t.+.+.[ i.{ { { +.+.+.S.e.)                                   ",
"                      } @.      s.{ } @.{ { sXsX=.|..X!.!.{.{.[.!.[.!.+.~.'.!.~.{ @.{ { 5.+.1.{ +.{ {                           ",
"                      } @.      s.{ { @.{ { sXsX=.|..X!.!.{.{.[.!.[.!.+.~.'.!.~.{ +.{ { 5.+.1.{ @.{ {                           ",
"                      +.t.H.e.H i.q.!.^.|.|.]._.+.+.z.sXsXp.+.t.{ t.t.+.w.k.!.^.Q.[.^.|., p 2 sXpXt.t. .s.t.w.                  ",
"                      { { D.+.F @.{ {.}.~.~.!./.+.@.p.sXsX[ +.@.{ t.+.+.{ k.}./.m.{.!.!.4 p > sXsX+.+.{ { p.e.r                 ",
"              l.z.l.S.@.p.U.p.*.'._.<X'.i.i.u.i.+.%.n.l.l.n.j.g.p.g.p.+.p.0.pXdXj.j.'.'.9 x > Z n p.p.u.p.z.i.+.l.P.l.v.        ",
"              +.{ +.{ s.[ D.+.F [.|.{.|.+.+.i.s.+.e.i.+.+.@.+.X.+.X.+.+.{ i.sXsX+.@.!.!.4 i 3 i p +.+.+.e.p.+.+.+.e.{ q.        ",
"              Y E Y N ) ~ / Y 0 K.P.Y.D.Y Y T T , Y T Y Y L P T K T Y +.T R iXiXL W K.K.1 , - , ; Y Y K Y T T +.Y B / R         ",
"              { { +.{ sXsX2X!.8.+.{ } @.{ { p a O h p p p j p p d p p +.p v y y s j !.!.#X!.+X~.^.p p h d t.+.+.{ @.            ",
"        e     q.e.q.t.pXsX;X|.3.t.y.t.t.t.t.i i O p x p p l x a p a p +.+.b p p i p ^.^.*X_.@X^.(.i i p i u.q.+.q.B.            ",
"        & { x.{ [ { [ [ { J.{ F p p +. .y y p i V { d.+.+.@.O.@.+.X.+.+.+.j.+.{ y j p p 4.+.1.Q./.sXsX[ { i.{ +.{ i.{ [         ",
"        & { k.+.i.w.e.t.[ F.{ F i i { e.x x i p C { i.+.+.#.} e.} +.[ +.[ i.{ { i j p p 4.{ ( ~.^.sXsX[ [ i.{ +.+.t.} w.        ",
"    ' { +.w.a.t.O.sXsXy i Z i # { q.{ { q.{ f.w.c q.t.s.t.{ w.5X9XeX5X+.5X6X{ { e.+.i i 4 a > ~.W.Q.Q.u y p.w.+.t.y.w.X.        ",
"    t.{ +.{ k.{ } sXsXM x Z i # { +.{ { { { @.{ k { s.e.s.@.+.5X8XqX9X+.9XqX{ s.+.@.p p 7 i 3 !.~.~.~.p d i.{ +.[ e.[ [         ",
"    t.t.+.t.h.^./.|.|.p x H.@.+.t.t.s.t.^.^._. Xc t.k.9X9Xi. .t.s.p.@.+.t.h.5XqX5XqX_._.7 i 6 x g ^.^.a p a y +.q.y.q.{ @.      ",
"    { @.+.s.k.!.~.!.Q.i y D.{ +.+.{ { { !.!.[.|.c e.k.9X9Xs.{ { { t.{ +.{ t.qX8X9X8X!.!.4 p 5 d s !.!.p d x d +.+.t.{ t.+.{     ",
". +.+.+.+.+.+.+.+.+.+.+.+.+.+.+.+.+.+.+.+.+.+.+.+.+.+.+.+.+.+.+.+.+.+.+.+.+.+.+.+.+.+.+.+.+.+.+.+.+.+.+.+.+.+.+.+.+.+.+.+.+.    ",
"w.{ w.+.+.p x !.[.@.@.x j S.+.+.+.@.@.+.!.!.i.{ 7.qX0X{ { @.@.@.{  .+.+.{ i.+.{ 9XqX@.@.#X|.+Xy x @.@.[ @.x d +.+.t.+.q.{ +.    ",
"k.k.h.k.+.c Z :XoXx.j.c v U.k.G k.j.%.c.:X:Xg.k.;.0XrXk.k.$.j.k.k.c.k.+.p.D.k.x.0XrXi.i.-X:X&Xv u i.p.k.j.Z v +.i.v.k.h.k.%.    ",
"{ +.t.{ +.x c sXaX} +.x y F.+.+.{ { R.{.+.+.qXqXC @.x.+.+.#.+.@.{ t.+.+.{ j.{ i.+.@.9X9X6.X.( y y d d { +.v p +./.^.@.w.{ [     ",
"{ +.f.{ +.p z sXdX{ +.h d l.+.+.{ { ~.|.+.+.9X5XC { t.{ { @.+. .{ d.+.+.{ j.{ { { @.5X5X5.{ ( y t y p { { z y +.^._.+.e.{ {     ",
"+.+.t.+.+.p c { { +.@.p y D.{ +.+.+.~.|.{ { eX9XC { i.p p +.{ { { t.{ +.{ j.+.{ { +.9X9X4.{ 1.~.^.p p { @.i.+.+.p x +.t.+.[ e.{ ",
"+.+.t.+.+.p c { { +.@.p y D.{ +.+.+.~.|.{ { eX9XC { i.p p +.{ { { t.{ +.{ j.+.{ { @.9X9X4.{ 1.~.^.p p { @.i.+.+.p x +.t.+.[ e.{ ",
"[ +.i t +.s.u.+.[ t y e.+.D.+.+.{ { ~.!.+.+.5X5X+ s t +.+.#.+.+.{ ' +.+.[ i.{ { ] #.5X5X` } ( Q.T.s s [ { p.{ +.s i { w.{ [ s.+.",
"{ +.p p +.{ k.+.} j j +.{ S.+.+.+.+.{.|.+.+.qXqXO d j { { @.@.@.+. .+.+.{ j.+.+.{ @.qXqX4.+.,.}.|.d d { +.i.{ +.d p { q.+.{ +.+.",
"F.J.S G +.D.@XG.x.S S J.F.V.G.+.J.D.1X2XG.G.8 Z G G.M.G.G.G.J.G.J.G.G.+.L.I.J.F.F.9.yXyX7.J.7.F.J.S S F.D.G D +.D.U.D , J.F.J.G.",
"{ @.a p +.s.c.+.{ p p s.w.J.+.+.+.e.~.^.+.+.p p C s.i.+.+.@.@.s.{ i.+.+.{ j.+.+.{ @.5X5X6.q.( { i.p p { +.p d +.@.i.d a { { s.+.",
"~ ! 2 1 +.! -.! ^ < < J J +.+.+.+.+.M.OX! ! 2 < 1 ! >.! ! ,.,.<.! >.! +.! -.! ! ! ! 3X3X:.! *.>.H < < ~ ! 2 < +.! H < 6 ! Q ! ! ",
"+.+.p p +.s.k.{ [ y i g y D.{ +.+.+.~.|.{ { x a V +.i.{ { #.{ { { t.{ +.{ j.+.{ { @.{ { 5.+.( y g p p { +.x d +.{ i.p p ~.~.e.{ ",
"+.+.p p +.s.k.{ [ y i g y D.{ +.+.+.~.|.{ { p a V +.i.{ { +.{ { { t.{ +.{ j.+.{ { @.{ { 5.+.( y g p p { +.x d +.{ i.p p ~.~.e.{ ",
"+.@.u x +.@.g.+.+.@.@.j j S.+.+.@.@.R.XX+.+.X.@.@ y v +.+.#.@.@.@.b.+.+.+.%.@.@.+.@.+.+.4.@.,.j j +.+.#.@.v d +.+.i.d p ~.{.@.+.",
"[ { i s +.@.c.{ [ { #.y d S.@.+.+.{ E.~.[ [ ] [ @ y y @.@.@.{ { { s.{ +.[ i.[ { } +.{ { 5.{ 1.d s { { { s.p y +.{ i.s i /.Q.{ { ",
"{ +.p p +.sXsX+.{ { @.p p S x # @.{ +.{ ~.~.s.{ k +.j.j j j j @.{  .+.+.{ j.{ { { @.{ { 5.+.,.{.~.{ { { @.'.}.+.+.i.d p }.!.{ +.",
"{ +.p x +.sXsX+.} { { s s S y - +.t.@.+.!.!.s.+.k @.j.s s d m { { @.{ +.{ i.{ { { @.+.+.5.+.1.}./.+.+.{ @.'.}.+.+.i.d p !.~.{ +.",
"b.j.z v +.k.D.j.i.j.i._._.G v - v x b.j.j.j.:X_.=.'.'.i.i.%.j.p x x v +.v A j.j.X.%.j.j.3.j.2.j.i.j.j..X'.>X.X+.i.k.j a .X.Xj.j.",
"[ { a p +.{ k.{ [ { [ ~.Q.S p * x a { { { { |.~.H ~.|.{ { +.[ i p p i +.x x { { [ +.{ { _ e.( { [ { { ~.!._.!.+.{ y.s i Q.Q.e.{ ",
"= +.+.+.+.+.+.+.+.+.+.+.+.+.+.+.+.+.+.+.+.+.+.+.+.+.+.+.+.+.+.+.+.+.+.+.+.+.+.+.+.+.+.+.+.+.+.+.+.+.+.+.+.+.+.+.+.+.+.+.+.+.+.+.",
"    { @.+.s.k.{ [ y x |.~.1X!.2.p p y p p p e.+.+.+.i.{ { #.{ { { t.{ +.{ j.+.{ { +.{ { #X[.+X{ @.{ { !.!.'.!.+.{ i.p p ~.~.e.{ ",
"    t.t.+.t.z.t.s.a x ^._.2X[.-.u p m x x x j.i.+.t.p.i.i.d.@.i.X.u.i.+.+.$. .t.+.d.t.t.*X_.&X@. .t.t.|._.<X`.+.+.a.x u !.!.t.t.",
"    +.{ +.{ k.{ { sXaXh j 1X!.+.@.@.O.@.y y y s O d p d d +.+.@.{ y d +.[ j.{ { } +.!.!.$X!.OX{ { !.!.!.}.'.{.+.+.p y p ~.~.{ { ",
"    q.@.+.@.c.{ { sXsXp p >X[.+.{ t.+. .i i a p O i a i i @.@.@.+.t p +.+.x.@.@.+.@.[.[.*X|.+X+.{ [.[.!.|.'.^.+.+.a p i ^./.@.@.",
"    s.@.+.+.$.} b.{ #.i j >X~.7.{.[.@.+.{ {  .[ +.{ s.{ { k d t d p y +.{ %.+.+.} #.~.~.4.+.3.y f ~.~.{.{..X!.+.+.s ~.~.{ [     ",
"    [ w.+.@.x.+.{ { } y j 1X~.8.{.[.@.#.+.+.X.@.+.@.b.+.+.s d p d h d +.+.%.@.@.+.@.~.~.5.{ 6.h p XXXX{.XX,X!.+.j v }.[.+.}     ",
"        +.s.k.{ { 5X9Xh p S p # }.[.~.|.{ { i.+.+.+.i.{ { +.{ { { t.{ +.{ j.+.{ { +.p p 7 p 3 !.~.{ { !.!.t.{ +.p p !.^.[ {     ",
"        +.s.k.{ { 5X9Xh p S p # }.[.{.|.{ { i.+.+.+.i.{ { #.{ { { t.{ +.{ j.+.{ { @.p p 7 p 3 !.~.{ { !.!.t.+.+.p p !.^.[ {     ",
"        +...D...' g.g.7X7XM.u.9 j u $.j.).).`.).H ).:X....%.%.$...j...+.x A j x u v `.`.@X].V...i.....o.$.b k +.u.g...o. . .    ",
"        +.e.c.+.[ { { qXqXD.{ F d p @.{ !.!.[.!.H ~.[.+.+.@.@.@.{ t.+.+.i x y y s y !.!.$X~.+X@.{ +.+.{ s.x i +.{ t.+.q.{ [     ",
"        +.I / P U P I =X=X-.Q 0 : : Q I H.H.H.D.9 D.I.I I I U L I Q I +.: > : : : % D.D.M.D.7.I P I I L I ; : +.P L P K P P     ",
"        +.+.c.+.| +.{ qXqXtX5XZ.d.s.d p g g q.@.+.e.i.!.!.{./.p p x p +.~.'.!.!.+.@.+.+.5.+.( @.e.!.!.p d i.+.+.+.t.+.{ { [     ",
"        +.t.u.@.r.@.+.wX0XuXqXA.s.t.t i y p r.e.+.w.' |.|.).W.i x z p +.^.<X|.[.' X.s.s.( i.L s.r.|.|.h s u.t.+.s.t.t.e.q.{     ",
"                  +.+.s.w.tX9XC.qX9XqX5Xp p p i O h p p p +.{ { { t.{ +.{ j.+.{ { @.{ { 4 y 5 y g p p { @.i.+.+.{ @.    @.{     ",
"                  +.+.s.w.tX9XC.qX9XqX5Xp p p i O h p p p +.{ { { t.{ +.{ j.+.{ { +.{ { 4 y 5 y g p p { @.i.+.+.{ 4X    4X%X    ",
"              {  .@.+.q.{ H.@.+.+.e.6X5XqXqX6X6X+.s.c.p p j x x j b y +.p A x x x v y y -XQ.+X@.{ +.+.{ +.p.{ w                 ",
"              { t.@.{ %.+.I.} +.@.@.rXqXqXqX6X8X+.{ %.y y l k x j v y +.j V j j y k y y -X~.OX@.] { } +.} i.&.r                 ",
"                          N.s.+.@.+.d.s.t.t.t.s.+.e.t.@.@.@.@.t.@.i.@.+.e.j.@.@.+.@.@.@._ t.( X.s.e.e.+.[                       ",
"                          D.s.+.e.t.[ +.{ +.i.+.+.+.i.+.+.@.+.+.+.+.+.+.{ j.{ { [ @.{ +._ +.( e.w.s.s.w.{                       ",
"                              X q q +.+.+.+.+.+.+.+.+.+.+.+.+.+.+.+.+.+.+.+.+.+.+.+.+.+.= q o q q q q                           ",
"                                    } @.{ { i.+.+.+.+.{ { #.{ { { t.{ +.{ j.+.{ { +.{ {                                         ",
"                                    i.j.i.i.k.j.C j.x.i.i.%.j.i.X.k.i.+.i.l.i.j.i.j.i.i.                                        ",
"                                                                                                                                "
};
