/* XPM */
static char *a81991a4d6c342e784d00810184c3d1daGSMJKoo4iZLdqkv[] = {
/* columns rows colors chars-per-pixel */
"64 64 224 2 ",
"   c None",
".  c #1E3613",
"X  c #2C3031",
"o  c #373E39",
"O  c #335D0D",
"+  c #335911",
"@  c #30610A",
"#  c #36621D",
"$  c #3E7610",
"%  c #344C25",
"&  c #395E20",
"*  c #334534",
"=  c #3B6329",
"-  c #426F0F",
";  c #42750C",
":  c #436E16",
">  c #487617",
",  c #446D24",
"<  c #466A2A",
"1  c #4B6B2A",
"2  c #457626",
"3  c #4E7D24",
"4  c #467328",
"5  c #4D7328",
"6  c #517B24",
"7  c #597E26",
"8  c #4D7235",
"9  c #547D36",
"0  c #414C41",
"q  c #525F4D",
"w  c #4D4C53",
"e  c #52634D",
"r  c #4D8E05",
"t  c #4B890C",
"y  c #4E8E0C",
"u  c #528D05",
"i  c #55860A",
"p  c #518D0B",
"a  c #479200",
"s  c #4E9105",
"d  c #4D900A",
"f  c #519004",
"g  c #52910A",
"h  c #4D8E12",
"j  c #4B8816",
"k  c #4C8B1B",
"l  c #538413",
"z  c #528B12",
"x  c #53861B",
"c  c #5E8618",
"v  c #538A19",
"b  c #598B1A",
"n  c #4C9114",
"m  c #509114",
"M  c #6FAA1C",
"N  c #6FB11B",
"B  c #4E8522",
"V  c #528323",
"C  c #588323",
"Z  c #538927",
"A  c #588822",
"S  c #55842C",
"D  c #598436",
"F  c #598B36",
"G  c #679B39",
"H  c #709F3F",
"J  c #66AC24",
"K  c #6BAB25",
"L  c #6DA62D",
"P  c #67A92A",
"I  c #69A92B",
"U  c #71AE25",
"Y  c #73AD2B",
"T  c #77A92F",
"R  c #6DB020",
"E  c #70B12E",
"W  c #6BA632",
"Q  c #6CA934",
"!  c #6BA33B",
"~  c #6EA839",
"^  c #72A33B",
"/  c #79A539",
"(  c #73AD3D",
")  c #78B63D",
"_  c #7CB93F",
"`  c #7FD40D",
"'  c #79CC1A",
"]  c #7CCB1D",
"[  c #7DD415",
"{  c #77D619",
"}  c #7DD31D",
"|  c #7CC326",
" . c #7ECD25",
".. c #7EC72E",
"X. c #7DCC2B",
"o. c #75D522",
"O. c #7DD222",
"+. c #79D527",
"@. c #7CD229",
"#. c #7DC532",
"$. c #7DCB33",
"%. c #7FD030",
"&. c #5C8345",
"*. c #6A9744",
"=. c #739B4C",
"-. c #688953",
";. c #759E59",
":. c #67A440",
">. c #6DA242",
",. c #6EAC44",
"<. c #72AC42",
"1. c #70A24C",
"2. c #77AB4A",
"3. c #7BB644",
"4. c #7CB942",
"5. c #79B448",
"6. c #6EA155",
"7. c #77A458",
"8. c #7EC348",
"9. c #88BE3D",
"0. c #83CE1E",
"q. c #81D215",
"w. c #81D11D",
"e. c #8AD31C",
"r. c #82CE24",
"t. c #8ACD24",
"y. c #83C62D",
"u. c #8BC62E",
"i. c #83CD2C",
"p. c #89CC2C",
"a. c #81D122",
"s. c #88D325",
"d. c #81D12A",
"f. c #83C434",
"g. c #8FC732",
"h. c #84CB33",
"j. c #8ACA33",
"k. c #85C53C",
"l. c #8CC53C",
"z. c #83CA3B",
"x. c #8ACA3B",
"c. c #92C73A",
"v. c #83D332",
"b. c #8CD135",
"n. c #A7F63F",
"m. c #8EB650",
"M. c #86BE59",
"N. c #90BF57",
"B. c #8FBD6E",
"V. c #86A971",
"C. c #89A878",
"Z. c #8FB674",
"A. c #85C545",
"S. c #8AC646",
"D. c #85C844",
"F. c #88C845",
"G. c #86C64C",
"H. c #89C54B",
"J. c #84C949",
"K. c #8FCB4C",
"L. c #90CB4C",
"P. c #8AC354",
"I. c #93C45A",
"U. c #8FD452",
"Y. c #9FEF47",
"T. c #9FF749",
"R. c #9EF755",
"E. c #A3ED49",
"W. c #A5F546",
"Q. c #A4F54C",
"!. c #A5F54D",
"~. c #AAF24D",
"^. c #A1F849",
"/. c #ACFB49",
"(. c #A4EA56",
"). c #ACEE54",
"_. c #A8E758",
"`. c #A6EA5A",
"'. c #ABED5C",
"]. c #A6F252",
"[. c #A2F651",
"{. c #A4F453",
"}. c #A9F250",
"|. c #A9F252",
" X c #A4F658",
".X c #AAF15B",
"XX c #B8F05A",
"oX c #8EC865",
"OX c #96C565",
"+X c #92CA65",
"@X c #9EDD61",
"#X c #9ED76B",
"$X c #9FD869",
"%X c #9CCB73",
"&X c #A2D566",
"*X c #A4C97C",
"=X c #A2D773",
"-X c #B9DB7E",
";X c #AEEC64",
":X c #ADE66C",
">X c #ADF161",
",X c #B3F365",
"<X c #ADEA74",
"1X c #B1E774",
"2X c #A0C68A",
"3X c #BEE79A",
"4X c #C8F88C",
"5X c #CBFA8E",
"6X c #C2ED90",
"7X c #C6FC94",
"8X c #CAF994",
"9X c #C7F698",
"0X c #CBF79B",
"qX c #CAF99A",
"wX c #D0F892",
"eX c #CFECAB",
"rX c #C8F7A2",
"tX c #D0F2AA",
"yX c #CEF2B3",
"uX c #D2D8CC",
"iX c #F6FCED",
"pX c #FBFCF4",
"aX c #FFFDFE",
"sX c #FEFEFE",
/* pixels */
"                                                                                                                                ",
"                                        i.i.h.i.h.i.k.i.O.i.j.X.i.h.$.i.i.z.h.V h.j.i.i.h.i.                                    ",
"                                        } } O.} } O.h.} O.} r.} } } +.} } O.O.O.O.i.} } @.{                                     ",
"                          0 0 0 0 o 0 * O.O.O.O.O.O.O.O.O.O.O.O.O.O.O.O.O.O.O.O.O.O.O.O.O.O.0 0 X                               ",
"                      } q.a.a.q.w.( O._ O.} @.[ } } h.} O.O.O.O.O.O.@.O.O.i.O.O.O.i.O.} O.[ r.w.O.a.S.                          ",
"                      [ O.w.w.a.X.( r._ @.@.@.O.@.@.h.w.O.@.i.@.r.@.@.@.@.r.w.O.a.r.r.r.a.d.O.@.O.a.N.                          ",
"                e %.i.{ O.{ } ' @.oX!.=Xy y k y h h B h O.y v h z k j y y $.} O.7X5XqXqXqXrX@.@.O.{ P.O.$.} @.r.}               ",
"                q } p.O.} O.O.} @.+XW.=Xy y v z z z A p O.y b h z z h p p x.a.O.5X5XqXqX5X5Xw.O.O.@.H.} 0.O.@. .}               ",
"    @X3X    3X} O.O.i.@.} p p f y 4 y 3 } } O.} } O.h.} O.} r.} } } O.p p p g O u p p p 5XqX8XqXC.8XtXq.a.O.O.                  ",
"    } @.    @.} O.O.i.@.} p p f y 4 y 3 } } @.} } O.h.} O.} r.} } } O.p p p g O u p p p 5XqX8XqXC.8XtXq.a.O.O.                  ",
"    } 0.w.r.r.a.O.r.y.s g }.}.e.a.L i.( a.a.X.] ].}.,X~.O.p l z u E.(.}.}.] q.O.w.e.p y u r r.a.Z.qXeX0X9XO.@.e.@.y.r.O.        ",
"    [ } } O.r.O.O.O.i.d p !.!.w.@.( O.4.O.O.@.O.!.!.'.!.O.p z p p ^.[.!.!.i.w.O.@.0.f f p d a.d.V.5XtXqXqX} O.` O.x.O.O.        ",
"    P P K P L P O.; - I L I I P I 7.S.M.S.S.$ ; ; ; : ; O.I W I L J I I I P.S.9 S.H.H.H.I W ; ; 8 W =.*X*XI P J P ^ I O.        ",
"    [ } 0.O.r.} O.u z a.} O.O.} @.+X!.$X!.!.y s y y z u O.O.r.} @.@.@.O.O.].!.G !.].!.!.} @.p d F } S.qXqX} } [ O.x.w.O.        ",
"     . .| ..f.y.O.k b #.| ....i...B._.OX`.`.v t z h A z O...h...#.$.$.....;X(.G (.`.(.(.h.#.t h 9 y.M.6X6Xf.f.] ..S...O.        ",
"    } [ ~.!.p p O.O.r.!.!.} } !.!.2 p 6 p p @.} } O.h.} O.} r.} } } +.} } i.O.O.O.i.} } }.[.].{.# p S p g 8X5X} } j.a.O.        ",
"    } [ ~.!.p p O.} r.!.!.} } !.!.2 p 6 p p O.} } O.h.} O.} r.} } } O.} } i.O.O.O.i.} } }.!.].{.# p S p g 8X5X} } j.a.O.        ",
"    { O.].{.v h O.!.>X X[. X Xp g 5.} 4.!.!.@.O.@.@.$.O.O.d g d p d s O.O.v.@.O.@.X.O.O.+.@.].[.6.!.<Xh y { } } O.z.@.O.q.[     ",
"    [ } !.!.s O.O.!..X[.[.!.!.a y 2.O.3.!.!.+.{ O.O.$.} O.y p d r d k } } a.} O.[  .} } O.@.].[.7.!.:Xh u +.} v.{ #.O.O.@.a.    ",
"@.@.^.~.u p i O.O.~.'.}.!.].].} O.+X}.&X].].@.O.@.@.z.O.O.p r O.@.@.@.u u i u O p i u u  .O.r.} O.].:Xp p sXsX} } x.@.O.@.0.    ",
"} } !.!.p y p O.O.[.'.{.!.!.!.} } oX!.$X!.!.O.{ } } h.[ O.d y } @.O.O.d d p d O s y y y @.o.@.@.O.!.<Xh g sXsX} } j.} O.} O.    ",
"r.r.!.!.t z u.O.O.`.,X).}.r.r. .@.%X).&Xr.r.d.O.r. .#.O.O.i.y.X.i.@.d.i.i.p.r.O.i.h.z z z n p t =.].1X).~.z i a.r.l.r.O.r.r.    ",
"} w.!.!.p p i.} O.!.'.!.!.} } @.} +X].#X} } O.} } O.h.} O.} r.} } } +.} } i.O.O.O.w.p p p y p p 1.!.<X!.}.z y [ } j.a.O.@.}     ",
"O.O.O.O.O.O.O.O.O.O.O.O.O.O.O.O.O.O.O.O.O.O.O.O.O.O.O.O.O.O.O.O.O.O.O.O.O.O.O.O.O.O.O.O.O.O.O.O.O.O.O.O.O.O.O.O.O.O.O.O.O.O.O.* ",
"} w.W.W.u s t.} O.!.).!.!.} } [ } ( w._ } } O.[ } } z z O.u p p u [ O.} } }.!.G !.}.} } } } i z & p S W.!.[ } [ } j.} O.p i } [ ",
"h.h..X.Xi h j.i.O..X:X'..Xh.h.i.h.1.h.2.h.h.$.X.h.h.A v O.v z z p h.$.i.i.'.'.*.).;Xh.h.h.v.z v = v D ).).i.h.i.h.S.j.O.v l h.v.",
"O.} !.!.p d i.O.O.{.'.@.} O.O.^.{.<.O.4.O.O.@.} } } i.} O.} @.} } n d s s h.@.k O.a.!.!.O.@.r.O.= y S s s } } { O.sXsXO.z p O.} ",
"O.} !.{.p d i.O.O.{.'.@.} } } !.[.,.O.4.} } @.} } } h.} O.O. .} @.h h h h h.O.k } a.!.!.} O.} @.# z S p p @.} } O.sXsXO.p p O.} ",
"} } W.^.u s i.} O.y p a.} } } s d <.} 4.} } O.{ } [ i.[ O.} a.} } } @.@.@.y y @ [ ' [ [ !.T.} O.O.@.A.d y +.} [ } x.@.O.s u } [ ",
"O.@.[.!.p d i.O.O.d v @.+.O.O.h h ,.@.3.O.O.@.O.@.@.$.O.O.O.v.@.@.@.+.O.O.v y @ @.X.O.O. XR.@.@.O.O.A.h h @.@.O.O.f.@.O.z t @.O.",
"} w.!.!.p p i.} O.d z O.} p p f y ( O.4.} } @.} } O.h.} O.} r.} } } O.} } i.O.B i p } } }.!.O.O.O.} S.y f u y [ } j.a.O.p p O.O.",
"} w.!.!.p p i.} O.d z O.} p p f y ( O.4.} } @.} } O.h.} O.} r.} } } +.} } i.O.B i z } } }.!.O.O.O.} S.y f u y [ } j.a.O.p p O.O.",
"! ! W ! 5 , G ! O., 1 ! ~ , , G >.&.! -.2X2X! ! ! ! =.! O.! >.! :.,.,.! ! >.! < , 1 ! ! oXM.O.O.O.O.O.H H , , Q ! =.! O.< 1 ! ~ ",
"O.a.} } i d i.@.O.d p O.} p p i.} ( 0.5.5X5X@.} O.O.h.} O.O.i.} a.@.@.O.O.i.a.V p p O.O.~.!.w.O.O.O.J.q.a.p p } O.x.a.O.p i @.} ",
"G.J.D.J.> Z I.S.O.Z D S.D.S S J.D.7.J.7.yXyX8.D.D.J.P.F.O.G.G.J.G.J.G.G.G.M.G.D C 7 G.G.1X<XS.J.O.G.B.D.J.S S z.G.OXS.O.D S J.D.",
"O.O.} O.0.} p d O.} i.O.} d d }.{.,.O.3.qXqX@.} O.O.h.} O.O. .O.@.@.@.} } h d O qXqXO.O.}.[.O.O.O.O.A.} O.h h { O.j.} O.p p O.} ",
"O.a.[ } q.} u s O.} p.} [ s s Y.W.( { ) 5X5X+.' } } i.[ O.O.] } O.O.+.O.O.r s + 5X5XO.O.!.!.} } O.O.S.O.w.y r [ O.y.a.O.r u O.[ ",
"} w.[ O.r.O.z p O.O.i.@.} p p ~.!.<.} 3.8X8X@.} } O.h.} O.} r.} } } O.p p i.} V 8XwX} } }.!.O.O.O.} S.y p @.O.} } x p O.O.r.O.O.",
"} w.[ O.r.O.z p O.O.i.@.} p p ~.!.<.} 3.8X8XO.} } O.h.} O.} r.} } } O.p p i.} V 8XwX} } }.!.O.O.O.} S.y p @.O.} } x p O.O.r.O.O.",
"    } } w.O.).~.O.y l } } p y r y ( } 4.5X5X@.} } } h.} O.O.d.}  .O.@.} } r.} V 5X8XO.O.}.!.} } O.O.k.d g O.} pXsXl p O.} s.O.} ",
"    [ } q.@.~.^.O.p v O.} d d y y ( X.5.8X8X@.O.i.} h.} O.O.r.} @.O.+.O.O.z.@.V qXqXO.O.[.R.} } O.O.D.y z O.{ sXsXx z O.} r.O.} ",
"    $.j.g.j.c.i.O.v C h.j.p.i.t v %X;X=Xi.i.rX0Xz.j.S.p.O.j.x.j.j.h.#.j.j.rX0X;.j.f.;X;Xx.$.h.j.D j.I.v x h.z.XX;XC x O.j.g.j.j.",
"    O.} 0.O.r.O.O.d z @.[ @.@.z y +X}.#X@.@.qX8X} O.i.} O.O. .} @.@.@.} } 0XqX7.} i.!.!.O.@.@.O.O.O.A.h z @.@.].!.z p O.O.q.} q.",
"    O.O.O.O.O.O.O.O.O.O.O.O.O.O.O.O.O.O.O.O.O.O.O.O.O.O.O.O.O.O.O.O.O.O.O.O.O.O.O.O.O.O.O.O.O.O.O.O.O.O.O.O.O.O.O.O.O.O.O.O.O.. ",
"    } O.r.} r.O.O.d z d p !.!.s d 4 p 3 !.!.7X8X7XqXr.} O.} r.} } } a.8X8Xj.w.x }.].!.!.} } } O.O.} S.y u W.!.!.!.j.a.O.@.}     ",
"      @.} 0.t.0.O.y i p i ~.~.f z 5 u 6 ).).qX5XqX5Xg.r.O.@.p.a.r. .i.8X8Xj.r.x }.).~.~.r.a.r.r.O.@.H.z p }.}.^.~.g.r.O.r.r.    ",
"        [ [ w.[ O.} i.d p !.!.!.!.2 u 6 p p @.O.a.} qX8XO.8XqX7X5XO.@.a.w.a.} k } @.} } } } O.} # u C z m sXsX{ } j.} O.} r.    ",
"        X.q.t.r.O.q.p.y t W.W.E.!.: i 3 u u O.w.} } 5X5XO.5XwX8X5Xq.} r.a.r.0.x q.s.} 0.} } 0.} # u C u y sXsXo.r.u.q.O.} ]     ",
"        q.{ r.O.O.} i.[ [ sXsX~.!.( } 3.p p h u } } i.[ O.[ O.{ w.{ +.O.O.i.} V p u z z w.} u u F } D.[ r.w.q.i.O.j.} %         ",
"        [ } i.} O.} i.} [ sXsX^.W.<.O.3.p p h y } O.h.O.O.O.X.O.@.o.@.O.O.d.} B u p y y  .O.p p F } J.} [ [ } [ } z.} %         ",
"            m.0.O.0.y.u p u u /.~.OX).&X~.~.p u p p b O.O.p i p i z j p p z p O u u r.r.r.r.t.r.2.}.-XsXiXr.0.w.0.    w         ",
"            @.} O.O.r.d g p p ~.!.+X!.#X!.!.h s y y v p O.p p d p p h p p p g O i p } } @.{ } O.6.!.1XsXsX} O.} }               ",
"        T ^ M U O.Y Y U K U U - > = > < K.K.E L uXuXT Y O.U Y K Y P L U U Y U > Y Y U U S.U.L.K.8 U ^ ~ / N U R U               ",
"        0.} w.O.O.O.p.w.O.O.O.p u 2 u 3 !.!.@.O.sXsXi.} O.O.X.O.X.O.@.O.O.i.w.O.a.i.O.O.}.[.}.].F O.S.[ a.} O.} O.              ",
"        c.k.L.k.O.i.l.p.y.p.p.c C : z 9 '.'.h.h.pXiX9.p.O.p.f.p.f.h.b.k.k.b.$.O.i.y.i.i.'.,X).'.&.p.I.p.@.A.k.l.k.              ",
"                e w.p.} } O.O.sXsX: p 3 !.!.[.n.^.{.j.} O.O.r.} @.O.[ sXsXp.@.O.^.!.!.!.{.[.} @.F O.S.} }                       ",
"                  q.r.a. .r.r.iXsX1 p > }.~.].W.~.!.j.q.O.r.r.} r.O.p.sXsXl.O.O.)._.}.}.~.!.0.i.G w.H.r.O.                      ",
"                          } } @.} <.O.4.} } O.} !.!.'.!.O.!.].!.].[.[.!.!..X}.*.sXsX} } @.} } a.      @.{                       ",
"                          } } O.} <.O.4.} } @.} !.!.'.!.O.!.].!.].[.[.!.!..X}.*.sXsX} } @.{ } a.      @.{                       ",
"                                  / w.A.O.O.O.} } } i.[ O.O.r.} w.pXsXO.O. .} O.} s.O.O.} O.O.q.                                ",
"                                  2.a.4.O.O.@.} O.O.h.} O.O.X.O.O.sXsXO.O.i.@.O.O.X.O.O.@.+.@.}                                 ",
"                                        0.0.    w.0.y.0.O.0.r.0.r.r.q.0.0.j.r.O.r.r.0.0.                                        ",
"                                        O.O.    } { i.@.O.O.a.{ @.o.o.O.O.a.O.O.O.} O.O.                                        ",
"                                                                                                                                "
};
