/* XPM */
static char *_488349008784b1acb2fe14f69524deanzJxqbmzxjkeFhwo[] = {
/* columns rows colors chars-per-pixel */
"64 64 132 2 ",
"   c None",
".  c black",
"X  c #000001",
"o  c #010001",
"O  c #000101",
"+  c #010101",
"@  c #020101",
"#  c #020201",
"$  c #030301",
"%  c #000002",
"&  c #000102",
"*  c #010102",
"=  c #020202",
"-  c gray1",
";  c #010004",
":  c #000109",
">  c #09192D",
",  c #162E37",
"<  c #4D463D",
"1  c #51473E",
"2  c #50483E",
"3  c #72513F",
"4  c #1B4367",
"5  c #1D4264",
"6  c #1E4365",
"7  c #1B456A",
"8  c #454544",
"9  c gray27",
"0  c #714F43",
"q  c #715045",
"w  c #2CE370",
"e  c #2EE573",
"r  c #0B67AA",
"t  c #0E79AB",
"y  c #0D79AD",
"u  c #1B73B4",
"i  c #1773BA",
"p  c #1575B9",
"a  c #1774BA",
"s  c #1674BB",
"d  c #1576BA",
"f  c #1774BC",
"g  c #1575BF",
"h  c #1674BF",
"j  c #1A73BA",
"k  c #1874B9",
"l  c #1974B9",
"z  c #1874BA",
"x  c #1875BA",
"c  c #1875BB",
"v  c #1975BB",
"b  c #1474C2",
"n  c #33838E",
"m  c #209FCC",
"M  c #1AA5C9",
"N  c #18C3DC",
"B  c #20C6DE",
"V  c #1DC7E0",
"C  c #1FC6E1",
"Z  c #22C5E1",
"A  c #34DFF9",
"S  c #29E6FA",
"D  c #2FE5FA",
"F  c #2DE2FD",
"G  c #2FE2FD",
"H  c #2FE3FD",
"J  c #2FE2FE",
"K  c #2EE3FE",
"L  c #2FE3FE",
"P  c #2AE5FC",
"I  c #2DE4FD",
"U  c #2FE4FD",
"Y  c #2CE4FF",
"T  c #2EE4FE",
"R  c #2FE4FE",
"E  c #2FE4FF",
"W  c #33E0F6",
"Q  c #31E5FB",
"!  c #33E1FD",
"~  c #31E2FD",
"^  c #31E2FE",
"/  c #31E2FF",
"(  c #30E3FF",
")  c #31E3FF",
"_  c #36E1FD",
"`  c #34E0FF",
"'  c #35E2FE",
"]  c #34E2FF",
"[  c #31E4FD",
"{  c #31E5FE",
"}  c #36E4FD",
"|  c #39E1FE",
" . c #D7B98B",
".. c #D9BA8B",
"X. c #D9BB8F",
"o. c #FCD8A6",
"O. c #FCD9A7",
"+. c #F7D8AB",
"@. c #F7D9AD",
"#. c #F8D8A8",
"$. c #F8D8A9",
"%. c #F8D9A9",
"&. c #F9D9AA",
"*. c #FADAAB",
"=. c #FBDBAB",
"-. c #FDDAA9",
";. c #FDD9AB",
":. c #FED9AB",
">. c #FCDAAB",
",. c #FBDBAC",
"<. c #FBDAAD",
"1. c #FBDBAE",
"2. c #FDD9AD",
"3. c #FED8AC",
"4. c #FCDAAC",
"5. c #FDDAAC",
"6. c #FDDBAC",
"7. c #FCDAAD",
"8. c #FEDAAC",
"9. c #FBDCAC",
"0. c #FCDCAD",
"q. c #FEDCAD",
"w. c #FCDCB1",
"e. c #FCDDB4",
"r. c #ECECEC",
"t. c #EEEEEE",
"y. c gray94",
"u. c #F6F6F6",
"i. c #F9F9F9",
"p. c #FBFBFB",
"a. c #FEFEFD",
"s. c white",
/* pixels */
"                                                                                                                                ",
"                                                                                                                                ",
"                                                                                                                                ",
"                                                                                                                                ",
"                                                                                                                                ",
"                                                                                                                                ",
"                                                                                                                                ",
"                                                                                                                                ",
"                                                                                                                                ",
"                                                                                                                                ",
"                                                                                                                                ",
"                                                                                                                                ",
"                                                                                                                                ",
"                                                                                                                                ",
"                                                                                                                                ",
"                                                                                                                                ",
"                                                                                                                                ",
"                                                                                                                                ",
"                                                                                                                                ",
"                                                                                                                                ",
"                                                                  .                                                             ",
"                                                      .         . a .                                                           ",
"                                                      . .       ' ) .                                                           ",
"                                                    . S ' b . F D U a . . . h                                                   ",
"                                                    . U } Q { F F { ) u F { h                                                   ",
"                                              . . . . ) | ) . . . . ' ' F ) h                                                   ",
"                                              4 M V V Z 1 2 X... .X.2 < B r .                                                   ",
"                                                5 U ) . w.. . . . . . 6.. U P N a .                                             ",
"                                                8 h U . . i c a c c c . . U ) t .                                               ",
"                                              . n U U . . . . *.6.. . . . { U >                                                 ",
"                                              : m W . *.p.. p.. . p.. u.*.. A ,                                                 ",
"                                                5 U . *.s.s.s.. . s.s.p.9.. U y .                                               ",
"                                                8 F . 1.. . . 6.-.. . . q.. U >                                                 ",
"                                                7 { . O.w.-.6.. @.1.-.*.O.. c                                                   ",
"                                                  . j . q.w . . . . 6.*.. F c                                                   ",
"                                                    . . e.6.e *.1.6.6.+.. . .                                                   ",
"                                                        . . 6.*.-.6.. .                                                         ",
"                                                      . t.y.. . . . y.t..                                                       ",
"                                                    . s.. s.s.; . s.s.. s..                                                     ",
"                                                    . s.. s.. ) F . s.. s..                                                     ",
"                                                    . . . s.. . . . s.. . .                                                     ",
"                                                        . . 0 3 q 0 . .                                                         ",
"                                                            . . . .                                                             ",
"                                                            . . . .                                                             ",
"                                                                                                                                ",
"                                                                                                                                ",
"                                                                                                                                ",
"                                                                                                                                ",
"                                                                                                                                ",
"                                                                                                                                ",
"                                                                                                                                ",
"                                                                                                                                ",
"                                                                                                                                ",
"                                                                                                                                ",
"                                                                                                                                ",
"                                                                                                                                ",
"                                                                                                                                ",
"                                                                                                                                ",
"                                                                                                                                ",
"                                                                                                                                ",
"                                                                                                                                ",
"                                                                                                                                ",
"                                                                                                                                ",
"                                                                                                                                "
};
