/* XPM */
static char *_865b3e8c50745109f62c42dbf1c39734xf9MrhyOOHmoBSB[] = {
/* columns rows colors chars-per-pixel */
"64 64 209 2 ",
"   c None",
".  c #070606",
"X  c #0C0D0C",
"o  c #070908",
"O  c #110F0C",
"+  c #190F0E",
"@  c #15150C",
"#  c #19150E",
"$  c #0C0D10",
"%  c #0F1414",
"&  c #0D1919",
"*  c #141B1D",
"=  c #1D1D1C",
"-  c #161615",
";  c #231C18",
":  c #251B13",
">  c #1D241B",
",  c #26241A",
"<  c #061828",
"1  c #071F25",
"2  c #161E20",
"3  c #1B2323",
"4  c #1C2529",
"5  c #162728",
"6  c #1E2A31",
"7  c #242524",
"8  c #2A2622",
"9  c #2A2A25",
"0  c #252629",
"q  c #252A2D",
"w  c #2B2B2B",
"e  c #282827",
"r  c #322E2B",
"t  c #362C25",
"y  c #2D302F",
"u  c #37322C",
"i  c #242C32",
"p  c #2B2F31",
"a  c #2E3233",
"s  c #223A3F",
"d  c #27343D",
"f  c #343333",
"g  c #34393C",
"h  c #3C3E3C",
"j  c #373735",
"k  c #413F3D",
"l  c #3F403A",
"z  c #48463E",
"x  c #594736",
"c  c #273641",
"v  c #343C40",
"b  c #2B424A",
"n  c #3A4349",
"m  c #374245",
"M  c #334D5A",
"N  c #36565E",
"B  c #315664",
"V  c #386C7D",
"C  c #444645",
"Z  c #544D48",
"A  c #59544C",
"S  c #414E57",
"D  c #475256",
"F  c #4A5356",
"G  c #545858",
"H  c #56605F",
"J  c #475763",
"K  c #555F63",
"L  c #586468",
"P  c #426972",
"I  c #666868",
"U  c #7A766D",
"Y  c #6C7577",
"T  c #757A79",
"R  c #6F6E6E",
"E  c #8D5A2F",
"W  c #95643A",
"Q  c #926135",
"!  c #8B6D56",
"~  c #867C76",
"^  c #56D062",
"/  c #D6AB07",
"(  c #A88874",
")  c #537F89",
"_  c #7F8589",
"`  c #6F969F",
"'  c #63868E",
"]  c #7E99A4",
"[  c #79A8B8",
"{  c #71D0DF",
"}  c #6AD7E8",
"|  c #76E4F5",
" . c #66E1EC",
".. c #858C92",
"X. c #9F9690",
"o. c #918E8A",
"O. c #AA9C8C",
"+. c #849BA5",
"@. c #959AA0",
"#. c #9BAEAD",
"$. c #87ACBB",
"%. c #ABAFB0",
"&. c #A8B2B6",
"*. c #B3BABB",
"=. c #BCBDB7",
"-. c #A3A7AA",
";. c #CFAC8B",
":. c #CCAF9B",
">. c #D3B090",
",. c #E2BB99",
"<. c #C8B7A9",
"1. c #D3BCA8",
"2. c #C1B7B1",
"3. c #C1C38F",
"4. c #C3C4BF",
"5. c #D9C6B7",
"6. c #EAC9AD",
"7. c #F4CFAE",
"8. c #E2C9B8",
"9. c #F2CEB5",
"0. c #EDD3BD",
"q. c #E2D2BE",
"w. c #F5D2B5",
"e. c #F3D3BC",
"r. c #F8D7BC",
"t. c #8CAFC1",
"y. c #8ABBCF",
"u. c #95B5C3",
"i. c #96BCCD",
"p. c #9BB9C8",
"a. c #9BC2CD",
"s. c #88C8D8",
"d. c #90CADC",
"f. c #9BCADA",
"g. c #9AC6D9",
"h. c #B7C2C4",
"j. c #A6C9D4",
"k. c #ACD2DE",
"l. c #94CCE2",
"z. c #9DD4E4",
"x. c #9EDBEA",
"c. c #97D4E7",
"v. c #9DDAF0",
"b. c #8CD1E9",
"n. c #A9CFE0",
"m. c #A3D7EA",
"M. c #A4DBEC",
"N. c #ADDDEB",
"B. c #A7D9E5",
"V. c #B4D6E4",
"C. c #B2DBED",
"Z. c #B9DAE8",
"A. c #ACDEF3",
"S. c #A0D9F0",
"D. c #B2DFF2",
"F. c #A4E2EF",
"G. c #AAE1ED",
"H. c #B4E5EE",
"J. c #BFE6EF",
"K. c #A7E1F3",
"L. c #ACE3F3",
"P. c #ACE2F9",
"I. c #ABE9F7",
"U. c #B4E5F3",
"Y. c #BAE5F5",
"T. c #B4EAF5",
"R. c #B9EAF5",
"E. c #B3E6F9",
"W. c #BBE6F9",
"Q. c #B5EBFB",
"!. c #BCECFA",
"~. c #BBF1FA",
"^. c #DCCDC3",
"/. c #DED2C4",
"(. c #D9D3CA",
"). c #CAD2D6",
"_. c #D8DBD7",
"`. c #C9CECC",
"'. c #E5D4C4",
"]. c #EAD4C3",
"[. c #E4D9CE",
"{. c #ECD9CB",
"}. c #E6D7CA",
"|. c #F3D6C0",
" X c #F5DAC3",
".X c #FADCC3",
"XX c #F4DCCB",
"oX c #FBDDC8",
"OX c #F6D4C5",
"+X c #EED4C9",
"@X c #F5E1CB",
"#X c #FBE2CA",
"$X c #F8E1C6",
"%X c #F7E3D1",
"&X c #D4DEE5",
"*X c #DDE4EA",
"=X c #C4EAFA",
"-X c #C3EBF3",
";X c #C4F1FD",
":X c #C6F7FD",
">X c #E2E6EB",
",X c #E4EAED",
"<X c #E4E9EA",
"1X c #E5EDF3",
"2X c #E6EBF2",
"3X c #EBF1F4",
"4X c #EAF2F7",
"5X c #F3F6F6",
"6X c #F6F9FB",
/* pixels */
"                                                                                                                                ",
"                                                                                                                                ",
"                                                                                                                                ",
"                                                                                                                                ",
"                                                                                                                                ",
"                                                                                                                                ",
"                                                                                                                                ",
"                                                                                                                                ",
"                                                                                                                                ",
"                                                      a                   g T                                                   ",
"                                                    & s.4 h.            2 T.u.                                                  ",
"                                                    q I.U.V.          J H.=XZ.                                                  ",
"                                                    4 c.P.K.m &.    6 Q.I.L.u.                                                  ",
"                                            H       D K.Q.E.E.=Xh.] ;X:X!.;XV.      ..S                                         ",
"                                          z.i.i *.  q x.U.K.N.Y.5 ~.Q.!.P.U.] `.  d N Q.v                                       ",
"                                        A b P.L.U.* 4 m.!.m.W.G.;X=XF.T.M.Y.N n a.T.T.a.h                                       ",
"                                          $ x.K.P.M.U.F.B.7 p q f a a g n.U.U.B.U.T.!.i                                         ",
"                                          _.) x.M.x.Y.B U ;..X>.|.6.w.r.u u.c.T.z.E.m.I                                         ",
"                                            o y.Y.U.C./.XXr.0. X{..XoX@X.X{.j.J.!.-XL                                           ",
"                                            O ] d.m.u.:. X;.e.<./.5.].'.'.XX+.R.N.!.q                                           ",
"                                          *.X f.Q.E.9  Xw 8 r J D.W.C.=XC.r f !.!.H.L                                           ",
"                                      &.d b s.m.S.B.7 : j.t.k.d j = w r j #Xu Y.L.E.U.c n                                       ",
"                                    % N.x.A.P.U.!.Q.9 oX{.'.%X5.XXXX.X%X#XoX8 ;XN.!.~.R.:XZ.Y                                   ",
"                                    O l.l.m.c.A.L.m.w 0.8 w.XXU  X2.XX.Xh XXj U.Q.Y.E.Q.!.Q.9                                   ",
"                                      . 5 M d.L.Q.M.7 r 9 ; r = XX% Z Z z 8 X !.l.T.z.f.p.9                                     ",
"                                          Z . f.C.7 C 9 1Xq *XF {.v ,Xa 1Xh f p A.C.n >                                         ",
"                                            w p.' 8.7 5.R 2X5Xw ].I ,X3XT Z . '.P s T                                           ",
"                                            # g.+.q.= w.}.7 w e.@XoXa a }.oXf {.$.!.C                                           ",
"                                          T $.m.d.s # 6.w.,.|.+ ].~ XXw..XoX7 c z.P.f.                                          ",
"                                          * c.P.K.K.8 9.OXe.XX0.,  X XoX.XoXr !.!.!.:XL                                         ",
"                                          1 b.v.[ m.; 7.e.9 e.9.0.e. Xh #X#Xf Q.B.T.F.                                          ",
"                                          E.1 5 g.m.t w.].^., , 7 @ 8 ^.OX$Xf Q.` M ) Q.I                                       ",
"                                            % # $.M.i.5.].r.$X^ |.|.oXe.{.(.V.!.b                                               ",
"                                            < D f.P.c.0 [.8.r.3..X,..X1.X.F z.T.[ L                                             ",
"                                              * z.f.@ = oX8.|.0.XX6. X2.oXj & Y.Y.                                              ",
"                                                . , # X.oXX G o z o v X oXA _ 3 =                                               ",
"                                                  I 1.oXoXoX3 3 { ..= oX XoXU <                                                 ",
"                                                  T O.oXoXoX= o  .I y 5.r..Xk                                                   ",
"                                                  6XX |.oXw 4X5 | #.4XA  X@XT                                                   ",
"                                                  I ).2 0 *X0 & | ..w &.7 q m                                                   ",
"                                                  (.C G 7 q 3X2 | _ ).a m Y                                                     ",
"                                                    _.I Y 2X2X7 } ..>X4Xg =.5X                                                  ",
"                                                      4.X.>X5X% V L 2X3X- 5X6X                                                  ",
"                                                        %.,X<Xx / , 1X5Xj                                                       ",
"                                                        %.>X).; = + &X<Xf                                                       ",
"                                                        -.>X, W Q W w 5Xa                                                       ",
"                                                        *.>X, E q W 3 1Xh                                                       ",
"                                                        l X : W = E q =                                                         ",
"                                                            t Q 7 Q g                                                           ",
"                                                            , ( 7 ! 0                                                           ",
"                                                          X w 7 f 7 7 j                                                         ",
"                                                        = 7 7 7 G w w w w                                                       ",
"                                                                                                                                ",
"                                                                                                                                ",
"                                                                                                                                ",
"                                                                                                                                ",
"                                                                                                                                ",
"                                                                                                                                ",
"                                                                                                                                ",
"                                                                                                                                ",
"                                                                                                                                ",
"                                                                                                                                ",
"                                                                                                                                ",
"                                                                                                                                "
};
