/* XPM */
static char *_142e1952dcb41d1dc9c098cd02562afDhcGOZbxeZFNZKVs[] = {
/* columns rows colors chars-per-pixel */
"64 64 208 2 ",
"   c #26241E",
".  c #29241D",
"X  c #2C291C",
"o  c #313313",
"O  c #292621",
"+  c #2C2923",
"@  c #322D26",
"#  c #332E29",
"$  c #363324",
"%  c #3B3926",
"&  c #36312B",
"*  c #3A342D",
"=  c #3D382E",
"-  c #373130",
";  c #3B3631",
":  c #3E3931",
">  c #423B2F",
",  c #423C34",
"<  c #443F38",
"1  c #3F401B",
"2  c #4A550F",
"3  c #44481B",
"4  c #4C5512",
"5  c #545D1B",
"6  c #5A680F",
"7  c #566017",
"8  c #5E6B16",
"9  c #57621D",
"0  c #5D6B1A",
"q  c #616D15",
"w  c #616D1D",
"e  c #66721C",
"r  c #697919",
"t  c #474926",
"y  c #474B2A",
"u  c #4F5425",
"i  c #4F512D",
"p  c #535B23",
"a  c #54582E",
"s  c #474136",
"d  c #494336",
"f  c #4F4C36",
"g  c #46423A",
"h  c #4B443B",
"j  c #46483C",
"k  c #4E493E",
"l  c #514B3D",
"z  c #4E5031",
"x  c #565533",
"c  c #5A5D33",
"v  c #57543A",
"b  c #585A38",
"n  c #5B6423",
"m  c #5D6429",
"M  c #5F6631",
"N  c #636C24",
"B  c #646B29",
"V  c #657223",
"C  c #6A7523",
"Z  c #6C7A23",
"A  c #66712B",
"S  c #6B732C",
"D  c #6F792B",
"F  c #727C29",
"G  c #646733",
"H  c #646935",
"J  c #686D34",
"K  c #64653A",
"L  c #6B6D3B",
"P  c #6B7235",
"I  c #747C34",
"U  c #747B3D",
"Y  c #4B4641",
"T  c #4F4942",
"R  c #534D43",
"E  c #584E43",
"W  c #534E49",
"Q  c #555144",
"!  c #595246",
"~  c #595846",
"^  c #56514A",
"/  c #5C554C",
"(  c #5E584D",
")  c #5C5552",
"_  c #5F5951",
"`  c #615A4E",
"'  c #635C53",
"]  c #635D59",
"[  c #685F58",
"{  c #636542",
"}  c #6B6D43",
"|  c #67644C",
" . c #69694D",
".. c #727446",
"X. c #737B44",
"o. c #7A7E45",
"O. c #77794C",
"+. c #666155",
"@. c #6A6355",
"#. c #6E6956",
"$. c #66615A",
"%. c #6C655A",
"&. c #6F695B",
"*. c #706757",
"=. c #716A56",
"-. c #71675A",
";. c #726B5C",
":. c #786F5E",
">. c #727255",
",. c #7A7956",
"<. c #74705E",
"1. c #7D7B5B",
"2. c #6D6760",
"3. c #6F6861",
"4. c #736D62",
"5. c #786F63",
"6. c #746F69",
"7. c #786F6F",
"8. c #777164",
"9. c #797366",
"0. c #7D7A65",
"q. c #75716C",
"w. c #7C756A",
"e. c #7E796C",
"r. c #7A7472",
"t. c #7E7972",
"y. c #807767",
"u. c #827A65",
"i. c #80776B",
"p. c #817A6E",
"a. c #837D71",
"s. c #887F75",
"d. c #837C79",
"f. c #72821B",
"g. c #6F8021",
"h. c #748324",
"j. c #788725",
"k. c #7B8D24",
"l. c #74812B",
"z. c #7D8B2C",
"x. c #7E9021",
"c. c #7F922B",
"v. c #7A8535",
"b. c #7F8C35",
"n. c #7C843C",
"m. c #7E824B",
"M. c #879C1B",
"N. c #828D2F",
"B. c #859726",
"V. c #859A24",
"C. c #84932D",
"Z. c #8A9C29",
"A. c #848E33",
"S. c #858D3C",
"D. c #859533",
"F. c #899635",
"G. c #84923B",
"H. c #8C9A3D",
"J. c #909B3C",
"K. c #94A13C",
"L. c #9AA83A",
"P. c #9BAB3A",
"I. c #858E43",
"U. c #898D41",
"Y. c #82854C",
"T. c #82894E",
"R. c #8B8E4E",
"E. c #889344",
"W. c #8D9A41",
"Q. c #8D984B",
"!. c #949C4B",
"~. c #838659",
"^. c #89905C",
"/. c #919554",
"(. c #969B57",
"). c #9AA542",
"_. c #9CA252",
"`. c #9FAA52",
"'. c #A2AB4E",
"]. c #888464",
"[. c #9B996B",
"{. c #868175",
"}. c #898376",
"|. c #85817A",
" X c #8B857C",
".X c #8F897D",
"XX c #959777",
"oX c #9EA862",
"OX c #A4A864",
"+X c #8D8780",
"@X c #8F8981",
"#X c #928C84",
"$X c #948E89",
"%X c #959285",
"&X c #9A9585",
"*X c #96938B",
"=X c #9B958C",
"-X c #9D998E",
";X c #9D9793",
":X c #979B91",
">X c #9D9A91",
",X c #9A9D95",
"<X c #A19A92",
"1X c #A39F9A",
"2X c #A6A198",
"3X c #AFB191",
"4X c #A197A0",
"5X c #B2ADA9",
/* pixels */
"p.R R R p.a.R R p.p.R R p.R R R R p.p.p.R R p.p.p.R R p.p.R p.R p.p.p.R R R R R p.p.R R p.p.p.p.p.R R R p.p.p.R p.p.R p.p.R p.R ",
"p.p.p.p.p.a.p.a.p.E.6 p.p.a.p.p.p.p.&X&X-X-X-X&X&X:X;X<X:X-Xj * 5X:X,X:X:X,X,X,X>X=X*X,XXX'.I L._.F.U ~.&XR.v.XX^.K &X[._.=X=X=X",
"U { s.p.p.{.&.G D d.9.a.d.{ ~.a.a.w.p.p.a.a.w.e.a.p.9.9.a.8.%.* =Xa.a.a.a.a.a.a.a.w.a.p.p.S.( Z ] e.9.9.e.%.o XX{.a.a.a.} a.a.a.",
"a.u.p.p.8.w.w.R N. Xa.{.9.+.I.a.a.w.p.a.a.a.a.a.a.p.e.p.w.{.4.* ;Xa.{.a.a.a.a.a.a.e.a.a.a.C.@.s.e.p.p.8.a.9.l -X+Xa.a.9.O.a.a.a.",
"4.e.p.p.w.w.w.E x..Xe.a.a.u.G.a.a.a.a.a.p.w.9.4.p.p.p.p.w.e.;.* &Xp.a.a.a.a.a.a.a.a.a.9.e.l./ p.p.p.i.e.e.;.Q &X.Xp.a.a.T.a.a.a.",
"e.p.p.i.p.e.e.R i #Xa.a.e.s.n.a.a.].p.a.p.p.i.i.w.e.i.p.i.a.-.* >Xa.a.a.a.9.a.a.e.w.a.a.p.,.+.0.p.i.p.p.a.-.R ;X.Xa.a.t.U a.a.e.",
"e.1.e.:.e.;.p.h @ %X}.}.a.m.S 9.a./.w.w.i.a.a.e.e.e.4.e.;.{.@.* =X{.{.a.w.w.9.a.p.e.w.i.p.a.e.w.U.6.e.e.a.*.d =X#X{.a.e.r 9.8.a.",
"e.t.e.e.p.9.e.l * =Xe.{.a._.[ p.p.m.i.i.9.p.e.e.e.e.e.p.w.e.%.& -Xp.{.a.a.a.a.p.e.p.p.p.e.e.e.w.[ 0.a.e.e.-.g >X}.{.a.u.` a.p.e.",
"4.:.(.o.e.e.w.R * ;Xa.a.a.G.a.p.w.Q.6.9.w.e.w.9.5.e.w.e.e.e.@.* >Xa.a.a.p.p.p.w.w.:.w.w.e.e.w.5.a.B e.e.w.@., =X#Xa.a.].0.p.e.(.",
"9.,.S.~ ;.e.#.l x -X6.a.u.8 e.8.L.C.D.e.e.e.9.9.9.i.:.:.i.&.@.* =X9.a.i.a.e.w.4.w.p.e.e.e.9.9.r.0.~ ;.:.&.-.z ;X.Xa.p.,.e.0./.B.",
"&.@.Z R =.&.-.` Z ;X-.:.5.) :.;.r ~ V.V.=.-.%.%.%.%.| &.#.-.#.& -X-.:.4.:.;.;.@.-.-.-.-.-.-.%.#.L.k =.-.-.-.S =X:.:.:.-.:.:.P / ",
"&.x g.Q ( / ( L Z.d %.@.[ E [ [ v ` G Z R ` ' ' ' ' ' ` / ` d * d @.@.@.` l R R l l h h l h f ^.c.: h h R y Z.d h / / R R R h R ",
"V l.D w O P H.k.e A.e C b * X & x p J.K.3 & & & : & & * * , * * * * * * * * & , : & & t + $ V h.Z q + u W.k.V A.b.S m * + * v a ",
"N H.Q.e.W.l.C e 0.t.t.!.t.4X>X>X>X-Xn W.$X;X:X-X-X=X>X>X>X<X=X-X;X;X1X>X-X-X<X>X=Xg s ^ >X>Xm H.E.e.W.l.C e 0.t.t.!.t.;X=X>X>X;X",
"}.H R.p.6.6.6.4.p.a.}.} !.a.a.}.{.a.G.q k &Xe.a.a.a.e.a.a.a.a.w.a.a.a.a.a.a.a.w.w.;., ^  Xe.{.{ Y.w.0.0.0.0.w.a.a.| E.a.a.p.9.9.",
"p.a.F.s.{.a.p.a.9.p.a.p.B.9.p.a.p.9.)., h {.a.a.a.{.a.}.p.p.a.9.a.p.p.p.9.p.a.p.9.#.R +Xs.a.a.a.o.a.{.a.p.a.9.a.a.a.G.8.p.a.p.9.",
"a.a.V.8.p.p.8.p.a.p.p.i.Z a.p.e.i.8.D., Y }.a.a.a.p.9.p.p.9.a.p.p.p.p.p.p.p.e.i.9.;.E @X}.a.a.p.U 9.p.a.9.a.a.p.p.u.U e.e.w.p.9.",
"a.a.V.8.a.a.a.a.e.e.p.y.n e.w.i.i.i.D.> Y .Xa.a.a.p.a.a.a.a.p.e.w.p.p.4.w.e.i.i.p.;.R #X.Xa.a.p.P a.a.a.a.p.e.e.p.u.+.w.e.p.i.p.",
"w.F.l.8.a.{.p.e.e.i.w.4.:.9.e.a.a.4.n.: * }.a.a.a.a.a.a.a.p.e.i.i.<.:.:.w.e.a.a.:.@.R .X Xp.a.C.L p.a.p.e.w.i.i.4.4.4.w.e.a.a.4.",
"a.S.%.a.p.e.e.p.e.p.e.a.e.e.p.a.w.w.U : $ .X{.a.a.a.a.p.e.p.p.p.p.e.a.e.e.e.w.w.w.-.l 2X.X{.p.C.e.p.p.e.1.e.p.p.e.a.p.e.e.w.w.e.",
"a.X.' a.e.i.K e.8.9.9.e.w.p.w.e.i.9.` h Y.}.a.a.a.w.a.i.p.p.w.9.9.e.0.w.p.e.w.p.8.&.k 2X.Xa.p.Z a.a.t.L.+.4.9.9.w.w.w.p.w.e.p.;.",
"w.X.e.e.w.e.T.e.e.9.;.e.w.i.9.e.p.9.( k G {.-.e.a.e.e.w.p.e.e.e.9.;.i.w.w.9.w.p.;.&.h OXs.8.p.N e.w.e.V.u.w.w.9.;.w.w.w.w.e.p.' ",
"-.;.:.:.-.=.A.-.-.-.@.+.[ o.D.' %.#.&.h N %.8.;.;.;.*.-.#.#.-.-.-.&.&.%.@.%.@.&.#.` k x R :.:.' ;.#.-.M K.-.-.@.%.+.O.J } @.#.&.",
"! ! R R l > L.B.F.f % x c Z e V h Y h d X , ! ! R R R R h h h h h h d d s h h h h d d d , ! ! l R l , L.B.M.* > c a S h.C % d k ",
"Z * * N c.0 m V Z z.V m n N A Z z.0 c * * * & & & & & & & & & & & & & & & & * * * * ; ; ; Z ; & K j.q 8 o r V.q m p B N Z h.j.8 ",
".Xs. X.X X{.}.& ; *X2X Xa.a.|. X Xr.* h #X.X}.{.}..X.X}.}.&.a.& ;X.X.Xa.a.}..X}.s.s.s..X.X}.a. X.X X{. X` * & 1X X Xs.a. X.Xd.* ",
"w.e.e.4.%.9.a.& * 6.s.a.a.a.a.a.a.4.* R }.a.e.w.a.e.8.9.e.9.%.* =Xa.a.a.a.a.a.a.w.p.a.a.a.9.e.p.4.%.9.p.' * * }.a.a.a.a.a.a.4.* ",
"p.a.9.l , 8.%.= : %..Xa.a.9.a.a.a.p.$.R }.p.p.p.a.p.p.a.9.p.;.* -Xa.{.a.a.a.a.a.w.a.p.p.p.w.w.e.` , 6./ : : ; .Xa.e.%.s.a.a.9.Q ",
"e.e.e.e.a., h w./ * e.8.R / a.e.e.* * .Xp.p.e.e.p.a.p.p.p.p.;.* >Xa.a.w.{.{.a.a.a.a.a.p.p.e.p.a.e.a., R p.( * w.6.R / e.e.a.& * ",
"e.p.4.4.w.{.}.:.E * ; * .X}.w.a.p., {.{.a.p.i.i.w.i.p.p.i.a.-.* <Xa.a.a.p.8.a.a.e.e.{.e.p.i.p.e.4.p.}.}.;.R : * * .X{.e.a.a., {.",
"e.e.;.e.e.4.9.9.R # @Xe.a.4.p.a.p.p.p.6.p.w.e.e.e.e.e.p.w.e.-.* >Xp.{.a.p.a.p.p.p.e.e.w.e.e.p.&.e.e.4.w.;.R 2.#Xp.a.4.p.a.p.p.p.",
"w.+.%.e.9.;.w.;.l # @Xp.&.%.[ h {.a.4.4.:.w.e.4.9.a.w.e.e.w.#.* <Xp.a.w.a.p.e.p.a.8.:.%.e.+.+.;.e.8.4.w.;.k *X#Xp.;.%.s g {.a.4.",
"%.w.+.;.&.+.4.' h : 8.6.$.E ' R : 4.%.+.+.e.9.w.9.e.9.9.9.8.#.* >Xw.a.a.a.p.w.9.w.9.e.E %.&.9.%.4.&.+.4.%.h q.6.6.$.E ^ R / 6.%.",
"' ( ( / ! ` / ( d ; ' ( ' ' ' ' _ : +., * &.%.@.%.&.@.-.-.=.;.& =X-.:.4.4.4.-.@.-.-.-.' ' / ( / / / &./ ( h q.' ' ' ' ' ` & : ^ ",
"( ` ( / ( ( ! &.d * h ' ' / %.` ` : * / 4.@.&.&.&.%.&.%.@.;.h * d 5.:.&.#.;.-.;.&.&.%./ ( ( ` / / ( +./ h h s R ' ' ( ` ` ( : ; ",
"* & ; * * * * , * ; * * * * & * * : & & & = & & : & * * * , * * * * * * * * & , & & & ; * & & & & * * : * * * * * * * & * , : & ",
"& * : <  X X X<X=X>X|.|.|.q.: 1X<X>X-X, * 5X<X<X<X=X>X<X<X<X=X-X<X>X<X>X>X>X<X>X-Xd * & & & ; : #X|. X#X=X=X|.|.|.d.g < <X>X-Xs ",
"* g 4.6.R e.a.p.e.9.9.a.a., }.a.p.9.9.` * =X9.w.p.a.w.p.a.a.a.w.p.a.a.p.a.a.a.9.9.&.* & * g 4.6.R e.a.a.w.p.w.8.p.@.9.a.a.9.w.-.",
"; d e.{.e.}.p.a.a.4.w.a.a., p.a.a.e.9.' * >Xa.a.a.{.a.{.a.a.a.9.a.a.p.p.9.a.p.p.9.%.* & * R 4.a.a.{.w.a.a.p.w.9.p.4.p.p.a.p.9.#.",
"< h s.e.w.w.w.9.a.w.e.8.w.4.d p.e.e.e.:.* <Xa.a.a.a.e.i.p.e.a.a.p.e.w.p.e.w.e.e.e.;.* : , d @.w.w.e.w.9.a.w.e.p.w.p.d a.i.e.e.:.",
"%.%.g {.w.p.a.{.a.;.e.p.i.* , e.i.i.p.4.* <Xa.a.a.p.a.a.a.a.a.e.e.p.p.w.w.p.i.p.p.;.* g &.4.d {.9.e.a.a.a.8.w.e.e.' , w.i.i.i.;.",
"9.6.h 9.a.a.p.;.w.p.a.( ' E R %.w.9.9.;.* =Xa.e.a.a.a.a.p.e.e.p.p.8.w.8.w.p.e.w.9.#.* d.9.6.' 8.s.a.a.;.e.i.w.3._ * R h e.p.9.@.",
"4.%.9.T ! e.e.4.4.p.a.h {.p.4.$.9.$.w.;.& <Xa.p.a.e.9.p.e.<.<.p.a.e.e.w.4.e.w.a.e.-.* <X4.%.9.Y R e.e.4.8.a.p.R s.a.:.Y 9.%.e.;.",
"%.4.8.4.9.e.%.( p.9.' a.e.9.%.%.{.%.( ( * >Xp.p.a.w.a.e.p.e.e.9.9.w.e.w.p.w.w.p.;.-.* t.%.%.4.9.w.e.%._ p.9.' p.w.w.%.w.a.%.( ` ",
"' ( ' ` / Q ^ k ' ( ( +.` / / ` ! / ( / # >X8.-.4.;.-.;.-.-.-.-.-.=.=.%.%.&.@.#.#.&.& w.' ( ' ( ( ! E k +.( / &.' / / ( ! / ( / ",
"R ( / R ; ; : / / / ! R : g Q ^ ^ ! / d & , 4.-.5.4.:.:.;.@.-.-.-.;.;.@.@.;.;.-.;.h & < ' ' ! / ; ; , ' ` ( ( ^ : ( ! _ / ( ( h ",
": * * & * ; : & & & & & & & & & * ; * & * * * * * * * & * & & & & & & & & & * * * & * ; ; ; ; & ; ; * & - - & - & & & * * * & & ",
"*X*X#X*X*X*X%X&Xs : 5X;X-X>X>X<X>X<X=X&X<X>X>X-X*X>X>X>X>X&Xg * 5X-X>X>X-X<X X# & * d -XoXI L.).F.U XX&XI.B 3Xm ;XOX`.<X>X>X=X=X",
"e.4.w.w.e.4.:.w.%.: $Xa.e.e.e.e.e.e.8.e.e.e.9.6.w.9.%.6.8.+.& & =Xe.e.e.e.e.e.8.* g s.e.b./ Z ' 8.4.w.8.( F #Xe.e.e.[ e.e.p.8.e.",
"w.w.e.w.w.9.;.9.;.h $Xs.p.w.w.w.w.w.8.w.w.w.e.w.e.%.h 4.4.& ; # #Xe.e.4.e.e.e.e.$.g a.w.D.' e.w.w.9.4.e.R k.#Xe.a.8.' w.w.w.4.w.",
"9.8.9.w.9.9.8.9.@.T *Xa.w.4.e.w.9.9.w.w.9.8.4.9.4.w.8.: , e.4.# T %.d E ! 9.8.k * a.9.8.8 ) 9.w.9.9.9.9.R e  Xw.9.9.1.<.w.<.e.w.",
"8.4.4.4.4.4.4.4.@.h #Xa.9.9.8.%.4.8.4.4.9.4.4.8.;.4.&.w.w.8.@.# : & * w.p.4.8.R w.4.w.6.6.( ;.<.;.4.4.9.h O {.9.8.4.,.8.4.6.H.9.",
";.4.4.4.4.4.4.&.' s +Xe.9.8.6.4.4.4.4.4.4.&.4.4.;.' ;.%.%.4.+.# #X4.9.' 4.8.4.4.4.@.4.;.4.4.4.! =.8.&.4.d # e.4.6.:.O.7.4.4.v.4.",
";.&.@.@.&.%.&.&.( , +Xa.4.4.4.4.4.&.4.@.@./ &./ ' ' &.' ' ' ' + @X&.4._ ] ; 9.4.[ ' +.%.;.' %.>...4.&.&., & t.4.4.%...4.=.>.I +.",
"%.@.+.@.%.' ' @.` , |.e.;.&.;.;.@.' %.%.%.: / / +./ / Q E R ' & $.E / / 6./ & ^ ( R R %.@.@.$.L k ' %.( , y e.[ &.4. .&...f.w @.",
"/ / / / / / / / R : $./ ' ' ( ` ` / ( ( / k R R R R k T / R g @ ^ R R R R R R @ W ; # / / ! / v.< / / / 1 n ' ` ' ` ( ` c h K f.",
"= : : = * : * = * * & * d d , : , , : : : : ; * * & : : * * ; + ; , < , , ; : : @ , * : : : j.A @ = , : b.I * d d , , , , , J 9 ",
"r.q.q.q.6.q.q.6.6.6.q.6.q.q.8.W R ^ W @ @ + O O + @ Y Y Y ^ W W Y Y Y < @ ^ W ^ W + + f + u n 9 u X 5 D Z 5 L p y #   # s y I l.",
"t.3.3.%.%.%.3.3.%.%.%.&.3.%.$.%.4.4.%.%.* O O + & * * ] 3.3.%.%.$.' ' @ # 3.%.;./ & + t.3.4.2 / %.^ ^ W R %.3.#.n.$.%.3.3.3.S 4 ",
"6.[ [ [ %.[ [ [ [ [ ( [ ' ' ' ' [ [ / R : O O ; / $.' $.' [ ' ! / ' ' @ $.[ [ ( / * O $.` [ ) Q ' [ ' ' ' _ ] ' V ' [ [ / ) C t ",
"q.' ' ' _ ! ' ' ! ' ' _ _ _ _ _ _ _ ! Q : O O ; / _ ! ' / E ' / / _ _ @ * _ / ! / > O $.' ' ` s / ' _ _ ' ' ' ' 5 _ ' _ _ ! w # ",
"q.' ' _ / ' _ _ ' / / / / E / / / / / R * & R T # ' ^ _ _ ' ' R / / / . @ / / / / * O $.( ' ) j _ _ ( ' / / / / t / / / / / 0 + ",
"3.) ^ / / / _ / / ^ / / R R R / / / E h * ) ^ R T ] / _ _ R ! / / d k   + ] / , E *   ' _ / 0 g / _ / ! ! / / E R R / / / R 7 O ",
"p.R p.R p.R p.R R R R p.R p.R R R R R p.R R p.R p.p.R R R R p.R p.R R R p.p.R p.R R R R R R R a.p.a.R R R R R p.p.p.R R R R R R "
};
