/* XPM */
static char *_9b525bb37cb43faf70e57fff449f669tntpgLW8nam9XHEn[] = {
/* columns rows colors chars-per-pixel */
"64 64 188 2 ",
"   c #323336",
".  c #2F557D",
"X  c #32557E",
"o  c #505154",
"O  c #3B4F84",
"+  c #364F89",
"@  c #265785",
"#  c #2E5585",
"$  c #265884",
"%  c #2C5983",
"&  c #25568B",
"*  c #2D558B",
"=  c #26588C",
"-  c #2C5B8B",
";  c #335485",
":  c #395383",
">  c #325986",
",  c #32558A",
"<  c #395389",
"1  c #32588E",
"2  c #255693",
"3  c #2C5691",
"4  c #235A93",
"5  c #2B5B93",
"6  c #295D9B",
"7  c #335592",
"8  c #385590",
"9  c #345A94",
"0  c #395D95",
"q  c #355D9B",
"w  c #3A5E9B",
"e  c #2C6299",
"r  c #3C6196",
"t  c #386A96",
"y  c #32619A",
"u  c #3D629C",
"i  c #37689B",
"p  c #386F9D",
"a  c #2E69A2",
"s  c #3D64A3",
"d  c #346AA5",
"f  c #3D6AA5",
"g  c #3566A8",
"h  c #3F67AB",
"j  c #356DAD",
"k  c #3D6AAC",
"l  c #2A72A5",
"z  c #3975AB",
"x  c #3D7AAD",
"c  c #3D66B1",
"v  c #356EB2",
"b  c #3B6BB2",
"n  c #3C6DBC",
"m  c #3471B4",
"M  c #3C72B5",
"N  c #3574B8",
"B  c #3B76B9",
"V  c #3E7CBD",
"C  c #426A92",
"Z  c #41669D",
"A  c #41689F",
"S  c #4266A5",
"D  c #4269A5",
"F  c #4367AB",
"G  c #4964AC",
"H  c #4269AB",
"J  c #4A68AA",
"K  c #4578AD",
"L  c #4B7CAC",
"P  c #527CA5",
"I  c #4467B0",
"U  c #4C66B0",
"Y  c #4269B1",
"T  c #4175B6",
"R  c #487FB0",
"E  c #4479BC",
"W  c #1B66E4",
"Q  c #4481BF",
"!  c #4B82BE",
"~  c #4E89BC",
"^  c #5A8FBC",
"/  c #78A2BC",
"(  c #4781C1",
")  c #4883C4",
"_  c #4C8CC4",
"`  c #4C86C9",
"'  c #4D8ACC",
"]  c #518AC3",
"[  c #5187CA",
"{  c #5882CC",
"}  c #548CCC",
"|  c #4C90C8",
" . c #5190CC",
".. c #4D81D2",
"X. c #4E8CD1",
"o. c #548DD4",
"O. c #538ED8",
"+. c #4A93D3",
"@. c #4B9CDA",
"#. c #5494D5",
"$. c #5A94D4",
"%. c #5299D6",
"&. c #5493D9",
"*. c #5A96DA",
"=. c #549ADB",
"-. c #5A9ADB",
";. c #6B9FC9",
":. c #609FD6",
">. c #6697DC",
",. c #619EDC",
"<. c #59A1DA",
"1. c #6BA0C1",
"2. c #6EA2CC",
"3. c #75A4D3",
"4. c #77AAD6",
"5. c #5FACEC",
"6. c #5EBCFD",
"7. c #65A4E4",
"8. c #6CA9E3",
"9. c #67A6EE",
"0. c #6BA7EE",
"q. c #65A9EE",
"w. c #6BADEA",
"e. c #74A9E7",
"r. c #70AFED",
"t. c #6CB4EE",
"y. c #6CB8EE",
"u. c #73B0E7",
"i. c #73B2EC",
"p. c #77BEEF",
"a. c #78BFEC",
"s. c #64AFF2",
"d. c #6BACF3",
"f. c #73AFF1",
"g. c #66B5F6",
"h. c #6BB5F5",
"j. c #65BAF4",
"k. c #6EBAF3",
"l. c #6BBAF4",
"z. c #6EBEF5",
"x. c #66B6FB",
"c. c #69B5FA",
"v. c #6BB6FA",
"b. c #6AB6FB",
"n. c #63BAF8",
"m. c #62BDFA",
"M. c #61BBFF",
"N. c #64BBFC",
"B. c #66BDFF",
"V. c #6AB9FB",
"C. c #72B5F3",
"Z. c #71B6F5",
"A. c #7DB1F5",
"S. c #72BBF4",
"D. c #71B4FB",
"F. c #71B6FD",
"G. c #72BAFC",
"H. c #5CC1FD",
"J. c #6DC1ED",
"K. c #74C0EF",
"L. c #65C0F4",
"P. c #6FC1F5",
"I. c #74C2F4",
"U. c #79C2F7",
"Y. c #91C2EB",
"T. c #81C5F2",
"R. c #8EC5F3",
"E. c #8CCDF0",
"W. c #8EC7F8",
"Q. c #8FCEFC",
"!. c #97C8F1",
"~. c #95CDFE",
"^. c #9BCFFF",
"/. c #87D2FC",
"(. c #8DD6FE",
"). c #9DD9F4",
"_. c #95D6FD",
"`. c #9FD4FC",
"'. c #94D9FE",
"]. c #9CD9FE",
"[. c #A1CFFA",
"{. c #A4D3FA",
"}. c #A0D7FB",
"|. c #A0D6FE",
" X c #A4D4FD",
".X c #A9D4FE",
"XX c #A1D9FE",
"oX c white",
/* pixels */
"oX; , Y D.b J F H 6.: oX; , Y D.b J F H 6.: ; H D.b J F H 6.: ; H |.F F H d.`.: ; w |.F F H d.b S ; H `.: ; w |.F F H d.b S ; H ",
"`.: ; w |.F F H d.b S `.: ; w |.F F H d.b S ; H |.F F H d.b S ; H  X6.6.z.}.H B.; :  X6.6.z.}.H H H S H B.; :  X6.6.z.}.H H H S ",
"H B.; :  X6.6.z.}.H H H B.; :  X6.6.z.}.H H H S  X6.6.z.}.H H H S k F S 1 R.H F J.' k F F 1 R.H H Z , H F J.' k F F 1 R.H H Z , ",
"H F J.' k F F 1 R.H H H F J.' k F F 1 R.H H Z , k F F 1 R.H H Z , H o H H e H c.H H H o H H e F.S # 7.H c.H H H o H H e F.S # 7.",
"H c.H H H o H H e F.S H c.H H H o H H e F.S # 7.H o H H e F.S # 7.H o H H 3 6.Y F 0 H o H H 3 , n.k.1 6.Y F 0 H o H H 3 , n.k.1 ",
"6.Y F 0 H o H H 3 , n.6.Y F 0 H o H H 3 , n.k.1 H o H H 3 , n.k.1 , H H H S F G H H , H H H S 1 ; }.; F G H H , H H H S 1 ; }.; ",
"F G H H , H H H S 1 ; F G H H , H H H S 1 ; }.; , H H H S 1 ; }.; H : 3 b < , H h H H h l.% ; |.6.M.(.XXY h H 1 X N.f ; S H F H ",
"H F J.' k F F 1 R.H H Z , C.F o H H o o Z * S S.6 G.F F , ; ~.H S ; 6 d.o o H H o S # F c l Z.F F Z ; _.H S r * Z.U o H H o H u ",
"H c.H H H o H H e F.S # 7.k H o f , S H H k f.f b H o o H H 2 ( ; c.j o o o ; * H H H H i.f H H o H H @ g.f L j k F o 7 * H H D ",
"6.Y F 0 H o H H 3 , n.k.1 D h o F r S H H 2 b F ; H o o H H ; <.m.# : H o o ; D H h # m.f 9 D H o H H > , c. .1 F H o 7 D F D S ",
"F G H H , H H H S 1 ; }.; , D H H H H ; * Z.F H H S 7 H H H S ; {.; ; , H F H D u ; L.F H S H # F H H H , ; ;.# ; H H S H H ; e ",
"M.F H w ; ; X F H H ; ].; ; ; S h 0 ; ; * ^.n H H ; ; ; H D F 9 {.; ; ; D H H ; , , ].6.H H , ; : * H H H X 2.; ; , F h ; ; ; t ",
"h o.3.] = ; ; ; D H +.O.o.H H o 0 ; ~ O.o.H [ 3._ _ ; W W W W W W W W W W u ; ; ` } h k o.] _ # ; , 0 S H &.&.k H H S 1 ; _ O.[ ",
"k F f k k.c.k., V.c.= c.V V.XX|.|.j.b S H * o W W W W                     W W W W o # H h f k V.c.t.k.x.V.4 &.V.N. X|.a.n.k H S ",
"1 ; F h 1 : ].l.; ; X N.u # ; ; , -.b F H W                                       W W , 7 H H , ; ].* ; ; @ =., ; ; ; i m.F k S ",
"< ; # 0 * 6.x.H 7 ; H V.k 1 ; ; F =.F W W                                           * W W # S * N.r.h ; ; b %.h # , , f m.H f S ",
", ; , b C.C.j h 9 , H H q.H H 1 F $.W                                                   * W v t.C.M H 1 : I X.k H H 7 H Z.m k H ",
" X.XS.b f ; N.h H S H H 5.o o H H                                                         Q W D < k.H H D F ' H o o H o F m k.F.",
"H V.k k * : ].H o o o H k o H H                                                               W ; `.H o o o k k o H k H H H * f ",
"6.I , H S * ].H o o o k d.H ;                                                                   W |.H o o o X.b o X ; u H o ; h ",
"k G : ; D H S g.H , D k 0.k                                                                       W k D ; H ' b F F S ; H H H B ",
">...P j # u b 6.w < ; b x                                                                           W 9 : # k T.^ Y 9 9 H H H H ",
"B.b H $.H h B.M 6 # ; * w.                                                                            * , ; ! k k c.H H * , * T ",
"d D H F V.H XXF h.N.).c.                                                                              W N.].' f o k |.o , ; ; k.",
"f H X 0 H 6.H k H H 6.W                                                                                 W j., , H D G.H x.N.N.; ",
"* S D q b c.H o h 6.; W                                                                                 W # , H S 4 h.Q.: ; , q.",
"R.O ; r ~.F F H 7.M f W                                                                                 W u 0 H ; N.f 1 ; F , 9 ",
"k F.; ,  Xn.B.k.].D W                                                                                     W H * ; N.h ; D H S S ",
"H h y._ j F F ; !.f W                                                                                     W u ; j.k H S H o H Z ",
"k k `.#.f H H S w.Y W                                                                                     W , h.F h o H H o H ; ",
"V 9.S s H o H H 1 8.W                                                                                     W ! f H H o 1 1 F H H ",
"h I S H * H o H H , W                                                                                     W 2.; ; h H H H o , y ",
"N.H H w : , ; F H H W                                                                                     W 2.; ; , F k , , ; u ",
"I N.D ; ; ; ; , H H W                                                                                     W *.h S S H 7 ; # 6.d.",
"H H '.B.@ ; ; ; A H W                                                                                     W  .k H H S ; ; 6.b I ",
"q 7 F H g d (.,.a a W                                                                                     W @.g a C C x H.F H S ",
"< ; , w * N.h.H 7 ; W                                                                                     W %.f , ; , h m.H f S ",
"< ; , h c.N.k H * ; H                                                                                     H ' k H H ; h m.H h H ",
"* ; 4 n.2 ; V.h S 1 H W                                                                                 W H ' H o o H o H N.H f ",
"[._.A.k S # p.H o o o W ,.                                                                              W o ' k o Y H H H H u.h.",
"N.n 1 H D ; ].H o o o H W                                                                               o o } k o , * s H H ; h ",
"I G : , D D S h.H , H k 0.W                                                                           H ; H ' F F S S ; H H S B ",
"M.F ; ; ; H D N.7 ; # Y N W                                                                         W 1 , , k V.k F ; ; H H H H ",
"v N.`.! * ; j D.k , ; D R `.W                                                                     W v H , ; H |.|.k H o S H H k ",
"_ h H E -.F E.Y ] } / o.K H } W                                                                 W W.{ |  .1.) f H } 4.H , ; ; #.",
"f H ; e k V.D o S k k.2 , D H j.W                                                             W V.D o h k C.* * F D Z.o C.c.c.2 ",
"1 F S q H M.H o h B.# # 7 S , N.j.W ;                                                       W H N.o o h x.$ ; D S , N./., ; # w.",
"* + ; F c.F H o h m.; % H , N.; ; * W                                                     W H M.G o o h N.# 0 H ; 6.* ; , F H y ",
"|.5 ; 0 |.v j j 8.k H 1 H # 6.H Z , D W W                                               W ; D ].m j f P.F S w S X N.h 1 , H 1 , ",
"k k i.! f j j @ Y.k H F ; u.k H H H o o H W W                                     W W k f p C.D j j - .XY H s ; k.k H H H o o S ",
"H H '.$.h h h D 8.H H ; i j S o H H o o , * H W W W W                     W W W W * , F F U.k F h f * j.H S , i.b G o H H o H ; ",
"H M.S h H o H H 8 g.F * s.H H o f , S H F G g.H k H o W W W W W W W W W W o ; , H S S k C.h H H o H S ; m.H ! m H H o 7 , F H S ",
"6.H S 0 k o H H 7 ; m.B., D h o I u S H o 3 b G X H o o H H ; :.6.: X H o o ; H H h # N.H 1 D h o H H , . c.+.* H f o 7 H F D S ",
"` F H s ; u u H H 9 , ].; ; u F H s u # * K.b H H r 1 u S H H 1 |.; ; , H H o u 0 ; T.` H H u ; w u H H 0 # 2.; ; w H H u u ; y ",
"k V.S ; ; ; ; * H H J j.S S S H S ; X c.l.k D.h # ; ; ; # h H H y.G S S H H ; * T l.f b D.9 : ; ; , D H H H #.D S S H 7 ; X V.w.",
"k S ].V.& ; ; ; A H 6.b q.H H H ; ; l.F H h h  XN.N.; ; ; , H 7.c B.H H H , ; * 7.F H k f I.N., ; ; ; D H c.' k H H S ; ; N.Y F ",
"H F H G h.B.6.3 M.M.* B.M N.].].].6.Y F H * H H H k M.m.* m.M.z c.F 6.S.].].V.V.h o , H S o F N.N.i.h.M.M.* *.V.N.XX].I.H.F H S ",
", : H F # @ _.t.* ; # V.u ; , , 7 -.H H H ; ; D D H , _.D., ; : V.F ; ; ; , I N.k H ; : 1 H S ; * ^.5 ; ; 5 *.* ; , , f B.H h S ",
"< ; > f e.N.V H * ; oX; , Y D.b J oX; , Y D.b J F H 6.: ; H : Z B h.H A , S F V.H H s : : r H i.M.T k ; ; b #.k Z S ; h m.H f H ",
"; , Y F.b J F H 6.: `.: ; w |.F F `.: ; w |.F F H d.b F H s ; F H s ; u u H H 9 , ].; ; u F H s u # * K.b H H r 1 u S H H 1 |.; ",
": ; w |.F F H d.b S H B.; :  X6.6.H B.; :  X6.6.z.}.H V.S ; ; V.S ; ; ; ; * H H J j.S S S H S ; X c.l.k D.h # ; ; ; ; h H H y.G ",
"B.; :  X6.6.z.}.H H H F J.' k F F H F J.' k F F 1 R.H S ].V.& S ].V.& ; ; ; A H 6.b q.H H H ; ; l.F H h h  XN.N.; ; ; , H 7.c B.",
"F J.' k F F 1 R.H H H c.H H H o H H c.H H H o H H e F.F H G h.F H G h.B.6.3 M.M.* B.M N.].].].6.Y F H * H H H k M.m.* m.M.z c.F ",
"c.H H H o H H e F.S 6.Y F 0 H o H 6.Y F 0 H o H H 3 , : H F # : H F # @ _.t.* ; # V.u ; , , 7 -.H H H ; ; D D H , _.D., ; : V.F "
};
