/* XPM */
static char *_de0c63aa04148d1c7e5bbbecd8624famBHmJ0O8GB8jP6wq[] = {
/* columns rows colors chars-per-pixel */
"64 64 122 2 ",
"   c black",
".  c #000500",
"X  c #010B00",
"o  c #020C00",
"O  c #021200",
"+  c #041300",
"@  c #031703",
"#  c #041500",
"$  c #041B00",
"%  c #041F00",
"&  c #062200",
"*  c #062400",
"=  c #082700",
"-  c #072800",
";  c #072F00",
":  c #092B00",
">  c #092F00",
",  c #093100",
"<  c #083500",
"1  c #0B3800",
"2  c #0B3D00",
"3  c #0C3C00",
"4  c #0A4100",
"5  c #0C4100",
"6  c #0A4400",
"7  c #0E4600",
"8  c #0C4A00",
"9  c #0E4D00",
"0  c #114902",
"q  c #0E5200",
"w  c #0E5400",
"e  c #0F5900",
"r  c #0F5C00",
"t  c #105700",
"y  c #105F00",
"u  c #136000",
"i  c #136700",
"p  c #136900",
"a  c #136E01",
"s  c #1A6D07",
"d  c #157300",
"f  c #167700",
"g  c #167800",
"h  c #25780F",
"j  c #286716",
"k  c #2D7118",
"l  c #3E7A27",
"z  c #173A46",
"x  c #1A3D47",
"c  c #163D49",
"v  c #16414E",
"b  c #1C4048",
"n  c #164350",
"m  c #164855",
"M  c #15505E",
"N  c #1C575F",
"B  c #214549",
"V  c #23484A",
"C  c #224A4D",
"Z  c #335A51",
"A  c #3C6452",
"S  c #145766",
"D  c #1F5B62",
"F  c #155B6B",
"G  c #136272",
"H  c #1A6A76",
"J  c #146E7F",
"K  c #426A56",
"L  c #497359",
"P  c #4B7758",
"I  c #517E55",
"U  c #527C5C",
"Y  c #1F8107",
"T  c #23830B",
"R  c #559D37",
"E  c #57825F",
"W  c #5F9056",
"Q  c #689D4B",
"!  c #62AE42",
"~  c #67AE49",
"^  c #70B34F",
"/  c #73B253",
"(  c #78BC57",
")  c #7DBF5B",
"_  c #538362",
"`  c #628F63",
"'  c #689665",
"]  c #79AA6C",
"[  c #86B870",
"{  c #89BA71",
"}  c #8AC765",
"|  c #8FC26B",
" . c #8FC76D",
".. c #8EC869",
"X. c #90C96C",
"o. c #96CF6F",
"O. c #95CA76",
"+. c #9ACE77",
"@. c #97D170",
"#. c #99D072",
"$. c #9BD473",
"%. c #9DD476",
"&. c #9DD279",
"*. c #9FD778",
"=. c #A4DA7B",
"-. c #177D8B",
";. c #127E91",
":. c #138497",
">. c #138A9E",
",. c #1592A5",
"<. c #1197AB",
"1. c #1197AC",
"2. c #0F9AB0",
"3. c #129CB2",
"4. c #139FB5",
"5. c #13A1B6",
"6. c #13A3B9",
"7. c #11A4BB",
"8. c #12A5BC",
"9. c #11A9BF",
"0. c #11A9C0",
"q. c #13AEC5",
/* pixels */
"                                                                                                                                ",
"                                                                                                                                ",
"                                                                                                                                ",
"                                                                                                                                ",
"                                                                                                                                ",
"                                                                                                                                ",
"                                                                                                                                ",
"                                                                                                                                ",
"                                                                                                                                ",
"                                                                                                                                ",
"                                                                                                                                ",
"                                                                                                                                ",
"                                                                                                                                ",
"                                                                                                                                ",
"                                                                                                                                ",
"                                                                                                                                ",
"                                                                                                                                ",
"                                                                                                                                ",
"                                                                                                                                ",
"                                                                                                                                ",
"                                                                                                                                ",
"                                                                                                                                ",
"                                                                                                                                ",
"                                                                                                                                ",
"                  . & $                                                 .   o I <                                               ",
"              o 8 g q.z d -                                           : Z o 6 F &                                               ",
"              X.q.q.q.q.q.,.% +         X .                         , =.Z $ =.] o                   o X                         ",
"              8 q.&.r ^ q.q.g z O     o =.7                       X Z q.Z , z F $             . : O =.X.X                       ",
"              & S &.@ X $.q.Y v @   o - z p % | .                 & 1.q.Z g q.F & . o @ l , @ q q., =.4.%                       ",
"              o [ q.3 % z 3.u =.O 6 =.O.q.! z #..   * @   X 1 ,   5 q.z <.z z q.3 9 z a G q.=.*.q.- =.q.5     X                 ",
"              X [ q.#.P q.s p q.d 8. .g q.0.+.$   & H g g N =./   t q.g q.q.z q.g q.q.z q.=.q.x +.* i q.h # u B &               ",
"                e q.q.q.#.% y q.~ z 2 9 z _ ;     t L =.n { n /   y 8.y 8.q.g q.z A x #.q.7.B q.q.J r q.m +.-.w o               ",
"                5 q.=.:.q...8 q.U z q.O.z ` z $ . =.=.z =.1.z r & c M * [ q.d F g q.x q.q.q.g x =.=.8 m q.=.=                   ",
"                > 9.O.7 @.q.T q.! q.} g q.g q.y . 9 f V u ) V Q $ C { O j z 6 0.g D 6.g G =.=.5.i - O.q.o.*                     ",
"                & 9.=.o o y q.=.$ & . 7 r $ z B O     X   . o . $ c { . . # * q.=.@ O X # 9 z 0.p E q.i .                       ",
"                O b q.%   . i q.>     . .   i 2.%               % c k       o ( O.@       o 1 0.g ;.d X                         ",
"                  %.q.&     o =.' X         # , .               X 0 $         - z $         X g q.R o                           ",
"                  4 K o       - W X                                             .           < >.u o                             ",
"                  . X                                                                       & $                                 ",
"                                                                                                                                ",
"                                                                                                                                ",
"                                                                                                                                ",
"                                                                                                                                ",
"                                                                                                                                ",
"                                                                                                                                ",
"                                                                                                                                ",
"                                                                                                                                ",
"                                                                                                                                ",
"                                                                                                                                ",
"                                                                                                                                ",
"                                                                                                                                ",
"                                                                                                                                ",
"                                                                                                                                ",
"                                                                                                                                ",
"                                                                                                                                ",
"                                                                                                                                ",
"                                                                                                                                ",
"                                                                                                                                ",
"                                                                                                                                ",
"                                                                                                                                ",
"                                                                                                                                ",
"                                                                                                                                ",
"                                                                                                                                ",
"                                                                                                                                "
};
