/* XPM */
static char * wall_xpm[] = {
"32 32 8 1",
" 	c None",
".	c #1E1208",
"+	c #6C4C31",
"@	c #BF8F57",
"#	c #956D44",
"$	c #634124",
"%	c #462E1A",
"&	c #2D1D0F",
"                                ",
"                                ",
"                                ",
"                                ",
"                                ",
"                                ",
"                                ",
"                       ....     ",
"                      .+@##..   ",
"                     .+@@#+++.  ",
"                   ..##@#+++$$. ",
"                 ..+#@@#+++$$%. ",
"            .....######+++$$%%. ",
"          ..####+%%+#++++$$$%.  ",
"       ...###+%%%&&+++$$$$$%.   ",
"    ...+####+%&&&@@++$$$%%&.    ",
"  ..+#####+++@@@+++$$%%%&&&...  ",
"..++#++++++++++++#$####@@@#@@#. ",
"+++++++$$$$$$+++++++++#+##@@+$$.",
"$$$+++$$$%%$$$$$$++++++$$$+$$%%.",
"$$$$$$$%%%%%%%%%%%%$$$$$%%$%%%%.",
" %%%  %%%%%     %%%%%%  %%%     ",
"                                ",
"                                ",
"                                ",
"                                ",
"                                ",
"                                ",
"                                ",
"                                ",
"                                ",
"                                "};
